<svg width="87" height="88" viewBox="0 0 87 88" fill="none" xmlns="http://www.w3.org/2000/svg">
<path d="M56.6666 39.4584V39.5018M14.0829 28.0964C12.1823 26.6357 10.7226 24.6779 9.86511 22.4394C9.00762 20.2009 8.78575 17.7689 9.22401 15.4123C9.66228 13.0556 10.7436 10.8659 12.3485 9.08537C13.9534 7.30481 16.0194 6.00265 18.318 5.32283C20.6167 4.643 23.0586 4.61197 25.3738 5.23317C27.689 5.85437 29.7874 7.10361 31.437 8.84282C33.0866 10.582 34.2232 12.7435 34.7212 15.0883C35.2192 17.4331 35.0592 19.8699 34.2589 22.1294" stroke="#BF101D" stroke-width="8.66667" stroke-linecap="round" stroke-linejoin="round"/>
<path d="M60.9996 9.12549V25.6052C66.3623 28.7086 70.4453 33.6196 72.5176 39.4588H78.3286C79.4778 39.4588 80.58 39.9154 81.3927 40.728C82.2054 41.5407 82.6619 42.6429 82.6619 43.7922V52.4588C82.6619 53.6081 82.2054 54.7103 81.3927 55.523C80.58 56.3356 79.4778 56.7922 78.3286 56.7922H72.5132C71.0572 60.9088 68.5829 64.5922 65.3286 67.5085V76.2922C65.3286 78.0161 64.6437 79.6694 63.4248 80.8883C62.2058 82.1073 60.5525 82.7922 58.8286 82.7922C57.1047 82.7922 55.4514 82.1073 54.2324 80.8883C53.0134 79.6694 52.3286 78.0161 52.3286 76.2922V73.7658C50.8967 74.0065 49.4472 74.1268 47.9952 74.1255H30.6619C29.21 74.1268 27.7604 74.0065 26.3286 73.7658V76.2922C26.3286 78.0161 25.6438 79.6694 24.4248 80.8883C23.2058 82.1073 21.5525 82.7922 19.8286 82.7922C18.1047 82.7922 16.4514 82.1073 15.2324 80.8883C14.0134 79.6694 13.3286 78.0161 13.3286 76.2922V67.5085C9.40241 63.9983 6.63477 59.3787 5.392 54.2609C4.14923 49.1431 4.48992 43.7686 6.36898 38.8488C8.24805 33.9289 11.5769 29.6957 15.9149 26.7094C20.2528 23.7231 25.3954 22.1246 30.6619 22.1255H41.4952L60.9996 9.12549Z" stroke="#BF101D" stroke-width="8.66667" stroke-linecap="round" stroke-linejoin="round"/>
</svg>
