<svg width="91" height="91" viewBox="0 0 91 91" fill="none" xmlns="http://www.w3.org/2000/svg">
<path d="M90.2536 19.3049C89.9398 20.7858 89.5443 22.2482 89.0686 23.6853C88.018 26.4741 86.2446 28.9333 83.9302 30.8108C81.6158 32.6882 78.8437 33.9164 75.8982 34.3693C76.0148 34.6898 76.1216 35.0103 76.2479 35.3406C76.9958 37.0791 77.7339 38.8371 78.5206 40.566C78.5788 40.6546 78.6188 40.7538 78.6386 40.8579C78.6583 40.9621 78.6573 41.0691 78.6357 41.1728C78.614 41.2765 78.5722 41.375 78.5124 41.4625C78.4527 41.5501 78.3763 41.625 78.2875 41.6829C77.0249 42.8582 75.772 44.0528 74.5579 45.2766C74.3304 45.5478 74.2126 45.8943 74.2276 46.2479C74.2276 48.7829 74.3442 51.3276 74.4607 53.8626C74.4854 54.2731 74.6539 54.6617 74.9367 54.9602C76.1605 56.0966 77.4231 57.1941 78.7052 58.2625C78.8653 58.3597 78.9843 58.5122 79.0397 58.6911C79.0952 58.87 79.0833 59.063 79.0063 59.2338C77.4717 63.1188 75.9565 67.0428 74.4607 71.0055C74.41 71.2131 74.2798 71.3925 74.0982 71.5051C73.9165 71.6177 73.698 71.6545 73.4895 71.6077C71.7606 71.5171 70.0318 71.4685 68.3029 71.462C67.9778 71.5012 67.6778 71.6564 67.4579 71.8991C65.6578 73.7445 63.8772 75.619 62.1159 77.5227C61.8919 77.7673 61.7642 78.0848 61.7566 78.4163C61.8245 80.1743 61.9314 81.9226 62.0674 83.6709C62.1105 83.8751 62.0755 84.088 61.9695 84.2678C61.8634 84.4476 61.6939 84.5811 61.4943 84.6421C57.6287 86.2739 53.7986 87.9347 50.0042 89.6247C49.8324 89.7261 49.6285 89.7584 49.4337 89.7152C49.239 89.6719 49.068 89.5562 48.9552 89.3916C47.8092 88.1775 46.6145 87.0023 45.4684 85.7882C45.3186 85.6198 45.129 85.4916 44.9169 85.4153C44.7049 85.3389 44.4771 85.3169 44.2543 85.3512C41.7484 85.4677 39.2231 85.4774 36.7173 85.5648C36.3362 85.5724 35.9706 85.7173 35.6877 85.9728C34.5513 87.2354 33.4635 88.4689 32.3854 89.751C32.2696 89.931 32.0883 90.0589 31.8799 90.1079C31.6715 90.1568 31.4523 90.1229 31.2685 90.0132C27.3834 88.4916 23.4983 86.9926 19.6132 85.5163C19.4075 85.4634 19.2304 85.3323 19.1198 85.1509C19.0091 84.9696 18.9736 84.7522 19.0208 84.545C19.0985 82.8259 19.147 81.097 19.1567 79.3681C19.1259 79.0399 18.9735 78.735 18.7294 78.5134C16.8257 76.7004 14.9026 74.9165 12.96 73.1617C12.7184 72.9306 12.4006 72.7959 12.0665 72.7829C10.3506 72.8866 8.63143 73.0322 6.90905 73.22C6.70569 73.2708 6.49054 73.2404 6.30922 73.1352C6.1279 73.0301 5.99467 72.8584 5.93778 72.6567C4.28015 68.7781 2.59338 64.9254 0.877475 61.0986C0.779688 60.9225 0.751376 60.7161 0.798115 60.5202C0.844853 60.3243 0.963254 60.1529 1.13001 60.0399C2.39265 58.8647 3.64559 57.67 4.86939 56.4462C5.09052 56.1715 5.20748 55.8275 5.19962 55.4749C5.19962 52.9302 5.10249 50.3855 5.00536 47.8408C4.98918 47.436 4.823 47.0517 4.53916 46.7627C3.30565 45.5972 2.02357 44.4996 0.741498 43.4507C0.556569 43.3446 0.420501 43.1703 0.362414 42.9652C0.304326 42.7601 0.328834 42.5404 0.430692 42.3531C1.9653 38.468 3.47076 34.583 4.94709 30.6979C4.99382 30.4857 5.12138 30.3001 5.30272 30.1804C5.48405 30.0607 5.70489 30.0164 5.91836 30.0569C7.60836 30.1443 9.30808 30.1637 11.0078 30.2511C11.2337 30.2671 11.46 30.2256 11.6655 30.1305C11.871 30.0354 12.049 29.8898 12.183 29.7072C13.873 27.8618 15.6505 26.0747 17.3599 24.239C17.6397 23.956 17.8027 23.578 17.8164 23.1803C17.729 21.4611 17.5736 19.742 17.3987 18.0229C17.3476 17.8208 17.3766 17.6068 17.4798 17.4257C17.5831 17.2446 17.7524 17.1105 17.9524 17.0516C21.7468 15.4004 25.5865 13.7363 29.4716 12.0593C29.665 11.9396 29.8971 11.899 30.1196 11.9461C30.3421 11.9931 30.5379 12.1241 30.6663 12.3118C31.8124 13.5259 32.9682 14.7303 34.1823 15.8861C34.5029 16.1464 34.9057 16.2842 35.3186 16.2746C37.776 16.2746 40.2235 16.158 42.6809 16.1386C42.9201 16.1673 43.1627 16.1342 43.3855 16.0424C43.6082 15.9505 43.8037 15.8031 43.9532 15.6141C45.0119 14.3223 46.1386 13.0888 47.1875 11.7873C47.2423 11.6966 47.3145 11.6176 47.4001 11.5552C47.4857 11.4927 47.5829 11.448 47.6861 11.4235C47.7892 11.3991 47.8961 11.3955 48.0007 11.4129C48.1052 11.4304 48.2052 11.4685 48.2948 11.5251C51.1115 12.6712 53.9379 13.7687 56.8128 14.8954C57.1333 13.8367 57.3956 12.7683 57.7841 11.7388C59.022 8.30695 61.358 5.37965 64.4295 3.411C67.501 1.44235 71.1364 0.542424 74.7716 0.850836C76.2077 0.996673 77.626 1.28295 79.0063 1.70555C79.3654 1.79222 79.6938 1.97569 79.9559 2.236C80.218 2.49631 80.4037 2.82351 80.4929 3.182C80.582 3.54049 80.5711 3.91656 80.4614 4.2693C80.3517 4.62205 80.1474 4.93796 79.8707 5.18269C78.2293 6.85327 76.5587 8.49472 74.8978 10.1556C74.6744 10.379 74.4607 10.6121 74.1888 10.9035L80.5992 16.9447C80.9391 16.5465 81.4636 15.8861 82.0463 15.2839C83.3381 13.9532 84.6396 12.6517 85.9314 11.3988C86.17 11.1159 86.482 10.9044 86.8331 10.7874C87.1842 10.6705 87.5607 10.6527 87.9212 10.7361C88.2818 10.8195 88.6123 11.0007 88.8765 11.2599C89.1406 11.519 89.3281 11.8461 89.4183 12.205C89.7776 13.2734 89.9913 14.3903 90.273 15.4781L90.2536 19.3049Z" fill="#C00020"/>
<path d="M5.18994 41.7508C6.33604 42.7901 7.43357 43.8488 8.61852 44.8006C8.91287 45.0213 9.13851 45.321 9.26919 45.6649C9.39987 46.0088 9.43021 46.3827 9.35668 46.7432C8.95804 50.0891 9.04637 53.4752 9.61892 56.7958C9.63309 56.9813 9.61035 57.1679 9.552 57.3446C9.49365 57.5213 9.40086 57.6847 9.27898 57.8253C8.2203 58.9229 7.13248 59.933 6.06408 60.914C5.88503 61.0331 5.75885 61.2168 5.71181 61.4266C5.66477 61.6365 5.7005 61.8564 5.81155 62.0406C6.70512 64.0997 7.57926 66.1782 8.40484 68.2665C8.4331 68.377 8.48298 68.4809 8.55161 68.5721C8.62023 68.6633 8.70624 68.74 8.80466 68.7978C8.90309 68.8556 9.01199 68.8934 9.12507 68.9088C9.23815 68.9243 9.35318 68.9173 9.46352 68.8881C10.8524 68.7424 12.2608 68.6841 13.6497 68.4898C13.9141 68.4258 14.1922 68.4488 14.4425 68.5556C14.6927 68.6623 14.9018 68.8471 15.0386 69.0823C17.0663 71.9303 19.6176 74.3662 22.5562 76.26C22.7798 76.3791 22.9613 76.5643 23.076 76.7902C23.1907 77.0161 23.233 77.2718 23.1973 77.5226C23.1973 79.0184 23.1973 80.5141 23.1973 82.0099C23.2185 82.1787 23.2786 82.3404 23.373 82.4819C23.4674 82.6235 23.5935 82.7412 23.7412 82.8258C25.8391 83.6999 27.9759 84.4866 30.0835 85.3511C30.2605 85.4504 30.4694 85.4766 30.6654 85.4239C30.8614 85.3713 31.0291 85.244 31.1325 85.0694C31.6764 84.4186 32.3175 83.8359 32.7934 83.1268C33.1863 82.4384 33.7905 81.8948 34.5164 81.5764C35.2424 81.2581 36.0515 81.1819 36.8241 81.3591C39.7688 81.7255 42.7552 81.5644 45.6433 80.8832C45.8805 80.8241 46.13 80.8369 46.36 80.9199C46.59 81.0029 46.7902 81.1524 46.935 81.3494C47.9063 82.4373 48.9359 83.4959 49.9751 84.5255C50.0957 84.6202 50.2358 84.6867 50.3854 84.7204C50.5349 84.754 50.6901 84.7537 50.8395 84.7197C53.0055 83.8553 55.152 82.9229 57.3179 82.039C57.755 81.8642 57.8424 81.6311 57.7938 81.1746C57.6287 79.7857 57.551 78.3774 57.3859 76.9787C57.3348 76.7111 57.366 76.4342 57.4752 76.1846C57.5844 75.935 57.7666 75.7243 57.9978 75.5801C60.8661 73.4703 63.3416 70.8732 65.3114 67.9071C65.4317 67.7642 65.5799 67.6474 65.7469 67.5639C65.9139 67.4804 66.0963 67.4319 66.2827 67.4214C67.7396 67.3632 69.1965 67.4214 70.6728 67.4214C70.8836 67.4625 71.1021 67.4209 71.283 67.3051C71.4638 67.1894 71.5931 67.0084 71.6441 66.7998C72.4308 64.6922 73.2564 62.604 74.1111 60.5157C74.2122 60.3411 74.2413 60.1339 74.1924 59.9382C74.1434 59.7424 74.0203 59.5733 73.8489 59.4668C72.7028 58.4955 71.5567 57.5242 70.4495 56.553C70.3293 56.4408 70.233 56.3056 70.1663 56.1554C70.0995 56.0052 70.0637 55.8431 70.0609 55.6788C70.6087 52.1306 70.5232 48.5133 69.8084 44.9949C69.7357 44.7399 69.7403 44.469 69.8215 44.2166C69.9028 43.9642 70.0571 43.7415 70.2649 43.5768C71.3236 42.6055 72.324 41.5663 73.3633 40.5853C73.5299 40.4692 73.6451 40.2932 73.685 40.0941C73.7248 39.895 73.6861 39.6882 73.5769 39.5169C73.0033 38.3696 72.5068 37.1852 72.0909 35.9718C71.9833 35.4149 71.6764 34.9163 71.2277 34.5694C70.7789 34.2226 70.219 34.0512 69.653 34.0875C69.2496 34.0688 68.852 34.1888 68.5263 34.4275C66.3798 36.5254 64.3402 38.6719 62.2228 40.7796C62.0644 40.8996 61.9545 41.0727 61.9135 41.2672C61.8725 41.4617 61.903 41.6644 61.9994 41.8382C63.6376 45.8745 64.112 50.2891 63.3689 54.5813C61.2224 67.7517 48.3919 76.8622 35.2993 74.2592C25.9557 72.3943 19.5356 66.8387 16.7189 57.6893C13.9314 48.7148 16.0099 40.6145 22.5077 33.8156C25.8982 30.3033 30.2855 27.9168 35.0763 26.9788C39.8671 26.0408 44.8305 26.5965 49.2952 28.5707C49.6935 28.7456 50.0237 28.9398 50.451 28.493C52.5393 26.3562 54.6761 24.268 56.7643 22.1312C56.9466 21.8924 57.0363 21.5957 57.0168 21.2959C56.9993 20.7381 56.9178 20.1841 56.774 19.6448C56.6765 19.3123 56.4583 19.0282 56.1621 18.8483C53.9088 17.9451 51.636 17.1001 49.3632 16.2162C49.201 16.1249 49.0099 16.0992 48.8293 16.1443C48.6486 16.1895 48.4921 16.3021 48.3919 16.459C47.5275 17.4886 46.566 18.4501 45.7501 19.5185C45.5318 19.8164 45.2331 20.0458 44.8891 20.18C44.545 20.3142 44.1699 20.3475 43.8076 20.2761C40.4581 19.8825 37.0696 19.9708 33.7452 20.5383C33.5578 20.5589 33.3681 20.5411 33.1878 20.486C33.0074 20.4309 32.8402 20.3397 32.6963 20.2178C31.5987 19.1689 30.54 18.0713 29.4911 16.9641C29.3849 16.8138 29.2265 16.7086 29.0468 16.6691C28.8672 16.6296 28.6792 16.6586 28.5198 16.7504C26.4219 17.7217 24.2948 18.5958 22.1968 19.5574C22.0638 19.6386 21.951 19.7491 21.8669 19.8803C21.7828 20.0115 21.7295 20.1601 21.7112 20.3149C21.6553 21.2905 21.7205 22.2692 21.9055 23.2288C22.3717 25.045 21.6335 26.1426 20.1863 27.1138C17.9408 28.7775 16.0406 30.8624 14.5918 33.2522C14.4142 33.6054 14.1331 33.896 13.786 34.0851C13.4389 34.2743 13.0423 34.3531 12.6493 34.3109C11.1147 34.2041 9.55094 34.3109 7.95806 34.3109L5.18994 41.7508Z" fill="#C00020"/>
<path d="M74.0234 4.92025C72.4461 4.80361 70.8612 5.00109 69.3607 5.50125C67.8602 6.00142 66.4739 6.79433 65.282 7.83406C61.193 11.5443 59.94 16.1384 61.3969 21.4318C61.5815 21.8936 61.6283 22.3989 61.5318 22.8867C61.4353 23.3744 61.1995 23.8238 60.853 24.1805C55.4916 29.5419 50.1691 34.9227 44.7397 40.2453C44.2415 40.6276 43.6381 40.848 43.0108 40.8766C42.3582 40.8942 41.7059 40.8322 41.0683 40.6921C39.6455 40.4967 38.1976 40.5979 36.8158 40.9891C35.434 41.3803 34.148 42.0532 33.0388 42.9654C31.9295 43.8776 31.021 45.0094 30.3703 46.2897C29.7196 47.57 29.3408 48.971 29.2577 50.4047C29.1521 51.9195 29.3721 53.4393 29.903 54.862C30.4338 56.2846 31.2631 57.5771 32.3351 58.6525C33.4071 59.7279 34.697 60.5613 36.118 61.0966C37.5389 61.6319 39.058 61.8567 40.5731 61.756C42.0882 61.6552 43.5642 61.2311 44.9018 60.5124C46.2393 59.7936 47.4074 58.7967 48.3276 57.5888C49.2477 56.3809 49.8986 54.99 50.2363 53.5096C50.574 52.0291 50.5908 50.4936 50.2856 49.0061C50.1277 48.4772 50.1233 47.9143 50.2729 47.383C50.4225 46.8517 50.72 46.3737 51.1306 46.0049C56.246 40.9478 61.3289 35.8584 66.3795 30.7366C66.7942 30.2506 67.3537 29.9101 67.9759 29.7651C68.5981 29.62 69.2504 29.6779 69.8372 29.9304C71.499 30.4211 73.2436 30.5664 74.9637 30.3574C76.6838 30.1484 78.3428 29.5895 79.8387 28.7151C81.3346 27.8406 82.6356 26.6692 83.6617 25.273C84.6878 23.8768 85.4171 22.2853 85.8049 20.5965C85.9933 19.4423 86.1133 18.278 86.1643 17.1097L85.8826 17.0611C84.6102 18.3917 83.3476 19.7224 82.0655 21.0433C80.7834 22.3642 79.5985 22.4711 78.2484 21.0433C75.5159 18.3173 72.8126 15.5686 70.1383 12.7972C68.7494 11.3792 68.7786 10.3691 70.1383 8.97044C71.4981 7.57182 72.751 6.27032 74.0234 4.92025Z" fill="#FCFCFB"/>
<path d="M39.6895 74.8517C52.9926 74.8517 63.7769 64.0673 63.7769 50.7642C63.7769 37.4611 52.9926 26.6768 39.6895 26.6768C26.3864 26.6768 15.6021 37.4611 15.6021 50.7642C15.6021 64.0673 26.3864 74.8517 39.6895 74.8517Z" fill="#FCFCFB"/>
<path d="M53.0149 38.332C54.9268 38.7009 56.6679 39.679 57.9775 41.1199C59.2871 42.5609 60.0949 44.3872 60.28 46.3256C60.6976 51.3664 56.9583 55.2612 52.6652 56.2908C47.9352 57.4272 43.6227 56.2908 39.6211 53.6975C38.135 52.7084 36.7141 51.6248 35.367 50.4535C33.5597 48.8983 31.4957 47.6691 29.2674 46.8209C27.7161 46.251 26.0531 46.0514 24.4111 46.2382C23.4276 46.3715 22.5151 46.8238 21.8133 47.5255C21.1116 48.2273 20.6594 49.1398 20.526 50.1232C20.2976 51.1437 20.3406 52.2062 20.6507 53.2048C20.9609 54.2035 21.5274 55.1034 22.2937 55.8149C22.4297 55.9411 22.5462 56.0965 22.7793 56.3685C22.5719 56.352 22.3699 56.2947 22.1848 56.1996C21.9998 56.1046 21.8354 55.9738 21.7012 55.8149C20.5382 54.8236 19.703 53.503 19.306 52.0274C18.9089 50.5518 18.9685 48.9904 19.477 47.5494C20.0089 46.1557 20.935 44.947 22.1424 44.0708C23.3497 43.1946 24.786 42.6889 26.2759 42.6153C29.957 42.5085 33.2107 43.8391 36.3091 45.636C38.5648 47.1384 40.9318 48.4664 43.3896 49.6084C46.0117 50.783 48.9488 51.0562 51.7425 50.3855C52.7226 50.1367 53.6416 49.6906 54.4432 49.0743C55.2449 48.4581 55.9123 47.6847 56.4046 46.8015C58.318 43.5283 57.0457 40.1774 53.0149 38.332Z" fill="url(#paint0_linear_226_63)"/>
<path d="M50.0821 49.6374C51.0504 49.2736 51.8773 48.61 52.4422 47.7434C52.7708 47.2233 52.9387 46.6179 52.9249 46.0029C52.911 45.3878 52.7161 44.7905 52.3645 44.2857C52.0216 43.7942 51.5354 43.4205 50.9722 43.2154C50.4091 43.0103 49.7964 42.9838 49.2176 43.1396C46.3038 43.6253 44.2253 45.4513 42.0691 47.1995C41.7292 47.4812 41.4475 47.7434 40.9424 47.4909C39.9712 47.0344 39.8935 46.7819 40.5928 46.0146C43.2055 43.1591 45.9833 40.6143 50.0141 39.8373C50.969 39.6095 51.9713 39.6876 52.8794 40.0605C53.7875 40.4335 54.5554 41.0826 55.0744 41.9158C55.4589 42.793 55.5995 43.7576 55.4816 44.7081C55.3636 45.6585 54.9914 46.5595 54.4042 47.3161C53.8883 47.986 53.2365 48.5392 52.4916 48.9393C51.7466 49.3394 50.9255 49.5773 50.0821 49.6374Z" fill="url(#paint1_linear_226_63)"/>
<path d="M29.2097 48.1128C28.8891 48.0351 28.5686 47.9574 28.2384 47.8991C26.2958 47.5106 24.5767 48.5207 24.295 50.2593C24.2343 50.7223 24.2682 51.1928 24.3947 51.6422C24.5213 52.0917 24.7378 52.5108 25.0311 52.8741C25.3245 53.2374 25.6886 53.5373 26.1013 53.7557C26.5141 53.974 26.9668 54.1063 27.4322 54.1444C29.8313 54.3775 31.7932 53.2897 33.726 52.095C34.0174 51.9202 34.3088 51.454 34.6973 51.7454C35.0028 52.0802 35.2373 52.4733 35.3869 52.9012C35.4549 53.0566 35.2607 53.1828 35.1344 53.2897C33.2038 55.173 30.7369 56.4115 28.0733 56.8348C24.8389 57.2622 21.6726 54.7271 21.6823 51.6968C21.6657 50.7778 21.9527 49.879 22.4988 49.1397C23.045 48.4005 23.8197 47.862 24.703 47.6078C25.4498 47.3865 26.2334 47.3172 27.0075 47.4039C27.7815 47.4907 28.5303 47.7317 29.2097 48.1128Z" fill="url(#paint2_linear_226_63)"/>
<path d="M30.4917 71.9575C32.1623 68.7135 32.3662 65.6055 32.7645 62.4974C32.971 59.9642 33.894 57.5421 35.4257 55.514C36.163 54.5202 37.1474 53.7367 38.2813 53.2412C37.9596 53.8655 37.69 54.5152 37.4751 55.1837C37.0089 57.3011 36.5038 59.4282 36.2319 61.5358C36.0453 63.4994 35.5776 65.4261 34.843 67.2566C34.021 69.306 32.4716 70.9799 30.4917 71.9575Z" fill="#00187E"/>
<defs>
<linearGradient id="paint0_linear_226_63" x1="19.0399" y1="47.5397" x2="60.3188" y2="47.5397" gradientUnits="userSpaceOnUse">
<stop stop-color="#0D1262"/>
<stop offset="0.27" stop-color="#1A115C"/>
<stop offset="0.51" stop-color="#C70006"/>
<stop offset="0.82" stop-color="#C9C6C0"/>
</linearGradient>
<linearGradient id="paint1_linear_226_63" x1="40.1363" y1="44.684" x2="55.5406" y2="44.684" gradientUnits="userSpaceOnUse">
<stop stop-color="#0D1262"/>
<stop offset="0.27" stop-color="#1A115C"/>
<stop offset="0.51" stop-color="#C70006"/>
<stop offset="0.82" stop-color="#C9C6C0"/>
</linearGradient>
<linearGradient id="paint2_linear_226_63" x1="21.6435" y1="52.0853" x2="35.3578" y2="52.0853" gradientUnits="userSpaceOnUse">
<stop stop-color="#0D1262"/>
<stop offset="0.27" stop-color="#1A115C"/>
<stop offset="0.51" stop-color="#C70006"/>
<stop offset="0.82" stop-color="#C9C6C0"/>
</linearGradient>
</defs>
</svg>
