<svg width="80" height="80" viewBox="0 0 80 80" fill="none" xmlns="http://www.w3.org/2000/svg">
<path fill-rule="evenodd" clip-rule="evenodd" d="M72.2499 14.6256C74.1285 14.6256 75.9302 13.8794 77.2585 12.551C78.5869 11.2226 79.3332 9.42092 79.3332 7.54231C79.3332 5.66369 78.5869 3.86202 77.2585 2.53364C75.9302 1.20526 74.1285 0.458985 72.2499 0.458985C70.3713 0.458985 68.5696 1.20526 67.2412 2.53364C65.9128 3.86202 65.1665 5.66369 65.1665 7.54231C65.1665 9.42092 65.9128 11.2226 67.2412 12.551C68.5696 13.8794 70.3713 14.6256 72.2499 14.6256ZM48.1666 40.1256C48.1666 42.3799 47.271 44.5419 45.677 46.136C44.0829 47.73 41.9209 48.6256 39.6666 48.6256C37.4123 48.6256 35.2503 47.73 33.6562 46.136C32.0621 44.5419 31.1666 42.3799 31.1666 40.1256C31.1666 37.8712 32.0621 35.7092 33.6562 34.1152C35.2503 32.5211 37.4123 31.6256 39.6666 31.6256C41.9209 31.6256 44.0829 32.5211 45.677 34.1152C47.271 35.7092 48.1666 37.8712 48.1666 40.1256ZM39.6666 57.1255C43.4357 57.1259 47.098 55.8736 50.0778 53.5657C53.0576 51.2577 55.186 48.025 56.1282 44.3756H66.5832C66.9874 44.9158 67.4597 45.388 67.9999 45.7922V67.0422C66.8105 67.9342 65.932 69.1778 65.4887 70.5968C65.0455 72.0159 65.0599 73.5384 65.53 74.9488C66.0002 76.3592 66.9021 77.5859 68.1082 78.4551C69.3142 79.3244 70.7632 79.7922 72.2499 79.7922C73.7365 79.7922 75.1855 79.3244 76.3916 78.4551C77.5976 77.5859 78.4996 76.3592 78.9697 74.9488C79.4398 73.5384 79.4543 72.0159 79.011 70.5968C78.5677 69.1778 77.6892 67.9342 76.4999 67.0422V45.7922C77.3117 45.1833 77.9833 44.4071 78.469 43.516C78.9548 42.625 79.2434 41.64 79.3154 40.6277C79.3873 39.6154 79.2409 38.5995 78.886 37.6487C78.5312 36.6979 77.9761 35.8345 77.2585 35.1169C76.5409 34.3993 75.6775 33.8443 74.7267 33.4894C73.776 33.1346 72.76 32.9881 71.7477 33.0601C70.7355 33.132 69.7504 33.4206 68.8594 33.9064C67.9684 34.3922 67.1921 35.0637 66.5832 35.8756H56.1282C55.3692 32.9349 53.8361 30.2512 51.6886 28.1036C49.541 25.956 46.8573 24.423 43.9166 23.6639V13.209C44.7285 12.6001 45.4 11.8238 45.8858 10.9328C46.3715 10.0417 46.6602 9.05672 46.7321 8.04444C46.804 7.03215 46.6576 6.01622 46.3027 5.06544C45.9479 4.11467 45.3929 3.25124 44.6753 2.53364C43.9577 1.81604 43.0942 1.26101 42.1435 0.906149C41.1927 0.551283 40.1768 0.404864 39.1645 0.476805C38.1522 0.548746 37.1672 0.837368 36.2761 1.32313C35.3851 1.80889 34.6088 2.48044 33.9999 3.29231H12.75C11.858 2.10298 10.6144 1.22446 9.19534 0.78118C7.7763 0.337905 6.25375 0.352353 4.84338 0.822478C3.433 1.2926 2.2063 2.19457 1.33703 3.40061C0.467764 4.60666 0 6.05564 0 7.54231C0 9.02897 0.467764 10.478 1.33703 11.684C2.2063 12.89 3.433 13.792 4.84338 14.2621C6.25375 14.7323 7.7763 14.7467 9.19534 14.3034C10.6144 13.8602 11.858 12.9816 12.75 11.7923H33.9999C34.4042 12.3325 34.8764 12.8047 35.4166 13.209V23.6639C31.4177 24.7061 27.9351 27.1686 25.6197 30.5915C23.3042 34.0143 22.3143 38.1631 22.835 42.2626C23.3557 46.3622 25.3513 50.1318 28.4489 52.8671C31.5465 55.6024 35.5342 57.1162 39.6666 57.1255ZM7.08332 79.7922C8.96193 79.7922 10.7636 79.0459 12.092 77.7175C13.4204 76.3891 14.1666 74.5875 14.1666 72.7089C14.1666 70.8302 13.4204 69.0286 12.092 67.7002C10.7636 66.3718 8.96193 65.6255 7.08332 65.6255C5.20471 65.6255 3.40304 66.3718 2.07466 67.7002C0.746276 69.0286 0 70.8302 0 72.7089C0 74.5875 0.746276 76.3891 2.07466 77.7175C3.40304 79.0459 5.20471 79.7922 7.08332 79.7922ZM46.7499 72.7089C46.7499 74.5875 46.0036 76.3891 44.6753 77.7175C43.3469 79.0459 41.5452 79.7922 39.6666 79.7922C37.788 79.7922 35.9863 79.0459 34.6579 77.7175C33.3296 76.3891 32.5833 74.5875 32.5833 72.7089C32.5833 70.8302 33.3296 69.0286 34.6579 67.7002C35.9863 66.3718 37.788 65.6255 39.6666 65.6255C41.5452 65.6255 43.3469 66.3718 44.6753 67.7002C46.0036 69.0286 46.7499 70.8302 46.7499 72.7089ZM14.1666 40.1256C14.1666 42.0042 13.4204 43.8059 12.092 45.1342C10.7636 46.4626 8.96193 47.2089 7.08332 47.2089C5.20471 47.2089 3.40304 46.4626 2.07466 45.1342C0.746276 43.8059 0 42.0042 0 40.1256C0 38.247 0.746276 36.4453 2.07466 35.1169C3.40304 33.7885 5.20471 33.0423 7.08332 33.0423C8.96193 33.0423 10.7636 33.7885 12.092 35.1169C13.4204 36.4453 14.1666 38.247 14.1666 40.1256Z" fill="#BF101D"/>
</svg>
