<svg width="93" height="77" viewBox="0 0 93 77" fill="none" xmlns="http://www.w3.org/2000/svg">
<path d="M0.458984 72.7214V65.0778C0.458984 62.7422 1.06057 60.5482 2.26373 58.4958C3.46689 56.4433 5.13008 54.8863 7.2533 53.8247C10.8628 51.9846 14.9323 50.4275 19.4618 49.1536C23.9914 47.8797 28.981 47.2427 34.4306 47.2427C39.8802 47.2427 44.8698 47.8797 49.3993 49.1536C53.9289 50.4275 57.9984 51.9846 61.6079 53.8247C63.7311 54.8863 65.3943 56.4433 66.5974 58.4958C67.8006 60.5482 68.4022 62.7422 68.4022 65.0778V72.7214C68.4022 73.9245 67.9945 74.9338 67.1792 75.7491C66.3639 76.5644 65.356 76.9707 64.1557 76.9678H4.70543C3.50227 76.9678 2.49445 76.5602 1.68196 75.7449C0.869475 74.9295 0.461815 73.9217 0.458984 72.7214ZM8.95188 68.4749H59.9093V65.0778C59.9093 64.2993 59.7154 63.5915 59.3275 62.9546C58.9397 62.3176 58.4258 61.8222 57.7861 61.4683C55.2382 60.1944 51.9656 58.9204 47.9683 57.6465C43.9709 56.3726 39.4584 55.7356 34.4306 55.7356C29.4028 55.7356 24.8916 56.3726 20.8971 57.6465C16.9027 58.9204 13.6286 60.1944 11.0751 61.4683C10.4381 61.8222 9.92574 62.3176 9.53789 62.9546C9.15005 63.5915 8.95471 64.2993 8.95188 65.0778V68.4749ZM34.4306 42.9962C29.7595 42.9962 25.7607 41.333 22.4344 38.0067C19.108 34.6803 17.4448 30.6815 17.4448 26.0104H16.3832C15.7462 26.0104 15.2338 25.8165 14.846 25.4287C14.4581 25.0408 14.2628 24.527 14.2599 23.8872C14.2571 23.2474 14.4525 22.7336 14.846 22.3458C15.2395 21.9579 15.7519 21.764 16.3832 21.764H17.4448C17.4448 18.5792 18.2233 15.7128 19.7803 13.1649C21.3374 10.6171 23.3898 8.59999 25.9377 7.11374V11.1479C25.9377 11.7848 26.133 12.2987 26.5237 12.6893C26.9144 13.08 27.4268 13.2739 28.0609 13.2711C28.695 13.2683 29.2089 13.0743 29.6024 12.6893C29.9959 12.3043 30.1898 11.7905 30.1841 11.1479V5.41516C30.8211 5.20283 31.4935 5.0443 32.2012 4.93955C32.9089 4.83481 33.6521 4.78102 34.4306 4.77819C35.2091 4.77536 35.9522 4.82915 36.66 4.93955C37.3677 5.04996 38.0401 5.2085 38.677 5.41516V11.1479C38.677 11.7848 38.8724 12.2987 39.263 12.6893C39.6537 13.08 40.1661 13.2739 40.8003 13.2711C41.4344 13.2683 41.9482 13.0743 42.3417 12.6893C42.7352 12.3043 42.9291 11.7905 42.9235 11.1479V7.11374C45.4713 8.59999 47.5238 10.6171 49.0808 13.1649C50.6379 15.7128 51.4164 18.5792 51.4164 21.764H52.478C53.115 21.764 53.6288 21.9593 54.0195 22.35C54.4101 22.7407 54.604 23.2531 54.6012 23.8872C54.5984 24.5213 54.4045 25.0352 54.0195 25.4287C53.6344 25.8222 53.1206 26.0161 52.478 26.0104H51.4164C51.4164 30.6815 49.7532 34.6803 46.4268 38.0067C43.1004 41.333 39.1017 42.9962 34.4306 42.9962ZM34.4306 34.5033C36.7661 34.5033 38.7662 33.6725 40.4308 32.0107C42.0954 30.3489 42.9263 28.3488 42.9235 26.0104H25.9377C25.9377 28.346 26.77 30.3461 28.4346 32.0107C30.0992 33.6753 32.0979 34.5062 34.4306 34.5033ZM65.9605 49.7906L65.642 48.3043C65.2173 48.1628 64.8111 48.0042 64.4233 47.8287C64.0354 47.6532 63.6631 47.3871 63.3064 47.0304L62.0325 47.455C61.5371 47.5966 61.0601 47.5966 60.6014 47.455C60.1428 47.3135 59.7706 46.995 59.4846 46.4996L59.06 45.7564C58.7769 45.3318 58.6891 44.8718 58.7967 44.3763C58.9043 43.8809 59.1336 43.4563 59.4846 43.1024L60.5462 42.1469V39.5991L59.4846 38.6436C59.1308 38.2898 58.9015 37.8651 58.7967 37.3697C58.692 36.8743 58.7797 36.4142 59.06 35.9896L59.4846 35.2465C59.7677 34.751 60.14 34.4326 60.6014 34.291C61.0629 34.1495 61.5399 34.1495 62.0325 34.291L63.3064 34.7157C63.5895 34.4326 63.9434 34.1849 64.368 33.9725C64.7927 33.7602 65.2173 33.5833 65.642 33.4417L65.9605 31.9555C66.102 31.46 66.3497 31.0524 66.7036 30.7325C67.0575 30.4126 67.4821 30.2541 67.9775 30.2569H68.8268C69.3222 30.2569 69.7469 30.4168 70.1008 30.7367C70.4546 31.0566 70.7023 31.4629 70.8439 31.9555L71.1624 33.4417C71.587 33.5833 72.0117 33.7602 72.4363 33.9725C72.861 34.1849 73.2148 34.4326 73.4979 34.7157L74.7719 34.291C75.2673 34.1495 75.7457 34.1495 76.2072 34.291C76.6686 34.4326 77.0395 34.751 77.3197 35.2465L77.7444 35.9896C78.0275 36.4142 78.1166 36.8743 78.0119 37.3697C77.9072 37.8651 77.6764 38.2898 77.3197 38.6436L76.2581 39.5991V42.1469L77.3197 43.1024C77.6736 43.4563 77.9043 43.8809 78.0119 44.3763C78.1195 44.8718 78.0303 45.3318 77.7444 45.7564L77.3197 46.4996C77.0366 46.995 76.6658 47.3135 76.2072 47.455C75.7485 47.5966 75.2701 47.5966 74.7719 47.455L73.4979 47.0304C73.1441 47.3842 72.7732 47.6503 72.3854 47.8287C71.9975 48.007 71.5899 48.1656 71.1624 48.3043L70.8439 49.7906C70.7023 50.286 70.4546 50.6936 70.1008 51.0135C69.7469 51.3334 69.3222 51.492 68.8268 51.4891H67.9775C67.4821 51.4891 67.0575 51.3306 66.7036 51.0135C66.3497 50.6965 66.102 50.2888 65.9605 49.7906ZM68.4022 44.0578C69.2515 44.0578 69.9946 43.7394 70.6316 43.1024C71.2685 42.4654 71.587 41.7223 71.587 40.873C71.587 40.0237 71.2685 39.2806 70.6316 38.6436C69.9946 38.0067 69.2515 37.6882 68.4022 37.6882C67.5529 37.6882 66.8098 38.0067 66.1728 38.6436C65.5358 39.2806 65.2173 40.0237 65.2173 40.873C65.2173 41.7223 65.5358 42.4654 66.1728 43.1024C66.8098 43.7394 67.5529 44.0578 68.4022 44.0578ZM75.6211 27.9213L75.1965 25.7981C74.5595 25.5858 73.9749 25.3211 73.4427 25.004C72.9105 24.687 72.4335 24.3147 72.0117 23.8872L69.7823 24.6303C69.1453 24.8427 68.5083 24.8257 67.8714 24.5794C67.2344 24.3331 66.739 23.9254 66.3851 23.3564L65.7481 22.2948C65.3943 21.7286 65.2697 21.11 65.3745 20.4391C65.4792 19.7682 65.8161 19.1836 66.3851 18.6853L68.1898 17.0929C68.0483 16.739 67.9775 16.4559 67.9775 16.2436V14.545C67.9775 14.3327 68.0483 14.0496 68.1898 13.6957L66.3851 12.1033C65.8189 11.6079 65.482 11.0233 65.3745 10.3495C65.2669 9.67576 65.3914 9.05719 65.7481 8.49383L66.3851 7.43222C66.739 6.86603 67.2344 6.45837 67.8714 6.20924C68.5083 5.96012 69.1453 5.94313 69.7823 6.15828L72.0117 6.90141C72.4363 6.47677 72.9147 6.10591 73.447 5.78884C73.9792 5.47177 74.5624 5.20567 75.1965 4.99051L75.6211 2.86729C75.7627 2.15954 76.0996 1.59335 76.6318 1.16871C77.164 0.744061 77.7826 0.531738 78.4875 0.531738H79.5491C80.2568 0.531738 80.8768 0.744061 81.4091 1.16871C81.9413 1.59335 82.2767 2.15954 82.4155 2.86729L82.8401 4.99051C83.4771 5.20283 84.0617 5.46894 84.5939 5.78884C85.1261 6.10874 85.6031 6.4796 86.0249 6.90141L88.2543 6.15828C88.8913 5.94596 89.5283 5.96436 90.1652 6.21349C90.8022 6.46261 91.2976 6.86886 91.6515 7.43222L92.2885 8.49383C92.6423 9.06003 92.7669 9.68001 92.6621 10.3538C92.5574 11.0275 92.2205 11.6107 91.6515 12.1033L89.8467 13.6957C89.9883 14.0496 90.0591 14.3327 90.0591 14.545V16.2436C90.0591 16.4559 89.9883 16.739 89.8467 17.0929L91.6515 18.6853C92.2177 19.1807 92.5546 19.7653 92.6621 20.4391C92.7697 21.1129 92.6452 21.7314 92.2885 22.2948L91.6515 23.3564C91.2976 23.9226 90.8022 24.3303 90.1652 24.5794C89.5283 24.8285 88.8913 24.8455 88.2543 24.6303L86.0249 23.8872C85.6003 24.3119 85.1233 24.6827 84.5939 24.9998C84.0645 25.3169 83.4799 25.583 82.8401 25.7981L82.4155 27.9213C82.2739 28.6291 81.937 29.1953 81.4048 29.6199C80.8726 30.0446 80.254 30.2569 79.5491 30.2569H78.4875C77.7798 30.2569 77.1612 30.0446 76.6318 29.6199C76.1024 29.1953 75.7655 28.6291 75.6211 27.9213ZM79.0183 20.7024C80.5046 20.7024 81.7615 20.19 82.7891 19.1652C83.8168 18.1404 84.3292 16.8834 84.3264 15.3943C84.3235 13.9052 83.8097 12.6483 82.7849 11.6235C81.7601 10.5987 80.5046 10.0863 79.0183 10.0863C77.532 10.0863 76.2751 10.6001 75.2475 11.6277C74.2198 12.6554 73.7074 13.9109 73.7102 15.3943C73.7131 16.8777 74.2269 18.1347 75.2517 19.1652C76.2765 20.1956 77.532 20.708 79.0183 20.7024Z" fill="#BF101D"/>
</svg>
