<svg width="268" height="93" viewBox="0 0 268 93" fill="none" xmlns="http://www.w3.org/2000/svg">
<g clip-path="url(#clip0_74_389)">
<path d="M77.9783 48.6243C80.4219 48.8221 82.877 48.8328 85.3222 48.6561H104.005C111.618 48.8151 119.23 48.8575 126.842 48.6349L147.44 48.6632C148.079 48.695 148.719 48.755 149.358 48.755C187.744 48.755 226.129 48.7421 264.515 48.7162C266.32 48.7162 266.86 49.1719 266.677 50.9275C266.518 52.4747 266.645 54.0501 266.645 55.8163C263.396 54.5866 259.932 54.0267 256.461 54.1702C245.03 54.6648 238.937 62.8247 240.381 73.9518C241.6 83.3515 248.506 88.4347 258.552 87.8059C260.961 87.654 263.356 87.3679 265.617 86.5025C266.493 86.1669 266.829 86.2587 267.065 87.2089C267.991 90.971 268.803 90.4658 264.593 91.4973C258.856 92.9103 253.07 92.9986 247.386 91.1158C238.262 88.0956 233.073 79.5577 234.041 69.4267C234.775 61.7331 238.301 55.9152 245.217 52.2663C245.373 52.1829 245.522 52.0897 245.666 51.9872C245.694 51.966 245.666 51.8777 245.666 51.7894C245.313 51.4149 244.807 51.5951 244.38 51.5951C235.62 51.5951 226.863 51.6163 218.102 51.5527C216.612 51.5527 216.474 51.9059 216.954 53.2094C221.518 65.4952 226.022 77.8021 230.597 90.0843C231.088 91.4055 231.07 91.8753 229.434 91.8505C224.895 91.7764 224.895 91.8505 223.313 87.5233C222.391 84.9977 221.419 82.4826 220.564 79.9286C220.271 79.0455 219.84 78.7629 218.929 78.7735C214.46 78.8159 209.995 78.823 205.527 78.7735C204.584 78.7735 204.192 79.1268 203.909 79.9498C202.729 83.3798 201.436 86.7745 200.327 90.2256C199.907 91.5291 199.267 91.9671 197.936 91.847C196.604 91.7269 195.244 91.8223 193.654 91.8223C194.562 89.3072 195.421 86.9511 196.265 84.602C200.049 74.2756 203.836 63.9491 207.625 53.6227C208.363 51.5986 208.36 51.5951 206.131 51.5951C203.132 51.5951 200.126 51.6587 197.137 51.5633C195.915 51.5244 195.421 51.9695 195.018 53.0716C190.277 65.4775 185.463 77.8551 180.733 90.2645C180.291 91.4231 179.797 91.9706 178.497 91.847C176.928 91.6986 174.947 92.2956 173.869 91.5397C172.792 90.7838 172.612 88.7703 172.103 87.3008C168.126 76.0465 164.116 64.7993 160.248 53.5061C159.694 51.8883 158.952 51.5456 157.384 51.5456C106.069 51.588 54.7515 51.5998 3.43012 51.581C0.635981 51.581 0.635981 51.581 1.04927 48.7338L25.423 48.6985C32.8764 48.8257 40.3333 48.8928 47.7903 48.6667H61.4748C63.1945 48.8787 64.9337 48.8787 66.6534 48.6667C70.4189 48.7656 74.1986 48.7586 77.9783 48.6243ZM177.193 85.9373C177.603 84.5596 177.925 83.4363 178.274 82.3201C181.393 72.4505 185.258 62.8494 188.78 53.1211C189.218 51.913 189.175 51.4997 187.72 51.5138C180.966 51.5704 174.214 51.5704 167.465 51.5138C166.08 51.5138 165.921 51.8494 166.359 53.1105C169.094 61.009 171.779 68.924 174.417 76.8554C175.406 79.7803 176.229 82.7546 177.193 85.9373ZM212.207 55.509C210.539 61.5141 208.18 67.2508 206.103 73.0899C205.919 73.6056 205.188 74.464 206.657 74.4498C210.359 74.4145 214.075 74.4322 217.763 74.4498C218.53 74.4498 218.851 74.2768 218.544 73.429C216.4 67.491 213.984 61.6554 212.207 55.509Z" fill="#0468AB"/>
<path d="M25.4086 48.6562L1.03489 48.6915C1.01369 33.2878 0.991323 17.8806 0.967773 2.46983C0.967773 1.64325 1.14086 1.16284 2.08049 1.05686C9.91186 0.251473 17.7503 -0.303117 25.5781 1.04273C28.4976 1.48906 31.2344 2.74185 33.4802 4.65993C38.906 9.41457 38.3408 17.1294 32.3039 21.1351C31.2971 21.8028 30.2021 22.3291 29.0117 23.0003C32.3675 24.06 35.1687 25.6284 37.055 28.5038C40.4779 33.7317 39.0896 40.9238 33.8758 45.0143C31.3854 46.9889 28.4323 47.8967 25.4086 48.6562ZM12.487 34.5831C12.487 36.4552 12.487 38.331 12.487 40.2067C12.487 40.8602 12.5824 41.3335 13.409 41.3794C16.3479 41.5455 19.2834 41.6196 22.1022 40.5811C25.1578 39.4578 26.7862 37.2606 26.7438 34.4347C26.7015 31.6088 24.9529 29.5494 21.8444 28.4896C19.0538 27.55 16.1642 27.7832 13.2959 27.7443C12.3775 27.7443 12.4764 28.3801 12.4729 28.9594C12.487 30.8316 12.487 32.7073 12.487 34.5831ZM12.487 14.1692C12.487 15.6881 12.487 17.2071 12.487 18.726C12.487 19.3053 12.5682 19.7646 13.3206 19.754C16.1042 19.7151 18.9337 20.0118 21.636 18.9521C24.2394 17.9171 25.5569 16.0379 25.4262 13.4592C25.3167 11.1808 23.7907 9.50641 21.1414 8.78933C18.6051 8.10757 16.0194 8.4149 13.4549 8.47495C12.5364 8.49614 12.4623 9.08252 12.4693 9.78547C12.487 11.2444 12.487 12.7068 12.487 14.1692Z" fill="#EF5134"/>
<path d="M61.4609 48.6242H47.7764C43.2655 46.0844 40.9093 42.3047 41.3156 37.0768C41.7218 31.8488 44.7738 28.4188 49.4401 26.2994C51.6434 25.313 53.9681 24.624 56.3531 24.2506C58.779 23.8102 61.2422 23.6079 63.7076 23.6465C64.8309 23.6854 65.0075 23.2085 64.7991 22.2795C64.3293 20.1883 62.8704 19.1003 60.9134 18.6658C56.4272 17.6661 52.1318 18.5386 48.0625 20.432C46.5612 21.1385 46.2009 20.6899 45.8724 19.3723C45.4873 17.8392 44.9928 16.3344 44.5018 14.8331C44.1945 13.8864 44.2333 13.2789 45.3531 12.8232C52.0117 10.1103 58.9035 9.31902 65.9083 10.7285C73.3263 12.2262 77.4451 17.7262 77.5087 25.5999C77.5582 31.2306 77.5087 36.8613 77.59 42.492C77.6147 44.5372 77.8372 46.5825 77.9715 48.6278C74.1918 48.7691 70.4121 48.7761 66.6324 48.6278C66.3957 47.5857 66.4169 46.4765 65.8411 45.4027C64.5565 46.6966 63.0788 47.7834 61.4609 48.6242ZM65.23 34.1237C65.23 33.4172 65.23 32.7107 65.23 32.0042C65.23 31.4638 65.117 31.0823 64.4741 31.1034C61.3656 31.2094 58.2429 31.3154 55.583 33.2229C53.845 34.4698 53.2551 36.6246 53.9546 38.7017C54.5162 40.369 56.1235 41.4322 58.1935 41.5029C62.6655 41.6724 65.2336 38.9701 65.23 34.1201V34.1237Z" fill="#EF5134"/>
<path d="M147.425 48.649L126.842 48.6243C119.191 45.7983 115.111 40.2312 114.669 32.202C114.22 23.8973 116.947 16.8996 124.507 12.6112C130.049 9.46738 136.09 9.18832 142.042 11.283C148.838 13.671 151.763 19.1533 152.724 25.9249C153.013 28.0232 152.886 30.1214 152.77 32.2338C152.696 33.5585 152.212 33.8693 150.947 33.8587C143.373 33.8022 135.793 33.8799 128.219 33.7952C126.542 33.7952 126.474 34.3674 127.018 35.5967C128.622 39.2351 131.84 40.3902 135.397 40.7964C139.432 41.2714 143.52 40.9388 147.425 39.8179C148.76 39.4364 149.262 39.7155 149.435 41.0896C149.612 42.7186 149.934 44.3286 150.396 45.9008C150.813 47.2537 150.435 47.8577 149.131 48.1227C148.553 48.2642 147.983 48.4399 147.425 48.649ZM133.765 25.6883C135.885 25.6883 138.004 25.6883 140.102 25.6883C140.774 25.6883 141.145 25.6282 141.141 24.7557C141.121 23.2545 140.605 21.8021 139.673 20.6246C138.742 19.4472 137.447 18.6107 135.991 18.2454C131.614 17.2422 127.488 20.0717 126.672 24.6038C126.517 25.4657 126.739 25.7342 127.619 25.713C129.671 25.6635 131.727 25.6812 133.779 25.6812L133.765 25.6883Z" fill="#EF5134"/>
<path d="M104.005 48.642H85.3225C81.9349 47.275 81.9349 47.275 82.8498 43.7708C83.203 42.4108 83.6269 41.065 83.9095 39.6909C84.0932 38.7301 84.4641 38.776 85.2095 39.1151C88.5511 40.6376 92.0306 41.6125 95.7502 41.5171C96.6924 41.5125 97.6242 41.3204 98.4914 40.952C100.689 39.9699 100.964 37.4195 98.9965 36.0066C97.6895 35.0669 96.1494 34.636 94.6481 34.1414C92.5217 33.4791 90.4747 32.5848 88.5441 31.4745C79.8755 26.3277 82.2457 16.5606 88.7631 12.6891C93.4576 9.89845 98.5761 9.80308 103.783 10.3435C105.766 10.5818 107.714 11.0476 109.59 11.7318C110.442 12.025 110.823 12.3429 110.487 13.3673C109.834 15.3666 109.336 17.419 108.827 19.4607C108.622 20.2767 108.361 20.4675 107.517 20.0895C105.005 18.9287 102.272 18.3261 99.5052 18.3233C98.6145 18.3244 97.733 18.5033 96.9124 18.8496C95.8738 19.2841 95.1638 20.0188 95.0826 21.2128C95.0084 22.3432 95.5806 23.0991 96.4955 23.6466C98.071 24.5827 99.7983 25.155 101.522 25.7308C103.541 26.3512 105.471 27.2286 107.266 28.3412C114.423 32.9934 114.193 42.9124 106.821 47.2432C105.927 47.7766 104.949 48.1793 104.005 48.642Z" fill="#EF5134"/>
</g>
<defs>
<clipPath id="clip0_74_389">
<rect width="266.984" height="92.2915" fill="white" transform="translate(0.830078 0.230164)"/>
</clipPath>
</defs>
</svg>
