<svg width="514" height="55" viewBox="0 0 514 55" fill="none" xmlns="http://www.w3.org/2000/svg">
<g clip-path="url(#clip0_74_397)">
<path d="M253.566 46.5444C249.397 46.0598 245.207 45.7106 241.06 45.0408C237.953 44.5491 235.06 43.2522 233.1 40.6798C231.775 38.9554 230.022 36.4044 231.918 34.8224C233.813 33.2405 236.827 33.1977 239.086 35.4424C246.533 42.8389 255.525 39.497 264.083 38.82C264.478 38.8044 264.865 38.7068 265.22 38.5336C265.575 38.3604 265.891 38.1152 266.146 37.8137C266.401 37.5122 266.591 37.1609 266.703 36.7821C266.816 36.4033 266.848 36.0053 266.798 35.6134C266.649 33.7749 265.195 32.9626 263.634 32.7631C260.136 32.2928 256.601 31.9935 253.074 31.7512C247.986 31.3949 242.877 31.1883 238.046 29.3641C234.369 27.9745 232.345 25.338 232.309 21.3333C232.309 17.2075 234.59 14.5852 238.274 13.5377C247.474 10.8493 257.257 10.8889 266.435 13.6517C267.492 13.9829 268.48 14.5045 269.349 15.1909C271.651 16.9723 274.672 19.559 272.748 22.0958C270.924 24.49 267.489 23.863 264.839 21.091C261.703 17.806 246.882 16.6659 242.585 18.8678C241.338 19.5162 240.248 20.3642 240.447 21.8677C240.558 22.5327 240.88 23.1441 241.367 23.6103C241.854 24.0766 242.479 24.3727 243.148 24.4544C245.998 24.9247 248.848 25.2026 251.699 25.5233C256.979 26.1147 262.295 26.4496 267.518 27.3475C271.793 28.06 274.879 30.5755 275.043 35.2927C275.214 40.1383 272.513 43.1311 268.06 44.5563C263.378 46.0384 258.497 46.2878 253.566 46.5444Z" fill="#191919"/>
<path d="M187.56 22.1956C187.56 28.5233 187.496 34.8011 187.56 41.0718C187.595 43.744 187.46 45.6822 183.833 45.7677C180.056 45.8603 179.436 44.1787 179.515 40.9934C179.679 34.1669 179.337 27.3333 179.672 20.521C179.807 17.7705 177.534 13.5021 181.56 12.4689C185.586 11.4356 190.111 11.2218 193.759 15.255C199.068 21.1623 204.904 26.5993 210.605 32.1432C211.937 33.4401 212.856 35.421 215.942 35.6491C215.942 29.2359 215.999 22.9509 215.942 16.6802C215.899 13.951 216.177 12.0912 219.754 12.0271C223.581 11.9558 224.087 13.7943 224.03 16.9082C223.88 23.9485 224.179 31.0031 223.88 38.0362C223.773 40.5445 226.018 44.5706 222.006 45.3615C218.379 46.0741 214.168 46.9363 210.79 43.4304C204.826 37.2168 198.676 31.1883 192.505 25.1599C191.329 24.0126 190.503 22.2455 187.56 22.1956Z" fill="#191919"/>
<path d="M389.884 45.6748C385.209 45.2187 377.77 48.1118 374.207 44.6629C370.331 40.929 373.024 33.4541 372.946 27.6323C372.746 12.1123 372.882 12.1052 388.851 12.1052C393.938 12.1052 399.033 12.0339 404.114 12.1052C406.316 12.155 409.373 11.0577 409.465 15.0481C409.565 19.4804 406.223 18.3189 403.815 18.3545C397.615 18.4543 391.423 18.4685 385.224 18.3545C382.373 18.2975 380.706 18.7607 380.727 22.2523C380.727 25.9007 382.808 25.972 385.444 25.9506C392.079 25.9007 398.72 25.9506 405.354 25.9506C407.492 25.9506 409.444 25.9506 409.473 28.8437C409.501 31.7367 407.606 31.8864 405.447 31.8365C403.287 31.7866 400.886 31.3448 398.834 31.9149C392.919 33.5681 381.682 27.7819 381.846 35.4065C382.038 44.3921 393.247 37.1025 399.19 39.3542C400.352 39.796 401.848 39.2544 403.145 39.454C405.589 39.8316 409.601 37.7367 409.423 42.7176C409.245 47.6985 405.204 45.3613 402.846 45.5679C398.926 45.9384 394.915 45.6748 389.884 45.6748Z" fill="#191919"/>
<path d="M299.03 45.6749C294.334 45.1761 287.008 48.112 283.317 44.6061C279.626 41.1002 282.213 33.782 282.149 28.1526C281.985 12.1124 282.092 12.1053 298.296 12.1053C302.507 12.1053 306.761 11.7419 310.916 12.2407C313.573 12.5614 318.504 9.56853 318.419 15.4259C318.341 20.756 313.766 18.1266 311.243 18.2763C305.728 18.661 300.163 18.4615 294.626 18.3689C291.883 18.319 289.994 18.5542 290.037 22.1598C290.08 25.7655 291.982 25.9792 294.697 25.9579C301.11 25.8937 307.524 25.9579 313.98 25.9579C316.117 25.9579 318.654 25.4591 318.561 28.9721C318.469 32.4851 315.847 31.7725 313.773 31.8224C307.566 31.8794 301.36 31.9008 295.16 31.8224C292.246 31.7796 289.973 31.8723 290.051 35.8556C290.122 39.5681 292.324 39.4684 294.89 39.4185C301.303 39.4185 307.752 39.4185 314.172 39.4185C316.502 39.4185 318.626 39.2617 318.597 42.6607C318.597 46.2236 316.181 45.6821 314.008 45.6892C309.362 45.6892 304.702 45.6749 299.03 45.6749Z" fill="#191919"/>
<path d="M363.09 45.2332C358.472 46.3377 354.653 46.1097 352.13 41.0076C350.17 37.0385 338.954 34.5516 335.085 36.7321C333.047 37.8509 333.603 39.8105 333.66 41.4351C333.824 44.4565 332.876 45.8104 329.57 45.8033C326.263 45.7961 325.465 44.4707 325.522 41.4351C325.693 33.0742 325.693 24.7109 325.522 16.3452C325.465 13.2312 326.499 12.0341 329.705 12.0697C337.686 12.2408 345.674 11.9914 353.655 12.2265C358.885 12.3761 363.161 14.5638 365.056 19.8084C366.952 25.0529 366.054 29.927 361.565 33.5326C355.486 38.4138 363.888 40.6798 363.09 45.2332ZM345.054 18.8677V18.7181C342.204 18.7181 339.311 18.6682 336.439 18.7181C332.919 18.7894 333.489 21.5185 333.71 23.5209C333.959 25.7869 331.957 29.5493 336.19 29.813C341.922 30.1027 347.667 30.0361 353.391 29.6135C356.448 29.4211 357.959 27.1836 357.873 24.1052C357.788 21.0269 356.028 19.1742 352.992 18.9034C350.37 18.654 347.705 18.8392 345.054 18.8392V18.8677Z" fill="#191919"/>
<path d="M91.4835 45.5825C76.7046 45.6751 76.7046 45.6751 76.7046 31.1242C76.7046 26.293 76.8613 21.4545 76.6547 16.6304C76.5193 13.3169 77.4884 11.906 81.1012 12.0342C88.17 12.2908 95.2673 11.8988 102.336 12.1981C112.312 12.6328 118.291 18.932 118.405 28.6872C118.519 38.4424 112.704 44.8485 102.728 45.5397C99.0154 45.8319 95.2459 45.5825 91.4835 45.5825ZM84.6285 28.5661C84.6285 39.1479 84.6285 39.1621 95.5737 39.1051C97.7827 39.1051 100.006 39.0624 102.208 38.8415C108.201 38.2287 110.452 34.6016 110.445 28.9152C110.438 23.2289 108.129 19.6018 102.194 18.9391C99.7605 18.722 97.3177 18.634 94.8754 18.6755C84.6285 18.6327 84.6285 18.647 84.6285 28.5661Z" fill="#191919"/>
<path d="M172.161 44.9194C167.002 46.3446 163.168 46.3446 161.237 41.1998C160.311 38.72 158.323 38.2497 155.893 38.2996C151.014 38.4088 146.135 38.4088 141.256 38.2996C139.054 38.2568 137.252 38.7485 136.446 40.9361C134.601 45.9954 130.824 46.4301 125.28 45.0548C131.159 34.53 136.682 24.1406 142.724 14.079C145.14 10.06 153.37 11.4282 155.964 15.9887C161.308 25.3734 166.524 34.8222 172.161 44.9194ZM148.553 18.383C146.508 23.7273 141.092 27.6465 143.009 31.2094C144.434 33.9671 150.969 32.1286 156.242 31.7652L148.553 18.383Z" fill="#191919"/>
<path d="M463.278 45.0763C458.034 46.252 454.1 46.3304 452.255 41.1143C451.371 38.6132 449.347 38.2284 446.925 38.264C442.065 38.3923 437.191 38.3709 432.324 38.264C430.143 38.264 428.284 38.6631 427.507 40.8578C425.69 45.9884 421.87 46.3304 416.319 45.005C422.277 34.3876 427.892 23.8699 434.048 13.6515C436.093 10.2596 444.438 11.4283 446.554 15.1194C452.098 24.8889 457.471 34.694 463.278 45.0763ZM431.925 32.4351C437.576 31.6798 443.761 34.1952 445.585 31.1881C447.409 28.181 442.614 23.7844 440.426 20.1788C440.319 20.0006 440.098 19.8937 439.414 19.3308L431.925 32.4351Z" fill="#191919"/>
<path d="M513.915 25.3235C514.143 31.5942 514.506 39.6749 506.126 43.4302C496.635 47.7057 486.694 47.6344 477.274 42.7604C473.048 40.5727 471.11 36.4754 470.896 31.8151C470.654 26.5492 470.811 21.2618 470.626 15.9888C470.526 13.2311 471.417 12.0767 474.388 12.0339C477.545 11.9841 478.777 13.0244 478.663 16.2025C478.478 20.3782 478.699 24.5611 478.663 28.7439C478.549 35.1999 481.991 38.5704 488.155 39.2331C491.238 39.5611 494.349 39.5061 497.419 39.0692C502.991 38.2854 506.098 35.0716 506.048 29.2356C506.005 25.0528 506.233 20.8628 505.998 16.7013C505.806 13.338 506.825 12.0268 510.423 12.0054C514.285 12.0054 514.029 14.2216 513.986 16.7156C513.943 19.2096 513.915 21.554 513.915 25.3235Z" fill="#191919"/>
<path d="M0.814453 54.2329C19.8403 44.0216 37.8686 34.2806 55.9539 24.6608C60.8707 22.0457 63.1723 23.3354 63.2721 28.7582C63.4003 35.4849 59.6664 39.8316 53.866 42.682C41.7878 48.6106 28.6051 50.6557 15.572 52.993C11.04 53.8053 6.51509 55.0951 0.814453 54.2329Z" fill="#EA4438"/>
<path d="M40.7609 26.8842C47.3024 16.2596 42.0934 8.47823 38.1885 0.226562C45.44 4.13375 51.911 9.34147 57.2785 15.5898C59.0528 17.6206 57.7915 18.7964 56.2381 19.7156C51.8201 22.3165 47.4306 24.9887 40.7609 26.8842Z" fill="#EA4438"/>
</g>
<defs>
<clipPath id="clip0_74_397">
<rect width="513.186" height="54.2986" fill="white" transform="translate(0.814453 0.226624)"/>
</clipPath>
</defs>
</svg>
