<svg width="209" height="92" viewBox="0 0 209 92" fill="none" xmlns="http://www.w3.org/2000/svg">
<g clip-path="url(#clip0_74_381)">
<path d="M90.2649 38.5699C89.9757 45.7662 87.6108 51.7508 84.7221 57.3327C76.0443 74.0785 62.4412 84.7968 43.7527 88.651C36.8847 90.0699 29.8643 89.9292 22.8791 89.9018C16.1635 89.8745 9.4441 89.7416 2.7403 89.9683C-0.257843 90.066 -0.367293 89.1044 0.394946 86.6887C8.02516 62.6489 15.6124 38.596 23.1566 14.5301C24.1964 11.227 25.3143 7.94743 26.2603 4.62094C26.6512 3.18246 27.3743 2.49449 28.8792 2.52576C41.9702 2.79547 55.1863 1.35308 68.0349 5.0431C78.8274 8.13506 87.0831 14.0688 90.2024 25.518C91.6409 30.799 91.5197 31.2016 86.4029 32.8863C82.4432 34.1919 78.46 35.431 74.1836 36.7953C74.1836 34.3874 74.2344 32.3235 74.1836 30.2674C73.8787 19.4357 67.472 12.0283 56.7655 10.0231C51.6643 9.06538 45.7697 7.43536 41.5911 9.71817C38.1356 11.6062 38.1668 17.7745 36.744 22.0664C32.8585 33.9105 29.1294 45.8092 25.6388 57.7744C24.6693 61.0931 22.9025 63.3525 20.1858 65.2326C17.5903 67.0581 15.0339 69.0204 12.5087 71.0022C11.4963 71.784 10.093 72.4759 10.519 74.5202C14.5335 73.5547 17.3636 70.2752 21.9448 69.2354C20.6705 73.1443 19.5057 76.6936 18.3564 80.2546C17.8991 81.6775 17.5082 83.073 19.8496 83.0417C29.3131 82.9205 38.847 83.6945 47.7085 78.9881C54.8775 75.1808 59.8848 69.3722 64.0283 62.684C66.8915 58.0818 69.1636 53.1372 70.7907 47.9669C71.2285 46.5715 71.8226 45.4222 73.3041 44.8789C78.7766 42.8541 84.2296 40.8136 90.2649 38.5699Z" fill="#4D6376"/>
<path d="M200.633 19.506C196.227 17.2662 192.318 18.7711 188.476 17.8642C189.84 13.3533 191.255 8.87371 192.526 4.38236C193.034 2.57253 194.269 2.49826 195.739 2.50999C199.233 2.53735 202.732 2.65462 206.215 2.47481C208.857 2.338 209.252 3.20187 208.482 5.57067C205.316 15.3078 202.357 25.1153 199.19 34.8407C194.445 49.4444 190.301 64.2397 185.075 78.6948C182.437 86.0045 177.465 89.5734 169.744 89.9134C166.469 90.0502 165.922 89.0183 166.86 86.114C170.769 73.9963 174.576 61.8552 178.426 49.7258C181.104 41.2904 183.899 32.8901 186.416 24.4038C187.065 22.2149 188.101 21.5777 190.192 21.5191C193.491 21.4057 196.825 21.2963 200.633 19.506Z" fill="#4B6274"/>
<path d="M161.066 66.7453C162.927 68.5004 162.137 71.2406 160.398 73.539C150.454 86.6456 127.387 96.5587 108.964 89.7337C97.9843 85.6567 92.8284 77.0336 91.7652 65.8072C90.8271 55.9802 93.4382 46.7942 97.5582 37.9679C97.8475 37.3463 98.0859 36.3808 98.5667 36.2206C104.098 34.3717 109.652 32.5266 115.426 31.6354C117.502 31.3149 116.989 32.8472 116.407 34.1254C113.726 40.235 111.294 46.4346 109.805 52.9586C108.316 59.4826 107.561 66.1082 109.414 72.7221C111.314 79.5236 116.016 83.4755 123.095 84.3707C134.607 85.8248 144.047 81.4429 152.459 74.0941C155.273 71.6237 158.162 69.2158 161.066 66.7453Z" fill="#4D6376"/>
<path d="M104.447 27.5389C106.886 21.6795 111.796 17.8722 116.456 14.0805C129.117 3.83915 143.419 -1.39098 159.985 1.65016C167.518 3.03 172.912 7.279 176.172 14.1587C176.747 15.3705 178.416 16.676 176.837 18.1771C175.726 19.2325 170.434 18.2162 169.644 16.9731C162.721 6.02815 152.054 3.2919 139.8 9.34682C133.854 12.2746 128.64 16.1874 124.598 21.5075C123.273 23.2508 121.783 24.4626 119.544 24.7636C114.462 25.4438 109.591 27.4373 104.381 27.4998L104.447 27.5389Z" fill="#4D6376"/>
<path d="M104.368 27.4608L103.977 28.0432C103.703 27.4764 103.891 27.3318 104.45 27.5389L104.368 27.4608Z" fill="#4D6376"/>
</g>
<defs>
<clipPath id="clip0_74_381">
<rect width="208.83" height="91.1716" fill="white" transform="translate(0 0.7901)"/>
</clipPath>
</defs>
</svg>
