<svg width="140" height="105" viewBox="0 0 140 105" fill="none" xmlns="http://www.w3.org/2000/svg">
<g clip-path="url(#clip0_74_458)">
<path d="M7.26038 99.3936C2.62716 95.1702 -0.0466612 90.2165 0.000616572 83.6659C0.163462 61.5084 0.0426413 39.3456 0.0794129 17.1828C0.0951721 7.19147 7.26564 0 17.236 0C51.5281 0 85.8203 0 120.112 0C126.358 0 131.449 2.28509 134.769 7.82185L135.163 8.1738L135.268 8.28937C135.488 8.88822 135.567 9.58163 136.318 9.80226V9.73397C136.206 10.1465 136.227 10.5837 136.378 10.9835C136.529 11.3834 136.802 11.7255 137.159 11.9613C138.115 18.0286 137.652 24.1379 137.684 30.2315C137.747 47.9449 137.642 65.6636 137.731 83.3822C137.789 94.545 129.783 102.099 119.083 102.025C92.6388 101.847 66.1895 102.125 39.7612 101.889C29.1237 101.794 18.3286 103.502 7.8855 99.9505H7.92227L7.26038 99.3936ZM45.6447 35.4268L45.5344 35.2219C39.9608 28.2984 30.3897 29.6694 27.3167 38.2162C27.3167 36.5247 27.7632 34.4865 24.9002 34.8069C24.937 32.9631 24.1543 32.3485 22.2317 32.4378C18.4022 32.6164 14.5464 32.5901 10.7169 32.4378C8.72599 32.3538 8.24796 32.9631 8.26372 34.9225C8.34777 47.7558 8.36353 60.5838 8.26372 73.4119C8.26372 75.366 8.92036 76.0384 10.6434 76.1855C10.4332 77.94 11.3105 78.4811 12.9495 78.4233C16.7737 78.2972 20.6242 77.9505 24.4117 78.3025C26.9069 78.5389 27.3744 77.9033 27.3639 75.6392C27.2957 64.8283 27.3639 54.0175 27.3639 43.2014C28.4934 45.7964 29.9905 48.0605 32.617 49.4105C32.5698 49.6417 32.3964 49.9936 32.4857 50.0777C34.2193 51.7614 36.5027 52.7624 38.9156 52.8966C41.3286 53.0307 43.7088 52.289 45.6184 50.8078C51.0081 46.6054 50.6246 38.8886 45.6815 35.4741L45.6447 35.4268ZM70.7702 34.5653L70.7072 34.4287C70.5706 32.732 69.541 32.3853 68.0071 32.422C64.1723 32.5008 60.3271 32.5534 56.4976 32.422C54.4856 32.3433 53.8132 32.8686 53.8185 34.9908C53.8955 54.007 53.8955 73.0196 53.8185 92.0288C53.8185 94.0145 54.4804 94.6869 56.2559 94.7079C55.9722 96.0894 56.34 96.8354 57.9474 96.8091C62.5491 96.7566 67.1561 96.8091 71.7578 96.8091C72.4564 96.8091 73.3337 96.8091 73.2969 95.8583C73.1971 93.9147 73.9221 91.8975 72.8662 90.0221C73.6752 88.6458 73.3547 87.1277 73.3915 85.6673C73.4283 81.4649 73.3915 77.2624 73.3915 72.813C82.1326 77.6879 84.5228 78.229 91.0103 77.5408C107.095 75.7968 115.658 57.7997 107.747 43.7635C106.78 42.0457 106.018 39.8867 103.702 39.2616L103.728 39.3036C103.796 38.7205 103.623 38.316 102.961 38.2845C102.126 37.528 101.264 36.7979 100.455 36.0152C93.1483 29.0023 80.2573 28.3246 72.8557 34.4392C72.1465 34.5233 71.5109 35.1957 70.7702 34.5653ZM129.909 11.6041C129.421 11 128.943 10.3801 128.428 9.79701C125.712 6.71344 122.198 5.51049 118.3 6.36149C114.549 7.18097 111.765 9.47657 110.51 13.3323C108.871 18.3805 110.667 22.3151 114.345 25.6876C116.745 29.3648 120.417 30.2525 124.325 29.5223C128.355 28.7712 131.412 26.2864 132.62 22.168C133.786 18.2072 133.151 14.5353 129.909 11.6041ZM114.922 76.1697C114.565 77.8035 115.448 78.0714 116.829 78.0556C121.032 78.0136 125.203 77.9821 129.384 78.0556C131.065 78.0871 131.638 77.5303 131.627 75.8178C131.575 62.8322 131.575 49.8448 131.627 36.8557C131.627 35.5214 131.291 34.6756 129.909 34.4497C129.684 32.9316 128.906 32.3485 127.283 32.4273C123.28 32.5586 119.272 32.5166 115.269 32.4273C113.767 32.3958 113.073 32.711 113.079 34.4025C113.131 47.5562 113.131 60.7099 113.079 73.8636C113.084 75.3135 113.641 75.9439 114.922 76.1697Z" fill="#144C9A"/>
<path d="M7.84277 99.9664C18.2859 103.517 29.081 101.81 39.7185 101.905C66.1625 102.141 92.6118 101.863 119.04 102.041C129.741 102.115 137.746 94.561 137.689 83.3981C137.599 65.6795 137.689 47.9608 137.641 30.2474C137.641 24.1538 138.088 18.0445 137.116 11.9719L137.956 11.7881H137.93C138.041 12.0192 138.151 12.2451 138.256 12.4762L138.293 12.5655C138.44 12.8755 138.592 13.1854 138.739 13.5006C139.711 15.6018 139.895 17.8607 139.895 20.1457C139.895 42.5712 139.753 64.9966 139.963 87.422C140.058 97.5552 132.157 104.841 122.581 104.757C88.1992 104.516 53.8178 104.647 19.4311 104.678C14.9134 104.673 10.9211 103.486 7.84277 99.9664Z" fill="#0D1010"/>
<path d="M137.994 11.788L137.153 11.9719C136.795 11.7388 136.52 11.398 136.368 10.9987C136.216 10.5993 136.195 10.162 136.308 9.74982C137.474 9.92842 137.631 10.937 137.994 11.788Z" fill="#161816"/>
<path d="M136.323 9.81819C135.567 9.59756 135.488 8.90415 135.272 8.3053C135.604 8.38202 135.895 8.5794 136.09 8.85905C136.284 9.13869 136.367 9.48058 136.323 9.81819Z" fill="#161816"/>
<path d="M138.777 13.4796C138.63 13.1644 138.477 12.8545 138.33 12.5446C138.792 12.7074 138.84 13.0646 138.777 13.4796Z" fill="#161816"/>
<path d="M138.292 12.4551C138.187 12.224 138.077 11.9981 137.967 11.767C138.034 11.7892 138.097 11.825 138.15 11.8722C138.204 11.9193 138.247 11.9768 138.277 12.0412C138.308 12.1055 138.325 12.1754 138.327 12.2466C138.33 12.3177 138.318 12.3887 138.292 12.4551Z" fill="#161816"/>
<path d="M7.25977 99.3938L7.87963 99.9927C7.72217 99.9823 7.5735 99.9164 7.46001 99.8068C7.34653 99.6971 7.27558 99.5508 7.25977 99.3938Z" fill="#0D1010"/>
<path d="M72.8248 34.3972C80.2264 28.2879 93.1175 28.9655 100.424 35.9731C101.233 36.7558 102.095 37.486 102.93 38.2425L103.697 39.2616L103.671 39.2195C104.096 40.0705 104.506 40.932 104.953 41.762C109.476 50.1354 108.961 58.3408 103.666 66.0891C98.5964 73.5117 89.4561 76.7738 80.7149 74.7356C80.3735 74.2681 79.8849 74.2944 79.3911 74.3312L79.2493 74.3837L79.1547 74.2681C78.9079 72.813 77.8415 73.2805 76.9537 73.3383V73.3698C76.6438 72.0408 75.6352 72.1669 74.6423 72.2562C74.5658 72.2971 74.481 72.3201 74.3943 72.3235C74.3076 72.3268 74.2213 72.3104 74.1418 72.2755C74.0624 72.2406 73.9919 72.1881 73.9358 72.122C73.8796 72.0558 73.8392 71.9778 73.8176 71.8937C73.6653 70.9482 73.1295 70.5542 72.1839 70.738H72.2312C72.1051 70.1287 71.6481 70.0814 71.1491 70.1077L71.0387 70.1865L70.9284 70.1129C69.8778 70.8589 69.7202 71.9042 69.9041 73.0809C70.5975 77.5881 70.0827 82.1267 70.1877 86.6496C70.2193 87.9577 69.3367 89.2762 68.1863 89.3655C64.1835 89.5809 60.1648 89.46 56.1515 89.4338C55.6262 89.4338 54.917 89.7017 54.8907 88.6353C54.854 87.0016 54.523 85.3679 54.5178 83.7394C54.4863 70.4771 54.4863 57.2131 54.5178 43.9473C54.5178 40.911 54.439 37.88 54.7384 34.8227C54.896 33.2468 55.4843 33.3834 56.4299 33.3834C61.205 33.3834 66.0063 33.0261 70.6815 34.434L70.7446 34.5705L70.9337 36.0467C71.5903 35.5003 72.8511 35.6737 72.8248 34.3972ZM70.151 62.7639C70.0722 63.1631 70.3243 63.2577 70.6395 63.2892C76.8854 67.8173 85.0907 66.1731 89.1934 59.57C93.1752 53.1665 90.617 44.5567 83.7144 41.1317C80.2001 39.1197 76.5545 39.167 72.9404 40.6799C68.4227 42.5763 65.6806 46.0906 65.0607 50.9182C64.4409 55.7457 65.7436 60.0218 70.151 62.8374V62.7639ZM67.0359 35.6737C67.2723 35.5791 67.5612 35.5161 67.5612 35.4688C67.5295 35.2278 67.475 34.9904 67.3983 34.7597C67.2513 34.8332 66.9939 34.8857 66.9728 34.9803C66.9553 35.2185 66.9766 35.458 67.0359 35.6895V35.6737ZM75.3095 71.3579C75.5537 71.2735 75.7894 71.1662 76.0134 71.0375C76.213 70.8956 76.1552 70.675 75.9136 70.6698C75.6663 70.6905 75.4263 70.7639 75.2097 70.8851C75.2223 71.0515 75.2558 71.2157 75.3095 71.3737V71.3579Z" fill="#F9DC08"/>
<path d="M10.6328 76.1699C8.90984 76.0386 8.23744 75.3504 8.2532 73.3963C8.37402 60.5682 8.35826 47.7402 8.2532 34.9069C8.2532 32.9685 8.71547 32.3381 10.7064 32.4222C14.5359 32.5903 18.3917 32.6166 22.2212 32.4222C24.1438 32.3329 24.9265 32.9475 24.8897 34.7913C24.8267 35.9155 24.7059 37.0396 24.7059 38.1638C24.7059 49.8992 24.6586 61.6346 24.7426 73.3595C24.7426 75.2716 24.2804 75.8757 22.2842 75.8705C18.4179 75.8757 14.5044 75.4292 10.6328 76.1699Z" fill="#F9DC08"/>
<path d="M114.922 76.1699C113.64 75.9388 113.084 75.3084 113.089 73.8743C113.145 60.7206 113.145 47.5669 113.089 34.4131C113.089 32.7216 113.777 32.4064 115.279 32.438C119.282 32.5273 123.29 32.5693 127.293 32.438C128.922 32.3802 129.699 32.9633 129.92 34.4604C129.342 35.4322 129.599 36.5039 129.599 37.5335C129.599 49.479 129.542 61.4245 129.626 73.3753C129.626 75.3294 129.1 75.881 127.136 75.8915C123.075 75.9073 118.978 75.4135 114.922 76.1699Z" fill="#F7DB0A"/>
<path d="M114.344 25.6876C110.666 22.3151 108.87 18.3805 110.509 13.3323C111.764 9.47654 114.548 7.18094 118.299 6.36146C122.197 5.51046 125.711 6.71342 128.427 9.79698C128.952 10.3801 129.42 10.9999 129.909 11.5988C132.11 18.2492 130.67 23.1556 125.512 26.0238C121.766 28.1197 118.016 27.4526 114.344 25.6876Z" fill="#F7DB0A"/>
<path d="M32.6168 49.379C30.0217 48.029 28.5036 45.7649 27.3637 43.1751L27.3164 38.2162C30.379 29.6694 39.9238 28.2984 45.5236 35.2167L45.4921 35.3533L45.6339 35.4268V35.4583C45.6844 35.7979 45.7599 36.1333 45.8598 36.4617C47.4357 40.6641 46.9735 44.5252 43.6693 47.6875C40.4491 50.7711 36.6616 51.1125 32.6168 49.379Z" fill="#F7DB0A"/>
<path d="M80.7147 74.741C89.4558 76.7792 98.5752 73.517 103.665 66.0944C108.961 58.3461 109.475 50.1408 104.952 41.7673C104.506 40.9374 104.096 40.0759 103.671 39.2249C105.987 39.85 106.749 42.009 107.716 43.7267C115.627 57.763 107.064 75.7706 90.9792 77.5041C84.4917 78.208 82.1015 77.6669 73.3604 72.7763C73.3604 77.2204 73.3604 81.4281 73.3604 85.6306C73.3604 87.091 73.6703 88.6091 72.8351 89.9854C71.7844 89.9119 71.2854 90.3479 71.2591 91.4826C71.2591 92.3651 71.7057 93.4157 70.6971 94.1091C70.6655 90.3636 70.55 86.6235 70.6235 82.8833C70.7023 78.6283 70.219 74.3575 70.9334 70.1183L71.0438 70.1918L71.1541 70.113L72.2362 70.7434H72.1889C72.4043 71.5944 73.1713 71.6627 73.8226 71.899C73.8442 71.9831 73.8846 72.0611 73.9408 72.1273C73.997 72.1934 74.0674 72.2459 74.1469 72.2809C74.2263 72.3158 74.3126 72.3322 74.3993 72.3288C74.4861 72.3255 74.5709 72.3024 74.6474 72.2615C74.9181 72.6157 75.2684 72.9011 75.67 73.0946C76.0715 73.2881 76.5131 73.3842 76.9587 73.3752V73.3436C77.484 74.1421 78.2983 74.2629 79.1598 74.2734L79.2543 74.389L79.3962 74.3365C79.5616 74.5131 79.7703 74.6433 80.0016 74.7143C80.2329 74.7852 80.4787 74.7944 80.7147 74.741Z" fill="#161816"/>
<path d="M70.9483 70.1343C70.2339 74.3735 70.7172 78.6443 70.6384 82.8993C70.5648 86.6395 70.6804 90.3796 70.7119 94.1251L69.7033 94.6504C65.2164 94.4193 60.7202 94.4298 56.2344 94.6819C54.4589 94.6819 53.7865 93.9885 53.797 92.0029C53.8951 72.9937 53.8951 53.981 53.797 34.9648C53.797 32.8636 54.4641 32.3383 56.4761 32.3961C60.3056 32.5432 64.1508 32.4906 67.9856 32.3961C69.5195 32.3593 70.5491 32.706 70.6857 34.4028C66.0104 33.0212 61.2301 33.3889 56.434 33.3522C55.4885 33.3522 54.9001 33.2208 54.7425 34.7915C54.4431 37.8488 54.5324 40.8798 54.5219 43.9161C54.4729 57.1819 54.4729 70.4459 54.5219 83.7082C54.5219 85.3367 54.8581 86.9704 54.8949 88.6041C54.8949 89.6547 55.6303 89.3973 56.1556 89.4026C60.169 89.4288 64.1876 89.5497 68.1904 89.3343C69.3409 89.2712 70.2234 87.9265 70.1919 86.6184C70.0868 82.0955 70.6016 77.5569 69.9082 73.0497C69.7401 71.9256 69.9135 70.8802 70.9483 70.1343Z" fill="#F7DB0A"/>
<path d="M27.3164 38.2164L27.3636 43.1911C27.3636 54.0019 27.2743 64.8128 27.3636 75.6236C27.3636 77.8877 26.9066 78.5233 24.4114 78.2869C20.6239 77.935 16.7734 78.2869 12.9492 78.4077C11.3102 78.4655 10.4329 77.9245 10.6431 76.1699C14.5146 75.4292 18.4281 75.8758 22.3154 75.8968C24.3116 75.8968 24.7844 75.2979 24.7739 73.3858C24.6898 61.6504 24.7213 49.915 24.7371 38.1901C24.7371 37.066 24.8579 35.9418 24.9209 34.8176C27.7734 34.4867 27.3164 36.5249 27.3164 38.2164Z" fill="#161816"/>
<path d="M114.922 76.1698C118.977 75.4081 123.075 75.9019 127.146 75.8914C129.111 75.8914 129.652 75.3293 129.636 73.3752C129.552 61.4244 129.589 49.4789 129.61 37.5334C129.61 36.4828 129.352 35.4321 129.93 34.4603C131.312 34.6862 131.653 35.5109 131.648 36.8662C131.602 49.8519 131.602 62.8393 131.648 75.8284C131.648 77.5672 131.086 78.0977 129.405 78.0662C125.202 77.9821 121.037 78.0137 116.85 78.0662C115.468 78.0767 114.565 77.8088 114.922 76.1698Z" fill="#161816"/>
<path d="M32.6165 49.3791C36.6614 51.0968 40.4962 50.7554 43.69 47.6718C46.9942 44.52 47.4775 40.6432 45.8806 36.446C45.7806 36.1175 45.7051 35.7822 45.6547 35.4426C50.5979 38.8571 50.9813 46.5687 45.5917 50.7764C43.6821 52.2575 41.3018 52.9993 38.8889 52.8651C36.4759 52.7309 34.1926 51.7299 32.4589 50.0462C32.3959 49.9779 32.5693 49.626 32.6165 49.3791Z" fill="#161816"/>
<path d="M114.345 25.6878C118.022 27.4528 121.767 28.12 125.513 26.024C130.671 23.14 132.111 18.2494 129.91 11.599C133.151 14.5355 133.786 18.2074 132.615 22.1945C131.407 26.2866 128.349 28.7713 124.32 29.5488C120.417 30.2527 116.745 29.3597 114.345 25.6878Z" fill="#161816"/>
<path d="M56.2347 94.6922C60.7206 94.44 65.2167 94.4295 69.7037 94.6607C70.5704 95.5117 70.6702 94.876 70.7123 94.1354C71.7208 93.4419 71.2376 92.3913 71.2743 91.5088C71.2743 90.3741 71.7996 89.9329 72.8503 90.0117C73.9009 91.887 73.1812 93.9042 73.281 95.8479C73.3283 96.7987 72.4405 96.7987 71.7419 96.7987C67.1402 96.7987 62.5332 96.7566 57.9315 96.7987C56.3188 96.8197 55.9511 96.0737 56.2347 94.6922Z" fill="#0D1010"/>
<path d="M72.8245 34.3973C72.8507 35.6738 71.59 35.5004 70.9596 36.0415L70.7705 34.5654C71.5112 35.1957 72.1468 34.5234 72.8245 34.3973Z" fill="#F7DB0A"/>
<path d="M103.696 39.2669L102.929 38.2478C103.591 38.2793 103.764 38.6838 103.696 39.2669Z" fill="#161816"/>
<path d="M45.6438 35.427L45.502 35.3534L45.5335 35.2169L45.6438 35.427Z" fill="#161816"/>
<path d="M83.7128 41.1634C90.6154 44.5884 93.1684 53.1982 89.1918 59.6017C85.0891 66.2049 76.8838 67.8491 70.6379 63.3209C70.6438 63.2536 70.6355 63.1857 70.6135 63.1218C70.5915 63.0578 70.5564 62.9992 70.5103 62.9497C70.4643 62.9002 70.4084 62.8609 70.3462 62.8344C70.284 62.8078 70.2169 62.7946 70.1493 62.7956V62.8849C70.0758 61.0148 68.9464 59.4914 68.4684 57.7421C66.8241 51.6906 69.0357 45.8912 74.1259 43.2856C77.1465 41.736 80.3718 41.2895 83.7128 41.1634Z" fill="#144C9A"/>
<path d="M83.7143 41.1635C80.3944 41.2896 77.148 41.7361 74.1432 43.2647C69.053 45.8913 66.8414 51.6697 68.4856 57.7212C68.9637 59.4705 70.0931 60.9939 70.1666 62.864C65.7593 60.0483 64.467 55.7881 65.0764 50.9447C65.6857 46.1014 68.4226 42.6028 72.956 40.7065C76.5544 39.1988 80.2 39.1516 83.7143 41.1635Z" fill="#161816"/>
<path d="M79.1542 74.2734C78.2927 74.2734 77.4784 74.1421 76.9531 73.3436C77.8409 73.2859 78.9073 72.8183 79.1542 74.2734Z" fill="#F7DB0A"/>
<path d="M73.8378 71.899C73.1864 71.6626 72.4195 71.5943 72.2041 70.7433C73.1497 70.5595 73.6855 70.9534 73.8378 71.899Z" fill="#F7DB0A"/>
<path d="M76.9735 73.3754C76.5278 73.3844 76.0863 73.2883 75.6847 73.0948C75.2831 72.9013 74.9328 72.6159 74.6621 72.2617C75.6444 72.1724 76.6635 72.0463 76.9735 73.3754Z" fill="#F7DB0A"/>
<path d="M67.0347 35.6894C66.9683 35.4645 66.9381 35.2304 66.9454 34.996C66.9454 34.9015 67.2238 34.8489 67.3709 34.7754C67.4475 35.0061 67.502 35.2436 67.5337 35.4846C67.5337 35.5318 67.2711 35.5949 67.0347 35.6894Z" fill="#F7DB0A"/>
<path d="M75.3088 71.3738C75.2564 71.2208 75.2229 71.0621 75.209 70.901C75.4256 70.7798 75.6656 70.7063 75.9129 70.6856C76.1545 70.6856 76.2123 70.9115 76.0127 71.0533C75.7887 71.1821 75.553 71.2894 75.3088 71.3738Z" fill="#F7DB0A"/>
<path d="M72.2511 70.7592L71.1689 70.1289C71.668 70.1026 72.125 70.1499 72.2511 70.7592Z" fill="#F7DB0A"/>
<path d="M80.7144 74.7412C80.4776 74.7956 80.2308 74.7869 79.9984 74.7159C79.7661 74.6449 79.5565 74.5141 79.3906 74.3367C79.8844 74.2999 80.3729 74.2736 80.7144 74.7412Z" fill="#F7DB0A"/>
<path d="M70.1503 62.7797C70.2179 62.7787 70.285 62.7919 70.3471 62.8185C70.4093 62.845 70.4652 62.8843 70.5113 62.9338C70.5573 62.9833 70.5925 63.0419 70.6144 63.1059C70.6364 63.1698 70.6447 63.2377 70.6388 63.305C70.3237 63.2735 70.0715 63.1789 70.1503 62.7797Z" fill="#161816"/>
<path d="M70.7127 94.1355C70.6707 94.8762 70.5709 95.5118 69.7041 94.6608L70.7127 94.1355Z" fill="#161816"/>
</g>
<defs>
<clipPath id="clip0_74_458">
<rect width="140" height="104.752" fill="white"/>
</clipPath>
</defs>
</svg>
