<svg width="521" height="54" viewBox="0 0 521 54" fill="none" xmlns="http://www.w3.org/2000/svg">
<g clip-path="url(#clip0_74_411)">
<path d="M117.751 7.4822C114.113 3.32256 109.1 2.29698 103.883 2.26513C89.4039 2.21417 74.9184 2.21417 60.4329 2.21417C43.6797 2.21417 26.9328 2.2715 10.1923 2.21417C7.80354 2.21417 6.74611 3.25249 6.16007 5.3992C5.09627 9.22123 3.86685 13.0433 2.69476 16.8653C2.44633 17.6934 2.05776 18.5661 3.0897 19.0884C3.2762 19.1997 3.48396 19.2707 3.69958 19.2968C3.9152 19.3229 4.13389 19.3035 4.34156 19.2399C4.54922 19.1763 4.74124 19.0698 4.90525 18.9275C5.06925 18.7851 5.2016 18.6099 5.29374 18.4132C7.64429 13.865 11.5045 10.5335 14.9826 6.89616L15.0781 6.80061C17.3268 6.6541 18.9511 4.47554 21.3781 4.88959L21.7858 5.29728C21.6423 6.44716 21.4295 7.58734 21.1488 8.71162C17.3522 20.6873 13.5047 32.6566 9.7273 44.6451C8.01375 50.0915 8.06471 50.1106 2.08324 50.5437C1.65609 50.5459 1.2299 50.5843 0.809227 50.6584C0.427024 50.7603 0.000230992 50.9451 0.000230992 51.4738C-0.00230843 51.58 0.0161113 51.6857 0.0544378 51.7848C0.0927643 51.884 0.150246 51.9746 0.2236 52.0515C0.296953 52.1284 0.384741 52.1901 0.481946 52.233C0.579151 52.276 0.683869 52.2994 0.790117 52.3019C1.52644 52.4058 2.26971 52.4527 3.01326 52.442C14.1099 52.442 25.2044 52.442 36.2968 52.442C36.9347 52.4513 37.5726 52.4258 38.2078 52.3656C38.7365 52.3083 39.3098 52.1745 39.3225 51.4993C39.3353 50.824 38.762 50.6266 38.2205 50.6266C36.9486 50.5359 35.6727 50.5146 34.3985 50.5629C32.0798 50.703 31.7294 49.9258 32.4493 47.7537C36.628 35.1027 40.6475 22.42 44.7243 9.75631C45.2977 7.98544 45.3614 5.11892 46.9029 4.85137C49.0114 4.47554 50.8014 6.61588 52.3047 8.31031C53.5834 9.72669 54.4954 11.4348 54.961 13.2853C55.426 15.0626 55.477 16.9799 56.5217 18.5979L56.6937 18.7763C58.1906 19.9102 58.662 18.8846 59.0442 17.6743C60.2673 13.744 61.5922 9.83275 62.6879 5.87058C63.6434 2.4626 66.2233 4.15704 67.9496 4.3354C70.0262 4.54561 68.8223 6.3993 68.5101 7.38665C64.548 19.7573 60.4265 32.0706 56.5153 44.4603C55.4197 47.9511 54.9992 51.7222 49.7885 50.6266C49.6574 50.5932 49.5202 50.5913 49.3881 50.621C49.256 50.6507 49.1328 50.7112 49.0286 50.7975C48.9243 50.8837 48.8418 50.9934 48.7879 51.1176C48.734 51.2417 48.7102 51.3769 48.7184 51.512C48.7566 52.149 49.3554 52.3146 49.865 52.3592C50.7122 52.4293 51.5722 52.4356 52.413 52.4356C62.121 52.4356 71.8289 52.4739 81.5369 52.3974C82.9701 52.3974 85.4672 53.1937 85.5564 51.3782C85.6201 49.9577 83.0466 50.531 81.677 50.5692C79.18 50.6457 78.6767 49.6583 79.4475 47.5052C80.3757 45.1443 81.169 42.7325 81.8235 40.2816C82.5752 37.0966 83.811 35.5295 87.6075 35.8226C95.723 36.4213 103.743 35.7716 111.221 31.9432C121.592 26.6433 124.681 15.4129 117.751 7.4822ZM85.4799 33.5994C83.76 32.3764 84.6837 31.0514 85.2888 29.7009C85.4556 29.4326 85.5549 29.1279 85.5782 28.8128C85.6015 28.4978 85.5481 28.1818 85.4226 27.8918L85.6328 26.6879C87.5438 24.4329 87.633 21.4836 88.563 18.8591C89.837 15.2919 90.9263 11.6737 92.1557 8.09373C92.7927 6.18271 92.7927 3.74298 95.9204 3.96594C98.7296 4.16341 99.7425 5.81325 99.889 8.32942L99.7488 9.53336C97.4425 14.1904 95.7693 19.1349 94.7738 24.2354L94.5636 25.4203C93.5253 25.8598 93.4935 26.8599 93.1941 27.7517C92.5571 29.7583 91.6716 31.6884 89.8243 32.9306C88.5057 33.8287 87.1425 34.8033 85.4799 33.6185V33.5994Z" fill="#0152A2"/>
<path d="M177.623 1.23985C177.286 1.06757 176.91 0.98797 176.533 1.00924C176.156 1.03051 175.791 1.15189 175.476 1.36089C174.632 1.81195 173.83 2.33857 173.081 2.93429C171.272 4.43762 169.565 4.43762 167.545 3.18272C165.33 1.89694 162.836 1.16895 160.277 1.06149C145.327 0.0104349 129.631 5.81992 123.146 22.1527C119.84 30.5039 119.662 38.8104 126.331 45.8748C133.676 53.6845 143.008 54.9585 153.053 52.9965C154.028 52.8054 155.474 52.7863 156.009 51.4486H156.054C160.201 50.9326 163.144 48.3527 166.061 45.7155C166.211 45.6043 166.336 45.4627 166.427 45.3C166.518 45.1373 166.574 44.9571 166.591 44.7713C166.608 44.5855 166.585 44.3982 166.525 44.2217C166.464 44.0452 166.367 43.8835 166.239 43.7472C165.673 42.9892 164.895 43.2121 164.233 43.5943C163.709 43.9576 163.205 44.3489 162.723 44.7664C157.914 48.3273 152.582 50.5632 146.518 50.4995C142.479 50.4485 140.645 48.0279 141.861 44.2695C145.709 32.4085 149.662 20.5815 153.722 8.78836C154.958 5.20203 157.774 3.55855 161.137 4.23378C164.093 4.83256 166.768 6.14479 168.507 8.81384C170.813 12.3556 171.781 16.0821 170.418 20.2799C170.125 21.1654 169.609 22.5286 171.055 23.0063C172.501 23.4841 172.883 22.3693 173.176 21.2609C174.82 15.2561 176.463 9.24913 178.107 3.24005C178.279 2.48838 178.457 1.70487 177.623 1.23985Z" fill="#0152A2"/>
<path d="M210.925 18.7765H204.95L203.753 20.2607L202.389 21.8915C202.159 22.1871 201.962 22.5076 201.803 22.847C201.714 23.0476 201.666 23.2643 201.663 23.484C201.669 23.6112 201.705 23.7353 201.768 23.846C201.832 23.9567 201.92 24.0509 202.026 24.121C202.372 24.3651 202.782 24.5004 203.205 24.5095V25.0319H197.472L197.612 24.5095C198.102 24.4306 198.57 24.2459 198.981 23.9681C199.837 23.2607 200.612 22.4618 201.294 21.5857L214.938 5.26562H215.575L214.938 21.0633C214.938 21.8851 214.894 22.3819 214.894 22.5539C214.85 23.0556 214.991 23.5559 215.289 23.9617C215.632 24.2901 216.088 24.4747 216.563 24.4777L216.423 25H208.097L208.25 24.4777C208.731 24.4556 209.209 24.3873 209.677 24.2739C209.997 24.08 210.249 23.7903 210.397 23.4457C210.676 22.7474 210.812 22.0001 210.798 21.2481L210.925 18.7765ZM210.925 17.6108L211.295 11.3235L205.931 17.6108H210.925Z" fill="#0152A2"/>
<path d="M234.45 5.26562L229.825 21.1907C229.625 21.7793 229.478 22.3848 229.386 22.9998C229.385 23.0495 229.394 23.0988 229.412 23.1448C229.431 23.1909 229.459 23.2326 229.494 23.2674C229.525 23.3017 229.562 23.3295 229.604 23.3492C229.645 23.3689 229.69 23.3801 229.736 23.382C229.943 23.3644 230.137 23.2793 230.29 23.14C230.789 22.7036 231.218 22.1946 231.564 21.6303L232.074 21.8978C230.736 24.2378 229.265 25.4056 227.66 25.4014C227.422 25.4173 227.184 25.3861 226.959 25.3095C226.734 25.233 226.526 25.1127 226.347 24.9554C226.194 24.8078 226.073 24.6293 225.993 24.4317C225.912 24.2342 225.875 24.0219 225.882 23.8088C225.922 23.1585 226.046 22.516 226.252 21.8978L226.679 20.4518C225.494 22.5497 224.466 23.9426 223.596 24.6306C223.062 25.0922 222.389 25.3633 221.685 25.4014C221.334 25.4033 220.987 25.3238 220.672 25.1691C220.357 25.0143 220.082 24.7885 219.869 24.5095C219.329 23.7748 219.069 22.8711 219.137 21.9615C219.143 20.5145 219.464 19.0863 220.079 17.7764C220.622 16.5265 221.353 15.3666 222.245 14.3366C222.907 13.5459 223.703 12.8776 224.596 12.3619C225.27 11.9908 226.024 11.7896 226.793 11.7758C227.135 11.7704 227.474 11.8468 227.781 11.9988C228.156 12.2246 228.49 12.5133 228.768 12.8524L229.825 9.31061C230.03 8.70245 230.159 8.07123 230.208 7.43144C230.21 7.3221 230.188 7.21358 230.144 7.11347C230.1 7.01335 230.035 6.92404 229.953 6.85177C229.757 6.70646 229.513 6.64254 229.271 6.67341C229.103 6.676 228.935 6.68876 228.768 6.71163L228.915 6.15743L233.597 5.29111L234.45 5.26562ZM228.188 14.3175C228.229 13.8654 228.107 13.4138 227.844 13.0435C227.75 12.9218 227.629 12.823 227.492 12.7546C227.354 12.6862 227.202 12.6499 227.048 12.6485C226.675 12.6817 226.326 12.8492 226.067 13.1199C225.392 13.7569 224.691 14.9481 223.952 16.7827C223.303 18.2453 222.929 19.8153 222.85 21.4137C222.825 21.7681 222.91 22.1217 223.092 22.4265C223.15 22.5203 223.229 22.5989 223.323 22.6555C223.417 22.712 223.524 22.7449 223.634 22.7514C224.01 22.7311 224.365 22.5696 224.627 22.2991C225.666 21.2299 226.478 19.9626 227.016 18.5727C227.683 17.2452 228.081 15.7992 228.188 14.3175Z" fill="#0152A2"/>
<path d="M237.138 25.4013H236.629C236.629 24.6241 236.667 24.0317 236.667 23.6368C236.667 22.5539 236.584 20.9911 236.418 18.9484C236.353 17.5713 236.165 16.2028 235.858 14.8588C235.752 14.4413 235.531 14.0617 235.221 13.7632C235.025 13.604 234.778 13.5224 234.526 13.5339C234.33 13.5373 234.134 13.5565 233.94 13.5912V13.0752L238.68 11.8012C239.631 14.3875 240.092 17.702 240.062 21.7449C241.142 20.7815 242.108 19.698 242.941 18.5153C243.388 17.9122 243.661 17.1985 243.731 16.4514C243.715 15.9664 243.543 15.4995 243.241 15.12C242.998 14.8202 242.785 14.4982 242.604 14.1581C242.518 13.957 242.477 13.7397 242.483 13.5211C242.476 13.2932 242.516 13.0662 242.599 12.8539C242.682 12.6415 242.807 12.4481 242.967 12.2853C243.125 12.1225 243.316 11.9942 243.526 11.9087C243.737 11.8232 243.963 11.7823 244.19 11.7885C244.416 11.7752 244.642 11.813 244.852 11.899C245.061 11.985 245.249 12.117 245.4 12.2853C245.797 12.742 246.011 13.33 245.999 13.9352C245.997 14.588 245.878 15.2352 245.649 15.8462C245.336 16.6316 244.937 17.3795 244.457 18.0757C243.898 18.9173 243.258 19.7024 242.546 20.4199C241.302 21.7364 239.499 23.3968 237.138 25.4013Z" fill="#0152A2"/>
<path d="M260.019 12.0116L257.261 21.4711L256.975 22.5986C256.952 22.7036 256.937 22.81 256.93 22.9171C256.932 23.0266 256.975 23.1313 257.051 23.2101C257.081 23.2484 257.118 23.2801 257.161 23.3031C257.204 23.3262 257.251 23.34 257.299 23.3439C257.618 23.2851 257.909 23.1241 258.128 22.8853C258.5 22.4748 258.843 22.0384 259.153 21.5794L259.65 21.8342C259.131 22.8746 258.397 23.793 257.497 24.5287C256.789 25.0759 255.92 25.3738 255.025 25.3759C254.802 25.3918 254.577 25.3627 254.365 25.2905C254.153 25.2183 253.957 25.1044 253.79 24.9555C253.649 24.8185 253.538 24.6538 253.465 24.4717C253.391 24.2897 253.357 24.0943 253.363 23.8981C253.432 23.1948 253.584 22.502 253.815 21.8342L254.165 20.6876C253.356 22.2077 252.277 23.5676 250.98 24.7007C250.449 25.1329 249.786 25.3731 249.101 25.3823C248.712 25.4102 248.324 25.323 247.984 25.1315C247.644 24.9401 247.368 24.6529 247.19 24.3058C246.792 23.5594 246.591 22.7243 246.604 21.8788C246.672 20.275 247.09 18.7054 247.827 17.2796C248.56 15.6557 249.662 14.2249 251.044 13.1009C251.905 12.3253 253.008 11.8708 254.165 11.8141C254.634 11.7943 255.091 11.9589 255.439 12.2727C255.835 12.7541 256.081 13.3411 256.146 13.9608L256.662 12.209L260.019 12.0116ZM255.439 14.7125C255.486 14.1353 255.362 13.5572 255.083 13.0499C255.006 12.9367 254.903 12.8446 254.781 12.7822C254.66 12.7199 254.525 12.6892 254.388 12.6932C254.042 12.7154 253.716 12.8678 253.477 13.12C252.84 13.7124 252.159 14.9036 251.42 16.6999C250.77 18.1723 250.404 19.7545 250.343 21.3628C250.312 21.7408 250.399 22.1191 250.592 22.4457C250.649 22.5417 250.729 22.6224 250.825 22.6811C250.92 22.7399 251.028 22.7749 251.14 22.7833C251.392 22.7568 251.636 22.6772 251.856 22.5499C252.075 22.4226 252.265 22.2503 252.414 22.0444C253.094 21.2659 253.664 20.3979 254.108 19.4645C254.912 18.0041 255.367 16.3779 255.439 14.7125Z" fill="#0152A2"/>
<path d="M268.416 11.8141L266.651 17.9167C267.462 16.6437 268.351 15.4225 269.314 14.2602C269.954 13.5093 270.708 12.8643 271.55 12.3492C272.085 12.032 272.692 11.8566 273.314 11.8396C273.553 11.8343 273.791 11.8804 274.011 11.9749C274.231 12.0695 274.428 12.2101 274.588 12.3875C274.768 12.5777 274.907 12.802 274.998 13.0472C275.088 13.2923 275.129 13.5532 275.117 13.8143C275.092 14.4638 274.979 15.1068 274.779 15.7254L272.958 21.8024C272.844 22.1394 272.768 22.4874 272.728 22.8407C272.728 22.8884 272.737 22.9356 272.756 22.9795C272.774 23.0233 272.802 23.0629 272.836 23.0955C272.862 23.1291 272.895 23.1568 272.932 23.1766C272.97 23.1964 273.011 23.2078 273.053 23.2102C273.163 23.2056 273.268 23.1653 273.352 23.0955C273.735 22.7642 274.072 22.3828 274.353 21.9616C274.435 21.8279 274.576 21.6304 274.767 21.3629L275.302 21.6877C273.913 24.0001 272.442 25.1467 270.906 25.1467C270.405 25.1741 269.912 25.0127 269.524 24.6944C269.364 24.5513 269.237 24.3754 269.151 24.1786C269.065 23.9818 269.023 23.7688 269.027 23.5541C269.065 22.9494 269.18 22.352 269.371 21.7769L271.148 15.6999C271.248 15.414 271.31 15.1164 271.333 14.8144C271.332 14.7625 271.32 14.7115 271.298 14.6644C271.276 14.6173 271.244 14.5751 271.206 14.5405C271.167 14.501 271.12 14.4699 271.069 14.4491C271.017 14.4283 270.962 14.4182 270.906 14.4195C270.407 14.5063 269.956 14.7683 269.632 15.1584C268.049 16.7911 266.756 18.6827 265.81 20.7513L264.645 24.9747H261.014L263.676 15.84C263.879 15.2203 264.007 14.5788 264.059 13.929C264.063 13.7835 264.017 13.6409 263.929 13.525C263.841 13.4091 263.716 13.3269 263.574 13.292C263.261 13.2114 262.936 13.1792 262.613 13.1964L262.765 12.655L267.543 11.8141H268.416Z" fill="#0152A2"/>
<path d="M287.787 21.5729L288.214 21.9551C287.455 22.9143 286.534 23.7335 285.494 24.3757C284.377 25.0395 283.104 25.3936 281.805 25.4013C281.015 25.416 280.234 25.2274 279.538 24.8534C278.899 24.5121 278.387 23.9737 278.079 23.3182C277.772 22.6845 277.611 21.9902 277.607 21.2862C277.627 19.6728 278.066 18.0923 278.881 16.6998C279.671 15.2518 280.81 14.0236 282.194 13.1262C283.401 12.3058 284.818 11.8502 286.277 11.8139C287.143 11.7488 288.003 12.0001 288.698 12.521C288.964 12.7372 289.178 13.0114 289.323 13.3227C289.467 13.634 289.539 13.9742 289.532 14.3174C289.539 14.9211 289.311 15.5039 288.895 15.9417C288.73 16.145 288.522 16.3101 288.287 16.4255C288.052 16.541 287.794 16.6041 287.532 16.6106C287.331 16.6177 287.13 16.5835 286.943 16.5101C286.756 16.4367 286.585 16.3256 286.443 16.1838C286.304 16.0544 286.194 15.8975 286.119 15.7231C286.045 15.5487 286.007 15.3606 286.01 15.171C286.018 14.9026 286.093 14.6405 286.226 14.4074C286.359 14.1743 286.547 13.9772 286.774 13.8332C287.131 13.5721 287.303 13.3364 287.303 13.1389C287.304 13.058 287.286 12.978 287.249 12.9058C287.212 12.8337 287.159 12.7715 287.092 12.7249C286.878 12.5647 286.615 12.4836 286.347 12.4955C285.508 12.5111 284.706 12.8459 284.105 13.4319C283.146 14.3302 282.414 15.4438 281.971 16.6807C281.502 17.8682 281.252 19.1306 281.232 20.4071C281.192 21.2177 281.463 22.0129 281.99 22.6303C282.209 22.8926 282.482 23.1034 282.792 23.2476C283.101 23.3919 283.439 23.466 283.78 23.4648C284.461 23.4484 285.132 23.29 285.748 22.9997C286.509 22.653 287.2 22.1693 287.787 21.5729Z" fill="#0152A2"/>
<path d="M294.328 19.6684C294.253 20.1727 294.21 20.6812 294.2 21.1909C294.187 21.5035 294.237 21.8156 294.347 22.1087C294.456 22.4019 294.623 22.6702 294.837 22.8981C295.054 23.1132 295.313 23.2809 295.598 23.3906C295.884 23.5003 296.188 23.5495 296.493 23.5351C297.189 23.5293 297.873 23.3637 298.494 23.0509C299.346 22.5999 300.131 22.0317 300.825 21.3629L301.252 21.7451C300.375 22.8739 299.295 23.8289 298.067 24.5606C297.014 25.1261 295.835 25.4153 294.64 25.4015C293.052 25.4015 291.956 25.0214 291.353 24.2612C290.749 23.5186 290.427 22.5872 290.442 21.6304C290.454 19.9855 290.905 18.3737 291.748 16.9612C292.641 15.4184 293.915 14.1309 295.449 13.222C296.855 12.3266 298.483 11.8393 300.15 11.8142C300.803 11.7634 301.451 11.9665 301.959 12.3811C302.161 12.5621 302.323 12.784 302.433 13.0323C302.542 13.2805 302.598 13.5493 302.596 13.8207C302.589 14.5366 302.382 15.2363 301.997 15.84C301.476 16.7046 300.766 17.4406 299.921 17.9931C299.058 18.5614 298.113 18.9912 297.118 19.2671C296.201 19.4836 295.268 19.6179 294.328 19.6684ZM294.455 18.9295C295.123 18.8497 295.777 18.6783 296.398 18.4199C296.91 18.1691 297.369 17.8207 297.748 17.3943C298.231 16.8731 298.619 16.2717 298.895 15.6171C299.198 14.9885 299.364 14.302 299.379 13.6042C299.388 13.4888 299.373 13.3729 299.336 13.2634C299.299 13.1539 299.24 13.0531 299.163 12.9672C299.089 12.892 299.001 12.8328 298.903 12.7933C298.805 12.7539 298.701 12.735 298.596 12.7378C298.288 12.7847 297.994 12.8936 297.73 13.0579C297.466 13.2221 297.238 13.4383 297.06 13.6933C295.821 15.2284 294.932 17.0153 294.455 18.9295Z" fill="#0152A2"/>
<path d="M318.605 5.26562L313.98 21.1908C313.779 21.7793 313.632 22.3848 313.541 22.9998C313.541 23.0499 313.551 23.0994 313.571 23.1454C313.59 23.1914 313.619 23.2329 313.655 23.2674C313.685 23.3023 313.723 23.3305 313.764 23.3503C313.806 23.37 313.851 23.3808 313.897 23.382C314.103 23.3622 314.297 23.2774 314.452 23.14C314.948 22.7018 315.377 22.1931 315.726 21.6303L316.235 21.8978C314.898 24.2378 313.428 25.4056 311.827 25.4014C311.346 25.4324 310.872 25.2721 310.509 24.9555C310.357 24.8065 310.238 24.6277 310.159 24.4303C310.08 24.2329 310.043 24.0213 310.05 23.8088C310.086 23.1581 310.21 22.5152 310.419 21.8978L310.846 20.4518C309.661 22.5497 308.631 23.9426 307.757 24.6306C307.223 25.0922 306.55 25.3633 305.846 25.4014C305.494 25.4048 305.147 25.326 304.832 25.1711C304.517 25.0162 304.242 24.7897 304.03 24.5095C303.49 23.7748 303.23 22.8711 303.298 21.9615C303.305 20.5153 303.624 19.0877 304.234 17.7764C304.779 16.5262 305.512 15.3663 306.406 14.3366C307.065 13.5449 307.858 12.8763 308.75 12.3619C309.424 11.9908 310.179 11.7896 310.948 11.7758C311.292 11.7711 311.633 11.8474 311.942 11.9988C312.316 12.2261 312.65 12.5146 312.929 12.8524L313.98 9.31061C314.186 8.70247 314.317 8.07137 314.369 7.43144C314.37 7.32167 314.347 7.21299 314.302 7.1129C314.257 7.01281 314.191 6.92372 314.108 6.85177C314.009 6.77676 313.896 6.72234 313.775 6.6917C313.655 6.66107 313.53 6.65485 313.407 6.67341C313.241 6.67581 313.075 6.68857 312.91 6.71163L313.05 6.15743L317.732 5.29111L318.605 5.26562ZM312.343 14.3175C312.38 13.8666 312.261 13.4167 312.005 13.0435C311.91 12.9228 311.789 12.8248 311.652 12.7565C311.514 12.6882 311.363 12.6513 311.209 12.6485C310.834 12.6813 310.483 12.8488 310.222 13.1199C309.553 13.7569 308.846 14.9481 308.113 16.7827C307.473 18.2381 307.108 19.7997 307.037 21.3882C307.009 21.7429 307.094 22.0974 307.279 22.4011C307.335 22.4947 307.413 22.5733 307.506 22.63C307.599 22.6866 307.705 22.7195 307.814 22.7259C308.192 22.7066 308.55 22.5451 308.814 22.2737C309.848 21.2021 310.658 19.9353 311.197 18.5472C311.854 17.2268 312.244 15.7893 312.343 14.3175Z" fill="#0152A2"/>
<path d="M329.235 5.70526H344.759L343.294 10.9032H342.784C342.784 10.6229 342.784 10.3809 342.784 10.177C342.81 9.75434 342.746 9.33098 342.597 8.9347C342.448 8.53841 342.216 8.17813 341.918 7.87745C341.338 7.32962 340.364 7.02386 338.988 6.94742L334.688 21.4711C334.494 22.0524 334.374 22.656 334.331 23.2675C334.326 23.4363 334.364 23.6037 334.44 23.754C334.517 23.9044 334.631 24.0329 334.771 24.1274C335.328 24.4022 335.948 24.5232 336.567 24.4778L336.44 25.0001H326.885L327.057 24.4778C327.809 24.5399 328.561 24.347 329.191 23.93C329.637 23.5605 330.044 22.7451 330.414 21.4711L334.714 6.94742C333.41 6.95454 332.131 7.29909 331 7.94752C329.856 8.70191 328.917 9.72844 328.267 10.9351H327.713L329.235 5.70526Z" fill="#0152A2"/>
<path d="M344.249 19.6684C344.171 20.1723 344.129 20.681 344.122 21.1909C344.109 21.5035 344.159 21.8156 344.268 22.1087C344.378 22.4019 344.545 22.6702 344.759 22.8981C344.975 23.1139 345.235 23.282 345.52 23.3917C345.805 23.5014 346.11 23.5502 346.415 23.5351C347.11 23.5286 347.794 23.363 348.415 23.0509C349.266 22.6009 350.049 22.0325 350.74 21.3629L351.167 21.7451C350.292 22.8756 349.212 23.8308 347.982 24.5606C346.927 25.1261 345.746 25.4153 344.549 25.4015C342.969 25.4015 341.873 25.0214 341.262 24.2612C340.661 23.5173 340.339 22.5867 340.351 21.6304C340.377 19.9798 340.848 18.3668 341.714 16.9612C342.607 15.4184 343.882 14.1309 345.415 13.222C346.822 12.3266 348.449 11.8393 350.116 11.8142C350.77 11.7634 351.418 11.9665 351.925 12.3811C352.128 12.5621 352.289 12.784 352.399 13.0323C352.509 13.2805 352.564 13.5493 352.562 13.8207C352.552 14.5361 352.345 15.2349 351.964 15.84C351.44 16.7033 350.731 17.4389 349.887 17.9931C349.025 18.5614 348.079 18.9912 347.084 19.2671C346.153 19.4863 345.204 19.6206 344.249 19.6684ZM344.377 18.9295C345.034 18.8469 345.677 18.6755 346.288 18.4199C346.8 18.1691 347.259 17.8207 347.638 17.3943C348.117 16.87 348.504 16.2693 348.785 15.6171C349.085 14.9874 349.25 14.3016 349.269 13.6042C349.277 13.4884 349.261 13.3723 349.223 13.2629C349.184 13.1534 349.124 13.0528 349.046 12.9672C348.974 12.8915 348.887 12.8319 348.79 12.7924C348.694 12.7529 348.59 12.7343 348.485 12.7378C348.178 12.784 347.883 12.8926 347.619 13.0569C347.355 13.2212 347.128 13.4378 346.95 13.6933C345.723 15.2312 344.844 17.018 344.377 18.9295Z" fill="#0152A2"/>
<path d="M363.571 21.5729L363.998 21.9551C363.243 22.9155 362.325 23.735 361.285 24.3757C360.168 25.0396 358.895 25.3936 357.596 25.4013C356.806 25.4161 356.025 25.2274 355.329 24.8535C354.69 24.5122 354.178 23.9737 353.87 23.3183C353.563 22.6846 353.402 21.9903 353.398 21.2862C353.415 19.6724 353.855 18.0912 354.672 16.6998C355.466 15.2504 356.609 14.022 357.998 13.1262C359.204 12.3049 360.622 11.8492 362.081 11.814C362.947 11.75 363.806 12.0012 364.501 12.5211C364.766 12.7385 364.977 13.0132 365.119 13.3245C365.262 13.6357 365.331 13.9753 365.323 14.3174C365.33 14.9212 365.102 15.5039 364.686 15.9418C364.521 16.1451 364.313 16.3101 364.078 16.4256C363.843 16.541 363.585 16.6042 363.323 16.6106C363.122 16.6178 362.921 16.5835 362.734 16.5101C362.547 16.4367 362.376 16.3257 362.234 16.1838C362.095 16.0544 361.985 15.8975 361.91 15.7231C361.836 15.5487 361.798 15.3607 361.8 15.171C361.809 14.9027 361.884 14.6406 362.017 14.4074C362.15 14.1743 362.338 13.9772 362.565 13.8333C362.915 13.5721 363.094 13.3364 363.094 13.139C363.095 13.0573 363.076 12.9765 363.039 12.9041C363.001 12.8317 362.945 12.77 362.877 12.7249C362.665 12.5637 362.404 12.4825 362.138 12.4956C361.303 12.5143 360.507 12.849 359.909 13.432C358.95 14.3302 358.218 15.4438 357.775 16.6807C357.306 17.8683 357.056 19.1307 357.036 20.4072C356.992 21.2183 357.264 22.0149 357.794 22.6303C358.012 22.8933 358.285 23.1046 358.595 23.2489C358.904 23.3932 359.242 23.467 359.584 23.4648C360.265 23.4484 360.935 23.29 361.552 22.9998C362.308 22.6531 362.992 22.1693 363.571 21.5729Z" fill="#0152A2"/>
<path d="M375.145 5.26562L371.444 18.0885C372.306 16.7666 373.237 15.4908 374.234 14.2665C374.869 13.5001 375.624 12.8418 376.47 12.3173C377.015 12.002 377.63 11.8289 378.26 11.814C378.499 11.8061 378.738 11.8511 378.958 11.9458C379.178 12.0405 379.375 12.1825 379.534 12.3619C379.894 12.76 380.081 13.2845 380.056 13.8206C380.031 14.4706 379.916 15.1139 379.712 15.7316L377.903 21.7959C377.782 22.1401 377.701 22.497 377.661 22.8597C377.663 22.9485 377.7 23.0329 377.763 23.0954C377.791 23.1288 377.826 23.1558 377.866 23.1744C377.905 23.1931 377.948 23.2031 377.992 23.2037C378.118 23.2009 378.239 23.1509 378.33 23.0635C378.692 22.7456 379.004 22.3739 379.253 21.9615C379.343 21.8278 379.476 21.6303 379.667 21.3627L380.222 21.6749C379.645 22.748 378.856 23.6929 377.903 24.4522C377.299 24.887 376.577 25.129 375.833 25.1465C375.331 25.1759 374.837 25.0143 374.45 24.6943C374.29 24.5512 374.163 24.3753 374.077 24.1785C373.992 23.9817 373.949 23.7687 373.953 23.554C373.988 22.9488 374.103 22.351 374.297 21.7768L376.062 15.7125C376.151 15.416 376.207 15.1105 376.228 14.8016C376.223 14.6983 376.18 14.6006 376.107 14.5275C376.034 14.4544 375.936 14.4113 375.833 14.4066C375.279 14.521 374.782 14.8224 374.425 15.2602C372.887 16.8729 371.639 18.7392 370.737 20.7767L369.463 25H365.934L370.603 8.92203C370.756 8.44672 370.852 7.95491 370.889 7.45692C370.893 7.34772 370.869 7.23938 370.819 7.14233C370.768 7.04527 370.694 6.96276 370.603 6.90273C370.259 6.70195 369.858 6.62128 369.463 6.67341L369.564 6.10647L374.304 5.26562H375.145Z" fill="#0152A2"/>
<path d="M389.56 11.814L387.796 17.9165C388.615 16.6432 389.513 15.422 390.484 14.2601C391.127 13.5121 391.881 12.8675 392.72 12.3491C393.255 12.0326 393.863 11.8573 394.484 11.8395C394.724 11.8345 394.961 11.8809 395.181 11.9754C395.4 12.0698 395.597 12.2103 395.758 12.3873C395.937 12.5783 396.075 12.8028 396.166 13.0477C396.256 13.2927 396.298 13.5532 396.287 13.8142C396.263 14.4642 396.147 15.1075 395.943 15.7252L394.121 21.8022C394.008 22.1392 393.931 22.4873 393.892 22.8405C393.894 22.9363 393.933 23.0276 394 23.0953C394.027 23.1291 394.061 23.1568 394.099 23.1766C394.138 23.1963 394.18 23.2077 394.223 23.21C394.333 23.2041 394.437 23.164 394.523 23.0953C394.896 22.7636 395.222 22.3821 395.491 21.9615C395.58 21.8277 395.714 21.6302 395.905 21.3627L396.446 21.6875C395.049 23.9935 393.584 25.1465 392.051 25.1465C391.55 25.1758 391.056 25.0142 390.669 24.6942C390.509 24.5511 390.381 24.3752 390.296 24.1784C390.21 23.9816 390.168 23.7686 390.172 23.554C390.21 22.9498 390.323 22.3527 390.509 21.7767L392.293 15.6997C392.393 15.4138 392.455 15.1162 392.478 14.8143C392.477 14.7616 392.464 14.7099 392.441 14.6626C392.418 14.6153 392.385 14.5736 392.344 14.5404C392.306 14.5013 392.26 14.4705 392.21 14.4497C392.16 14.4289 392.106 14.4185 392.051 14.4193C391.538 14.4974 391.072 14.7602 390.739 15.1582C389.157 16.7926 387.865 18.6838 386.917 20.7512L385.745 24.9745H382.12L384.776 15.8398C384.983 15.221 385.114 14.5793 385.165 13.9288C385.171 13.7843 385.13 13.6416 385.05 13.5211C384.958 13.3987 384.828 13.3093 384.681 13.2663C384.365 13.1861 384.038 13.1539 383.713 13.1708L383.866 12.6293L388.662 11.7949L389.56 11.814Z" fill="#0152A2"/>
<path d="M407.562 11.8139C408.296 11.8095 409.021 11.9868 409.67 12.3298C410.304 12.6487 410.827 13.1531 411.167 13.7758C411.507 14.4055 411.68 15.1116 411.67 15.827C411.652 17.4466 411.213 19.0337 410.396 20.4325C409.593 21.9146 408.425 23.1667 407.001 24.0698C405.744 24.9117 404.271 25.3739 402.759 25.4012C402.206 25.4349 401.653 25.3494 401.136 25.1504C400.62 24.9515 400.152 24.6438 399.765 24.2482C399.06 23.4826 398.681 22.4729 398.707 21.4326C398.698 20.1541 398.967 18.8888 399.497 17.7253C399.992 16.6132 400.67 15.5924 401.504 14.7059C402.306 13.8509 403.253 13.1437 404.3 12.6165C405.308 12.0927 406.426 11.8175 407.562 11.8139ZM406.976 12.5655C406.511 12.5445 406.055 12.7017 405.702 13.0051C405.039 13.6038 404.29 15.001 403.453 17.1966C402.674 19.0847 402.242 21.0981 402.179 23.1398C402.167 23.5381 402.308 23.9257 402.574 24.2227C402.693 24.3559 402.838 24.4626 403 24.5361C403.162 24.6097 403.339 24.6483 403.517 24.6495C403.874 24.6535 404.221 24.5317 404.498 24.3055C405.142 23.6359 405.661 22.8573 406.033 22.0059C406.669 20.7479 407.171 19.4262 407.53 18.0629C407.896 16.7776 408.091 15.4497 408.11 14.1134C408.137 13.7033 408.012 13.2974 407.759 12.9732C407.665 12.8537 407.546 12.7556 407.411 12.6853C407.276 12.615 407.128 12.5742 406.976 12.5655Z" fill="#0152A2"/>
<path d="M421.773 5.26562L417.066 21.2863C416.87 21.8661 416.732 22.4634 416.652 23.0699C416.649 23.1859 416.693 23.298 416.773 23.382C416.805 23.4201 416.845 23.4511 416.89 23.473C416.935 23.4949 416.984 23.5073 417.034 23.5094C417.214 23.5066 417.387 23.4362 417.518 23.312C418.118 22.7669 418.632 22.1332 419.04 21.4328L419.595 21.6876C418.916 22.8786 418.014 23.9276 416.938 24.7771C416.383 25.183 415.715 25.4057 415.027 25.4141C414.484 25.4436 413.951 25.2635 413.537 24.9109C413.362 24.7603 413.221 24.5736 413.126 24.3635C413.03 24.1534 412.981 23.925 412.982 23.6942C413.022 23.1173 413.136 22.5478 413.32 21.9997L417.142 8.87744C417.301 8.41282 417.407 7.93218 417.461 7.44418C417.461 7.33593 417.433 7.2294 417.381 7.13466C417.329 7.03993 417.253 6.9601 417.161 6.90273C416.798 6.69757 416.377 6.61703 415.964 6.67341L416.117 6.13195L420.913 5.29111L421.773 5.26562Z" fill="#0152A2"/>
<path d="M430.227 11.8138C430.963 11.8106 431.689 11.9877 432.341 12.3298C432.974 12.6488 433.494 13.1532 433.832 13.7758C434.174 14.405 434.349 15.111 434.342 15.827C434.32 17.4462 433.881 19.0324 433.068 20.4325C432.263 21.9132 431.094 23.1649 429.672 24.0698C428.415 24.91 426.942 25.372 425.43 25.4011C424.877 25.4374 424.323 25.3531 423.806 25.154C423.289 24.9549 422.822 24.6458 422.436 24.2482C421.73 23.4832 421.348 22.4736 421.372 21.4326C421.367 20.1545 421.636 18.8901 422.162 17.7252C422.662 16.616 423.339 15.596 424.169 14.7058C424.974 13.8537 425.92 13.1469 426.965 12.6165C427.973 12.0941 429.091 11.819 430.227 11.8138ZM429.647 12.5655C429.182 12.5444 428.726 12.7016 428.373 13.005C427.744 13.6038 427.005 15.001 426.156 17.1965C425.377 19.0847 424.945 21.0981 424.882 23.1398C424.869 23.5393 425.013 23.9281 425.283 24.2227C425.401 24.355 425.545 24.4613 425.707 24.5348C425.868 24.6083 426.043 24.6474 426.22 24.6495C426.579 24.6533 426.928 24.5317 427.207 24.3055C427.849 23.6341 428.368 22.8559 428.742 22.0059C429.374 20.7465 429.873 19.4251 430.233 18.0628C430.601 16.7778 430.798 15.4499 430.819 14.1134C430.844 13.7024 430.717 13.2965 430.462 12.9732C430.365 12.8487 430.242 12.7475 430.101 12.677C429.96 12.6064 429.805 12.5683 429.647 12.5655Z" fill="#0152A2"/>
<path d="M446.497 12.6806H450.281L449.822 14.2476H447.86C448.144 14.7314 448.3 15.2795 448.313 15.8401C448.318 16.6878 448.075 17.5185 447.612 18.2289C447.097 18.9955 446.378 19.6024 445.535 19.9807C444.578 20.4175 443.536 20.6352 442.484 20.6177C442.158 20.6138 441.833 20.5926 441.509 20.554C441.153 20.5094 440.764 20.452 440.344 20.3756C439.913 20.5659 439.515 20.8239 439.165 21.14C439.06 21.2526 438.999 21.3998 438.993 21.5541C438.993 21.6391 439.012 21.7231 439.05 21.7994C439.087 21.8757 439.142 21.9422 439.21 21.9936C439.527 22.2474 439.904 22.4142 440.305 22.4777C441.602 22.7239 442.879 23.0624 444.128 23.4906C444.869 23.7707 445.527 24.2355 446.039 24.841C446.473 25.413 446.698 26.1169 446.676 26.8348C446.662 27.4445 446.508 28.0427 446.224 28.5822C445.939 29.1218 445.534 29.5878 445.038 29.9434C443.951 30.831 442.263 31.2748 439.974 31.2748C437.685 31.2748 435.987 30.8947 434.878 30.1345C434.531 29.9344 434.24 29.6494 434.033 29.3063C433.826 28.9632 433.709 28.5731 433.693 28.1725C433.704 27.8647 433.778 27.5623 433.912 27.2848C434.046 27.0074 434.236 26.7608 434.47 26.5609C434.986 26.0704 436.095 25.6309 437.796 25.2869C437.353 25.0707 436.957 24.7699 436.63 24.4015C436.367 24.0865 436.221 23.6905 436.216 23.2803C436.217 22.9594 436.287 22.6425 436.419 22.3504C436.552 22.0583 436.746 21.7977 436.987 21.5859C437.743 20.959 438.606 20.4735 439.535 20.1526C438.739 19.8801 438.04 19.3822 437.522 18.7194C437.1 18.1241 436.877 17.4106 436.885 16.681C436.89 15.8381 437.15 15.0166 437.63 14.3241C438.189 13.5302 438.953 12.9028 439.84 12.5086C440.89 12.0269 442.036 11.7895 443.191 11.8143C443.916 11.804 444.638 11.894 445.338 12.0818C445.755 12.2152 446.147 12.4176 446.497 12.6806ZM438.611 25.599C437.911 25.8186 437.278 26.2108 436.77 26.7393C436.454 27.1086 436.28 27.5783 436.28 28.0642C436.297 28.4001 436.394 28.727 436.564 29.0174C436.733 29.3078 436.97 29.5533 437.254 29.7332C438.184 30.3079 439.273 30.5712 440.363 30.4849C441.259 30.5599 442.155 30.3359 442.911 29.8479C443.157 29.6772 443.36 29.4511 443.502 29.1878C443.645 28.9244 443.724 28.6312 443.733 28.3318C443.735 28.0733 443.669 27.8188 443.54 27.5948C443.411 27.3707 443.225 27.1853 443 27.0578C442.11 26.591 441.157 26.2542 440.172 26.0577C439.535 25.8857 439.019 25.7328 438.611 25.599ZM443.522 12.5086C443.082 12.4986 442.656 12.6635 442.338 12.9672C441.711 13.6267 441.25 14.4259 440.993 15.2987C440.629 16.293 440.435 17.3419 440.42 18.4009C440.409 18.6022 440.439 18.8036 440.508 18.993C440.577 19.1824 440.684 19.3559 440.821 19.5029C440.953 19.6353 441.11 19.7396 441.283 19.8097C441.456 19.8798 441.641 19.9141 441.828 19.9106C442.014 19.9135 442.199 19.8795 442.371 19.8106C442.544 19.7418 442.701 19.6393 442.834 19.5093C443.49 18.7953 443.973 17.9413 444.249 17.0122C444.617 16.0159 444.817 14.9655 444.841 13.9036C444.849 13.7178 444.819 13.5323 444.753 13.3582C444.687 13.1842 444.587 13.0252 444.459 12.8908C444.337 12.7665 444.191 12.6685 444.03 12.6028C443.869 12.5371 443.696 12.505 443.522 12.5086Z" fill="#0152A2"/>
<path d="M450.536 13.0944L454.918 11.8204C455.23 12.185 455.479 12.5982 455.657 13.0435C455.96 13.9455 456.142 14.8837 456.199 15.8336C456.398 18.165 456.536 20.6557 456.613 23.3056C457.87 21.5999 459.034 19.8263 460.097 17.993C460.465 17.4356 460.672 16.7876 460.696 16.1202C460.675 15.9014 460.602 15.6909 460.482 15.5067C460.362 15.3225 460.2 15.1702 460.008 15.0628C459.68 14.8643 459.387 14.6124 459.142 14.3175C459.024 14.0988 458.966 13.8524 458.976 13.604C458.977 13.3715 459.023 13.1414 459.113 12.9268C459.203 12.7123 459.334 12.5176 459.499 12.3537C459.664 12.1899 459.86 12.0601 460.075 11.9719C460.29 11.8837 460.521 11.8387 460.753 11.8395C461.008 11.8382 461.261 11.8902 461.494 11.9923C461.728 12.0943 461.938 12.2441 462.11 12.432C462.296 12.6169 462.444 12.8374 462.543 13.0803C462.643 13.3232 462.693 13.5836 462.69 13.8461C462.659 14.611 462.477 15.3622 462.155 16.0565C461.425 17.553 460.59 18.9962 459.658 20.3754C458.16 22.7365 456.51 24.9984 454.721 27.1468C453.953 28.0825 453.116 28.9598 452.217 29.7712C451.619 30.2852 450.952 30.7139 450.236 31.0452C449.857 31.2227 449.444 31.3161 449.026 31.3192C448.768 31.3224 448.512 31.2732 448.273 31.1747C448.034 31.0762 447.818 30.9303 447.637 30.7459C447.454 30.5725 447.308 30.3631 447.209 30.1307C447.111 29.8982 447.061 29.6479 447.064 29.3954C447.059 29.1515 447.101 28.9088 447.19 28.6815C447.278 28.4541 447.411 28.2465 447.58 28.0704C447.735 27.9017 447.923 27.7671 448.132 27.6749C448.341 27.5828 448.568 27.5353 448.797 27.5353C449.116 27.5517 449.427 27.6426 449.704 27.8008C449.982 27.959 450.219 28.18 450.395 28.4463C450.714 28.8539 450.982 29.0833 451.192 29.0833C451.417 29.079 451.636 29.0153 451.829 28.8985C452.277 28.6063 452.681 28.25 453.026 27.8411C453.084 26.6563 453.109 25.7581 453.109 25.1529C453.109 24.3376 453.071 23.191 452.994 21.7068L452.752 16.2285C452.744 15.4676 452.524 14.724 452.115 14.0818C451.992 13.9256 451.834 13.8005 451.654 13.7164C451.473 13.6324 451.276 13.5917 451.077 13.5977C450.896 13.598 450.715 13.6129 450.536 13.6423V13.0944Z" fill="#0152A2"/>
<path d="M461.154 29.6819L460.822 29.0895C461.81 28.5961 462.722 27.9632 463.53 27.2104C463.779 26.9355 463.924 26.5813 463.937 26.2103C463.904 25.9666 463.822 25.7321 463.696 25.5209C463.57 25.3096 463.403 25.126 463.205 24.9808C462.822 24.6513 462.494 24.2645 462.23 23.8342C462.098 23.5494 462.034 23.2373 462.045 22.9233C462.043 22.624 462.103 22.3276 462.223 22.0532C462.343 21.7788 462.519 21.5327 462.74 21.3308C462.961 21.1187 463.223 20.953 463.51 20.8436C463.796 20.7342 464.102 20.6833 464.409 20.6938C464.722 20.694 465.032 20.7612 465.318 20.8908C465.603 21.0204 465.858 21.2095 466.065 21.4455C466.303 21.7016 466.488 22.0023 466.609 22.3303C466.731 22.6583 466.786 23.007 466.772 23.3565C466.735 24.6454 466.256 25.8825 465.415 26.86C464.259 28.1491 462.792 29.1206 461.154 29.6819Z" fill="#0152A2"/>
<path d="M480.244 6.23398L480.403 5.70526H489.856L489.671 6.23398C488.973 6.18649 488.281 6.38728 487.716 6.80091C487.11 7.47005 486.699 8.29145 486.525 9.17694L482.996 21.5285C482.803 22.0962 482.675 22.6838 482.613 23.2802C482.608 23.4354 482.641 23.5895 482.71 23.7286C482.779 23.8677 482.881 23.9873 483.008 24.0765C483.597 24.3807 484.258 24.5194 484.919 24.4778L484.779 25.0001H475.205L475.364 24.4778C476.109 24.5366 476.851 24.3437 477.473 23.93C478.084 23.2523 478.502 22.4229 478.683 21.5285L482.212 9.17694C482.393 8.61975 482.502 8.0418 482.537 7.45702C482.543 7.29741 482.51 7.13882 482.441 6.99466C482.372 6.85051 482.27 6.72506 482.142 6.62892C481.548 6.35316 480.898 6.21802 480.244 6.23398Z" fill="#0152A2"/>
<path d="M495.347 11.814L493.583 17.9165C494.388 16.6444 495.271 15.4233 496.226 14.2601C496.869 13.5121 497.623 12.8675 498.462 12.3491C498.998 12.0326 499.605 11.8573 500.227 11.8395C500.466 11.8345 500.703 11.8809 500.923 11.9754C501.143 12.0698 501.34 12.2103 501.501 12.3873C501.679 12.5783 501.817 12.8028 501.908 13.0477C501.999 13.2927 502.04 13.5532 502.029 13.8142C502.005 14.4642 501.89 15.1075 501.686 15.7252L499.864 21.8022C499.751 22.1392 499.674 22.4873 499.634 22.8405C499.636 22.9363 499.675 23.0276 499.743 23.0953C499.77 23.1291 499.803 23.1568 499.842 23.1766C499.88 23.1963 499.922 23.2077 499.966 23.21C500.075 23.2041 500.18 23.164 500.265 23.0953C500.654 22.7666 500.995 22.385 501.278 21.9615C501.367 21.8277 501.501 21.6302 501.692 21.3627L502.233 21.6875C500.84 23.9935 499.375 25.1465 497.838 25.1465C497.337 25.1758 496.843 25.0142 496.456 24.6942C496.296 24.5511 496.168 24.3752 496.083 24.1784C495.997 23.9816 495.955 23.7686 495.959 23.554C495.997 22.9498 496.11 22.3527 496.296 21.7767L498.08 15.6997C498.18 15.4138 498.242 15.1162 498.265 14.8143C498.264 14.7616 498.251 14.7099 498.228 14.6626C498.205 14.6153 498.172 14.5736 498.131 14.5404C498.093 14.5013 498.047 14.4705 497.997 14.4497C497.947 14.4289 497.893 14.4185 497.838 14.4193C497.325 14.4974 496.858 14.7602 496.526 15.1582C494.944 16.7926 493.652 18.6838 492.704 20.7512L491.532 24.9745H487.945L490.602 15.8398C490.808 15.221 490.939 14.5793 490.99 13.9288C490.996 13.7843 490.956 13.6416 490.876 13.5211C490.783 13.3987 490.653 13.3093 490.506 13.2663C490.19 13.1861 489.864 13.1539 489.538 13.1708L489.697 12.6293L494.487 11.7949L495.347 11.814Z" fill="#0152A2"/>
<path d="M514.7 21.5729L515.127 21.9551C514.37 22.9158 513.449 23.7353 512.407 24.3757C511.293 25.0385 510.022 25.3925 508.725 25.4013C507.933 25.4152 507.15 25.2266 506.451 24.8535C505.815 24.5082 505.305 23.9709 504.992 23.3183C504.687 22.6842 504.529 21.9898 504.527 21.2863C504.544 19.6724 504.984 18.0912 505.801 16.6998C506.597 15.2454 507.747 14.0159 509.146 13.1262C510.352 12.3049 511.77 11.8492 513.229 11.814C514.093 11.7487 514.951 12 515.643 12.5211C515.907 12.7388 516.118 13.0136 516.26 13.3248C516.403 13.6359 516.473 13.9753 516.465 14.3174C516.472 14.9212 516.244 15.5039 515.828 15.9418C515.661 16.1452 515.452 16.3103 515.216 16.4257C514.98 16.5412 514.721 16.6042 514.458 16.6106C514.257 16.6163 514.057 16.5814 513.87 16.5081C513.683 16.4347 513.513 16.3245 513.369 16.1838C513.231 16.0535 513.122 15.8964 513.048 15.7222C512.973 15.548 512.935 15.3604 512.936 15.171C512.945 14.902 513.02 14.6393 513.154 14.406C513.289 14.1728 513.478 13.9761 513.707 13.8333C514.057 13.5721 514.235 13.3364 514.235 13.139C514.235 13.0576 514.216 12.9774 514.178 12.9053C514.14 12.8332 514.086 12.7713 514.019 12.7249C513.806 12.5656 513.545 12.4846 513.28 12.4956C512.434 12.5167 511.628 12.8636 511.031 13.4638C510.071 14.3611 509.339 15.475 508.897 16.7126C508.426 17.8992 508.175 19.1622 508.158 20.439C508.141 21.2456 508.43 22.0287 508.967 22.6303C509.187 22.8928 509.462 23.1036 509.772 23.2478C510.083 23.392 510.421 23.4661 510.764 23.4648C511.445 23.4484 512.115 23.29 512.732 22.9998C513.468 22.6462 514.135 22.1629 514.7 21.5729Z" fill="#0152A2"/>
<path d="M518.655 20.7321C518.963 20.7269 519.27 20.7846 519.556 20.9018C519.842 21.0189 520.101 21.1931 520.317 21.4137C520.756 21.8521 521.002 22.4468 521.002 23.0668C521.002 23.6868 520.756 24.2814 520.317 24.7198C520.101 24.9393 519.843 25.1128 519.559 25.23C519.274 25.3471 518.969 25.4054 518.661 25.4014C518.344 25.4179 518.027 25.3698 517.73 25.26C517.432 25.1501 517.16 24.9808 516.93 24.7624C516.699 24.544 516.516 24.281 516.391 23.9895C516.266 23.698 516.201 23.384 516.201 23.0668C516.201 22.7495 516.266 22.4355 516.391 22.144C516.516 21.8525 516.699 21.5895 516.93 21.3711C517.16 21.1527 517.432 20.9834 517.73 20.8735C518.027 20.7637 518.344 20.7156 518.661 20.7321H518.655Z" fill="#0152A2"/>
<path d="M283.041 34.6313L283.245 34.9753C282.651 35.2533 282.11 35.6327 281.646 36.0965C281.485 36.2706 281.39 36.4962 281.379 36.7335C281.426 37.0145 281.582 37.2658 281.812 37.4342C282.046 37.6363 282.246 37.8751 282.404 38.1412C282.478 38.2918 282.515 38.4577 282.512 38.6254C282.516 38.8073 282.482 38.9879 282.412 39.1557C282.341 39.3236 282.237 39.4749 282.105 39.6C281.974 39.7339 281.818 39.8393 281.644 39.9094C281.471 39.9796 281.285 40.0131 281.098 40.0077C280.911 40.0108 280.726 39.9738 280.554 39.8991C280.383 39.8243 280.23 39.7137 280.105 39.5745C279.832 39.2687 279.688 38.8692 279.703 38.4597C279.692 37.7688 279.916 37.0945 280.34 36.5487C281.073 35.7009 281.999 35.043 283.041 34.6313ZM286.774 34.6313L286.984 35.0008C286.389 35.2689 285.846 35.6397 285.379 36.0965C285.218 36.2709 285.123 36.4963 285.111 36.7335C285.166 37.0268 285.333 37.2873 285.576 37.4597C285.758 37.5958 285.909 37.769 286.019 37.9678C286.128 38.1665 286.195 38.3863 286.213 38.6126C286.214 38.7965 286.178 38.9786 286.106 39.1482C286.035 39.3178 285.931 39.4714 285.799 39.6C285.675 39.7318 285.525 39.8366 285.358 39.9079C285.192 39.9791 285.012 40.0152 284.831 40.014C284.64 40.0134 284.452 39.9721 284.279 39.893C284.105 39.814 283.95 39.6989 283.825 39.5554C283.54 39.2504 283.386 38.8453 283.398 38.4279C283.402 37.7161 283.652 37.0276 284.105 36.4787C284.817 35.6392 285.738 35.0021 286.774 34.6313Z" fill="#0152A2"/>
<path d="M291.187 46.6329C290.4 46.6707 289.62 46.4734 288.945 46.066C288.378 45.6859 287.935 45.1477 287.671 44.5181C287.396 43.918 287.251 43.2669 287.244 42.607C287.267 41.2735 287.638 39.969 288.321 38.8232C289.012 37.5762 290.009 36.5261 291.219 35.772C292.284 35.0535 293.533 34.6556 294.818 34.6254C295.511 34.6248 296.191 34.8048 296.793 35.1477C297.405 35.49 297.908 35.9977 298.245 36.6128C298.581 37.1941 298.761 37.8524 298.768 38.5238C298.733 40.0559 298.26 41.546 297.404 42.8172C296.656 44.0924 295.603 45.1625 294.34 45.9322C293.368 46.4358 292.281 46.6773 291.187 46.6329ZM294.531 35.3388C294.138 35.3262 293.747 35.407 293.391 35.5745C293.022 35.7857 292.692 36.0595 292.417 36.3835C292.004 36.8783 291.657 37.4243 291.385 38.0079C290.958 38.9246 290.627 39.8831 290.397 40.868C290.124 41.8525 289.97 42.8662 289.939 43.8874C289.897 44.4441 290.055 44.9973 290.385 45.4481C290.524 45.618 290.7 45.754 290.9 45.8456C291.1 45.9372 291.318 45.9821 291.538 45.9768C291.83 45.9807 292.12 45.9264 292.391 45.8171C292.663 45.7077 292.909 45.5455 293.117 45.3398C294.099 44.3268 294.822 43.0923 295.226 41.7407C295.729 40.3877 296.005 38.9605 296.041 37.5174C296.093 36.9238 295.94 36.3304 295.608 35.8357C295.478 35.6768 295.313 35.5495 295.127 35.4634C294.94 35.3774 294.737 35.3348 294.531 35.3388Z" fill="#0152A2"/>
<path d="M303.456 38.5238L302.405 42.1547C302.886 41.3962 303.413 40.6686 303.985 39.9762C304.367 39.5271 304.816 39.1403 305.316 38.8296C305.633 38.6409 305.993 38.5357 306.361 38.5238C306.503 38.5222 306.644 38.5502 306.774 38.6062C306.905 38.6621 307.022 38.7447 307.119 38.8487C307.33 39.0795 307.442 39.3836 307.431 39.6959C307.418 40.0879 307.349 40.476 307.227 40.8489L306.144 44.4607C306.077 44.6677 306.033 44.8812 306.011 45.0977C306.01 45.1262 306.016 45.1544 306.027 45.1807C306.038 45.207 306.054 45.2307 306.074 45.2506C306.089 45.2709 306.108 45.2876 306.13 45.2997C306.152 45.3119 306.177 45.319 306.202 45.3207C306.267 45.3162 306.329 45.2917 306.38 45.2506C306.612 45.0492 306.814 44.8154 306.979 44.5562L307.227 44.1995L307.546 44.397C306.718 45.7899 305.847 46.4864 304.934 46.4864C304.635 46.5053 304.34 46.4071 304.112 46.2125C304.022 46.1247 303.952 46.0182 303.907 45.9005C303.861 45.7828 303.843 45.6566 303.851 45.5309C303.872 45.1709 303.94 44.8152 304.055 44.4734L305.113 40.8616C305.17 40.6927 305.207 40.5172 305.221 40.3393C305.221 40.3078 305.214 40.2766 305.201 40.248C305.188 40.2194 305.168 40.194 305.144 40.1737C305.121 40.1501 305.093 40.1317 305.063 40.1197C305.032 40.1076 304.999 40.1021 304.966 40.1036C304.662 40.1516 304.386 40.3077 304.189 40.5431C303.253 41.5134 302.488 42.6356 301.927 43.8619L301.233 46.4099H299.08L300.66 40.9763C300.774 40.593 300.84 40.1972 300.857 39.7978C300.859 39.7119 300.835 39.6274 300.787 39.5558C300.733 39.4837 300.657 39.4303 300.571 39.4029C300.383 39.361 300.19 39.3438 299.997 39.3519L300.087 39.027L302.94 38.5302L303.456 38.5238Z" fill="#0152A2"/>
<path d="M318.267 34.6313L316.802 39.7274C317.121 39.3487 317.497 39.0221 317.917 38.7591C318.217 38.5987 318.552 38.5155 318.891 38.5171C319.188 38.4973 319.484 38.555 319.751 38.6846C320.018 38.8142 320.246 39.0111 320.414 39.256C320.753 39.7525 320.929 40.3427 320.917 40.9441C320.919 42.4672 320.324 43.9306 319.261 45.0209C318.848 45.509 318.336 45.9026 317.757 46.1752C317.179 46.4478 316.549 46.5929 315.91 46.6007C314.875 46.5706 313.863 46.2885 312.961 45.7789L315.547 36.8035C315.644 36.5235 315.706 36.2325 315.732 35.9372C315.735 35.8733 315.722 35.8095 315.693 35.7525C315.664 35.6954 315.62 35.6471 315.566 35.6123C315.349 35.4863 315.095 35.4369 314.846 35.4722L314.942 35.1282L317.764 34.6313H318.267ZM315.018 45.8681C315.23 46.017 315.48 46.1031 315.738 46.1165C316 46.1264 316.26 46.0647 316.49 45.9382C316.894 45.6613 317.239 45.3061 317.503 44.8935C317.881 44.3334 318.177 43.722 318.382 43.078C318.617 42.3933 318.738 41.6745 318.739 40.9504C318.761 40.6246 318.666 40.3013 318.471 40.0395C318.396 39.9425 318.299 39.864 318.189 39.8099C318.078 39.7558 317.957 39.7276 317.834 39.7274C317.629 39.7326 317.427 39.7875 317.248 39.8873C317.068 39.9871 316.915 40.129 316.802 40.3007C316.506 40.7896 316.291 41.3231 316.165 41.8805L315.018 45.8681Z" fill="#0152A2"/>
<path d="M326.057 38.5236L324.414 44.2566C324.355 44.4342 324.316 44.618 324.299 44.8044C324.298 44.8277 324.303 44.8508 324.313 44.8719C324.323 44.8929 324.338 44.9113 324.357 44.9255C324.377 44.9467 324.402 44.9633 324.429 44.9743C324.457 44.9853 324.486 44.9903 324.516 44.9892C324.777 44.9892 325.121 44.7598 325.56 44.2948C326.325 43.4132 326.979 42.4421 327.51 41.4028L328.28 38.8166L330.421 38.7401L328.796 44.3203C328.711 44.5874 328.643 44.8598 328.593 45.1357C328.598 45.188 328.621 45.237 328.656 45.2758C328.69 45.316 328.738 45.3412 328.79 45.3459C328.877 45.3426 328.959 45.3061 329.019 45.244C329.328 44.9505 329.598 44.6187 329.822 44.2566L330.109 44.4605C329.325 45.8746 328.459 46.5817 327.522 46.5817C327.223 46.5983 326.928 46.5029 326.694 46.3141C326.597 46.2274 326.519 46.1202 326.467 46.0003C326.416 45.8803 326.391 45.7504 326.395 45.6198C326.41 45.2254 326.481 44.8351 326.605 44.4605L327.019 43.0272C326.527 43.7761 325.993 44.497 325.42 45.1866C325.06 45.626 324.63 46.0027 324.146 46.3014C323.843 46.4757 323.502 46.5721 323.153 46.5817C323.008 46.5835 322.865 46.555 322.732 46.4979C322.599 46.4409 322.48 46.3565 322.382 46.2504C322.272 46.1419 322.185 46.0117 322.128 45.868C322.071 45.7244 322.045 45.5704 322.051 45.416C322.066 45.0216 322.137 44.6314 322.261 44.2566L323.216 40.8741C323.334 40.5098 323.413 40.134 323.452 39.753C323.452 39.6732 323.428 39.5954 323.382 39.53C323.324 39.4581 323.247 39.4049 323.159 39.3772C322.969 39.3354 322.774 39.3183 322.579 39.3262L322.662 39.0013L325.548 38.5045L326.057 38.5236Z" fill="#0152A2"/>
<path d="M340.536 34.6316L337.79 44.0975C337.668 44.4473 337.579 44.8076 337.523 45.174C337.524 45.2342 337.55 45.2914 337.593 45.3332C337.612 45.3541 337.634 45.371 337.659 45.383C337.684 45.395 337.712 45.4019 337.74 45.4033C337.861 45.3911 337.975 45.3397 338.064 45.2568C338.362 44.9971 338.62 44.6944 338.829 44.3586L339.135 44.5179C338.34 45.9066 337.466 46.6009 336.51 46.6009C336.224 46.619 335.942 46.5228 335.727 46.3333C335.635 46.2455 335.564 46.1393 335.517 46.0218C335.47 45.9044 335.448 45.7782 335.453 45.6517C335.476 45.2656 335.551 44.8843 335.676 44.5179L335.924 43.6579C335.466 44.5891 334.845 45.4305 334.089 46.1422C333.769 46.4178 333.365 46.5791 332.943 46.6009C332.737 46.6031 332.533 46.5577 332.347 46.4682C332.162 46.3787 331.999 46.2475 331.873 46.0849C331.552 45.6522 331.396 45.119 331.433 44.5816C331.44 43.7208 331.631 42.8716 331.994 42.0909C332.312 41.3488 332.742 40.6593 333.268 40.0461C333.659 39.5756 334.132 39.1787 334.663 38.874C335.062 38.6497 335.511 38.5292 335.969 38.5237C336.172 38.5209 336.373 38.5667 336.555 38.6574C336.779 38.7911 336.977 38.9636 337.141 39.167L337.778 37.0585C337.9 36.698 337.977 36.3235 338.007 35.9438C338.007 35.878 337.994 35.8128 337.968 35.7524C337.941 35.6921 337.903 35.6379 337.854 35.5934C337.741 35.4961 337.595 35.4459 337.446 35.4533C337.347 35.4455 337.247 35.4455 337.147 35.4533L337.236 35.1221L340.02 34.6061L340.536 34.6316ZM336.816 39.9951C336.837 39.7285 336.765 39.4628 336.612 39.2435C336.557 39.1708 336.485 39.1118 336.404 39.071C336.322 39.0301 336.232 39.0085 336.141 39.0078C335.918 39.0243 335.71 39.1218 335.555 39.2817C334.983 39.9116 334.549 40.6535 334.281 41.4603C333.9 42.3324 333.684 43.2676 333.644 44.2185C333.628 44.4277 333.677 44.6367 333.784 44.8173C333.818 44.8729 333.866 44.9193 333.923 44.9526C333.979 44.9859 334.043 45.005 334.109 45.0084C334.333 44.9969 334.544 44.9014 334.701 44.7408C335.316 44.1061 335.796 43.3545 336.115 42.5304C336.514 41.7399 336.752 40.8782 336.816 39.9951Z" fill="#0152A2"/>
<path d="M346.448 39.0395H348.703L348.441 39.9695H347.276C347.442 40.2588 347.534 40.585 347.543 40.9187C347.545 41.4221 347.401 41.9153 347.129 42.3392C346.822 42.7935 346.394 43.1531 345.893 43.3775C345.325 43.6422 344.705 43.775 344.078 43.7661C343.884 43.7648 343.691 43.7521 343.498 43.7279C343.288 43.7279 343.059 43.6705 342.81 43.6259C342.554 43.7388 342.318 43.8914 342.11 44.0782C342.047 44.146 342.01 44.2342 342.008 44.3267C342.007 44.3772 342.018 44.4272 342.04 44.4726C342.062 44.518 342.095 44.5575 342.135 44.5878C342.321 44.7331 342.54 44.8314 342.772 44.8745C343.543 45.0195 344.303 45.2196 345.046 45.4733C345.489 45.6405 345.882 45.9191 346.186 46.2823C346.446 46.6216 346.581 47.04 346.569 47.4671C346.56 47.8295 346.468 48.185 346.299 48.5056C346.13 48.8262 345.889 49.1031 345.594 49.3144C344.709 49.9083 343.65 50.1865 342.587 50.1043C341.532 50.1798 340.478 49.9451 339.555 49.4291C339.35 49.3078 339.178 49.137 339.056 48.9323C338.933 48.7275 338.864 48.4953 338.854 48.257C338.86 48.0746 338.904 47.8954 338.983 47.7309C339.062 47.5663 339.174 47.4201 339.313 47.3015C339.902 46.8926 340.578 46.6266 341.288 46.5243C341.026 46.3985 340.792 46.2208 340.6 46.002C340.451 45.8218 340.364 45.5985 340.351 45.365C340.353 45.176 340.394 44.9894 340.472 44.8171C340.55 44.6449 340.663 44.4909 340.804 44.3649C341.253 43.991 341.767 43.7018 342.32 43.5113C341.849 43.3513 341.434 43.0568 341.129 42.6641C340.879 42.3083 340.749 41.882 340.759 41.4474C340.762 40.9458 340.917 40.4569 341.205 40.046C341.535 39.5759 341.986 39.204 342.511 38.9694C343.136 38.6844 343.818 38.5429 344.505 38.5554C344.935 38.548 345.364 38.6017 345.779 38.7146C346.018 38.786 346.244 38.8958 346.448 39.0395ZM341.766 46.7218C341.349 46.8494 340.971 47.0819 340.67 47.397C340.482 47.6151 340.378 47.8928 340.377 48.1805C340.389 48.38 340.448 48.5739 340.548 48.7466C340.649 48.9192 340.789 49.0657 340.957 49.1743C341.509 49.517 342.156 49.6733 342.804 49.6202C343.344 49.6654 343.883 49.531 344.339 49.238C344.481 49.1331 344.598 48.9971 344.68 48.8403C344.761 48.6835 344.806 48.5101 344.81 48.3334C344.809 48.1816 344.768 48.0328 344.69 47.902C344.613 47.7712 344.503 47.6629 344.371 47.5881C343.846 47.3092 343.284 47.1076 342.702 46.9893C342.32 46.8662 342.008 46.777 341.766 46.7218ZM344.683 38.9376C344.423 38.9304 344.171 39.0267 343.982 39.2051C343.608 39.5976 343.333 40.0736 343.18 40.5938C342.961 41.1856 342.845 41.8103 342.836 42.4411C342.83 42.6769 342.917 42.9055 343.078 43.0781C343.156 43.156 343.25 43.217 343.353 43.2575C343.456 43.2981 343.566 43.3172 343.677 43.3138C343.787 43.3161 343.897 43.2965 344 43.256C344.102 43.2155 344.196 43.1551 344.275 43.0781C344.666 42.6544 344.953 42.1465 345.116 41.5939C345.335 41.002 345.454 40.3776 345.467 39.7466C345.475 39.5313 345.4 39.3211 345.256 39.1605C345.181 39.086 345.092 39.0278 344.993 38.9894C344.894 38.951 344.789 38.9334 344.683 38.9376Z" fill="#0152A2"/>
<path d="M351.118 43.1927C351.075 43.4925 351.05 43.7945 351.041 44.0972C351.033 44.2821 351.061 44.4667 351.125 44.6406C351.188 44.8144 351.285 44.974 351.411 45.11C351.54 45.2388 351.694 45.3393 351.864 45.4051C352.034 45.471 352.216 45.5006 352.398 45.4922C352.81 45.4882 353.215 45.3902 353.583 45.2056C354.09 44.9364 354.558 44.5976 354.972 44.1991L355.22 44.4284C354.697 45.1051 354.048 45.674 353.309 46.1038C352.682 46.4385 351.981 46.6094 351.271 46.6006C350.915 46.6423 350.554 46.6033 350.216 46.4864C349.877 46.3695 349.569 46.1777 349.315 45.9254C348.959 45.4812 348.768 44.9276 348.774 44.3584C348.792 43.3792 349.071 42.4225 349.583 41.5874C350.114 40.6696 350.87 39.9023 351.78 39.3579C352.624 38.826 353.598 38.5372 354.596 38.5234C354.984 38.4965 355.369 38.6171 355.672 38.861C355.791 38.9689 355.884 39.101 355.947 39.2483C356.01 39.3956 356.04 39.5546 356.035 39.7146C356.031 40.1413 355.907 40.5582 355.679 40.9186C355.367 41.4299 354.944 41.8651 354.443 42.1926C353.931 42.5251 353.37 42.7745 352.78 42.9315C352.235 43.0681 351.679 43.1555 351.118 43.1927ZM351.194 42.7531C351.592 42.7055 351.982 42.6048 352.354 42.4537C352.659 42.2942 352.931 42.078 353.156 41.8167C353.44 41.5043 353.67 41.147 353.838 40.7593C354.017 40.3849 354.115 39.9767 354.124 39.5617C354.128 39.4943 354.119 39.4267 354.096 39.3632C354.073 39.2997 354.037 39.2415 353.991 39.1923C353.948 39.1483 353.896 39.1138 353.839 39.0908C353.782 39.0677 353.721 39.0568 353.659 39.0585C353.477 39.0852 353.301 39.1487 353.143 39.245C352.986 39.3414 352.849 39.4686 352.742 39.6191C352.006 40.5397 351.478 41.6089 351.194 42.7531Z" fill="#0152A2"/>
<path d="M361.067 36.4599L360.392 38.7595H361.5L361.182 39.7341H360.092L358.678 44.639C358.603 44.8636 358.558 45.0971 358.544 45.3334C358.545 45.4045 358.572 45.4728 358.621 45.5245C358.642 45.5476 358.667 45.5662 358.696 45.5794C358.724 45.5925 358.755 45.5998 358.786 45.6009C358.896 45.5973 359.002 45.5569 359.086 45.4862C359.436 45.1882 359.741 44.8406 359.99 44.4543L360.29 44.639C359.981 45.2243 359.546 45.7334 359.016 46.1296C358.612 46.4206 358.131 46.5848 357.633 46.601C357.31 46.6204 356.991 46.5156 356.742 46.308C356.638 46.2151 356.556 46.101 356.501 45.9734C356.446 45.8459 356.42 45.7079 356.423 45.5691C356.441 45.1364 356.515 44.7079 356.646 44.295L357.997 39.7341H356.844L357.016 39.0971C357.662 38.8685 358.275 38.5535 358.837 38.1607C359.497 37.6566 360.099 37.082 360.634 36.4471L361.067 36.4599Z" fill="#0152A2"/>
<path d="M362.073 43.8298C362.256 43.8281 362.437 43.8626 362.606 43.9314C362.776 44.0001 362.929 44.1016 363.059 44.2302C363.189 44.3587 363.292 44.5116 363.362 44.6802C363.432 44.8487 363.468 45.0295 363.468 45.2121C363.473 45.3884 363.441 45.5637 363.377 45.7278C363.312 45.8918 363.216 46.0414 363.093 46.1676C362.965 46.2995 362.811 46.4037 362.641 46.4738C362.471 46.5439 362.289 46.5784 362.105 46.5753C361.923 46.5783 361.741 46.5437 361.572 46.4736C361.404 46.4034 361.251 46.2993 361.124 46.1676C360.93 45.9743 360.797 45.7273 360.743 45.4583C360.689 45.1892 360.716 44.9101 360.821 44.6567C360.927 44.4032 361.105 44.1868 361.334 44.035C361.562 43.8832 361.831 43.8029 362.105 43.8043L362.073 43.8298Z" fill="#0152A2"/>
<path d="M366.405 43.83C366.588 43.8283 366.769 43.8628 366.938 43.9315C367.107 44.0002 367.261 44.1018 367.391 44.2303C367.521 44.3588 367.624 44.5118 367.694 44.6803C367.764 44.8489 367.8 45.0297 367.8 45.2123C367.804 45.395 367.769 45.5766 367.699 45.7454C367.629 45.9142 367.524 46.0667 367.393 46.1932C367.265 46.3251 367.111 46.4293 366.941 46.4994C366.771 46.5695 366.589 46.6041 366.405 46.6009C366.136 46.5958 365.874 46.5125 365.651 46.3612C365.428 46.2098 365.255 45.997 365.151 45.7486C365.047 45.5002 365.017 45.2269 365.066 44.962C365.114 44.6971 365.239 44.4521 365.424 44.2567C365.55 44.1222 365.702 44.015 365.87 43.9415C366.039 43.8681 366.221 43.8301 366.405 43.83Z" fill="#0152A2"/>
<path d="M370.736 43.83C370.919 43.8283 371.1 43.8628 371.269 43.9315C371.438 44.0002 371.592 44.1018 371.722 44.2303C371.852 44.3588 371.955 44.5118 372.025 44.6803C372.095 44.8489 372.131 45.0297 372.131 45.2123C372.135 45.395 372.1 45.5766 372.03 45.7454C371.96 45.9142 371.856 46.0667 371.724 46.1932C371.596 46.3251 371.442 46.4293 371.272 46.4994C371.102 46.5695 370.92 46.6041 370.736 46.6009C370.467 46.5958 370.205 46.5125 369.982 46.3612C369.76 46.2098 369.586 45.997 369.482 45.7486C369.378 45.5002 369.348 45.2269 369.397 44.962C369.445 44.6971 369.57 44.4521 369.755 44.2567C369.881 44.1222 370.033 44.015 370.201 43.9415C370.37 43.8681 370.552 43.8301 370.736 43.83Z" fill="#0152A2"/>
<path d="M383.114 46.6326C382.327 46.672 381.546 46.4745 380.872 46.0656C380.303 45.687 379.86 45.1483 379.598 44.5177C379.326 43.9166 379.181 43.2662 379.171 42.6067C379.196 41.2735 379.567 39.9698 380.247 38.8229C380.938 37.5759 381.936 36.5257 383.146 35.7716C384.212 35.0538 385.46 34.656 386.745 34.625C387.437 34.6238 388.118 34.8039 388.72 35.1473C389.333 35.4879 389.837 35.9961 390.172 36.6125C390.511 37.1925 390.691 37.8516 390.694 38.5235C390.663 40.0561 390.19 41.547 389.331 42.8169C388.585 44.0916 387.534 45.1618 386.274 45.9318C385.299 46.4352 384.21 46.6766 383.114 46.6326ZM386.452 35.3385C386.061 35.3259 385.672 35.4067 385.318 35.5741C384.946 35.7833 384.613 36.0573 384.337 36.3831C383.925 36.878 383.578 37.4239 383.305 38.0075C382.881 38.9254 382.55 39.8836 382.318 40.8677C382.045 41.8522 381.891 42.8659 381.859 43.8871C381.818 44.4437 381.976 44.9969 382.305 45.4477C382.444 45.6177 382.621 45.7536 382.82 45.8452C383.02 45.9369 383.238 45.9817 383.458 45.9764C383.75 45.9804 384.041 45.9261 384.312 45.8167C384.583 45.7074 384.83 45.5451 385.038 45.3394C386.021 44.3269 386.747 43.0925 387.153 41.7404C387.653 40.3865 387.928 38.9598 387.968 37.517C388.018 36.9227 387.863 36.329 387.528 35.8353C387.399 35.6761 387.234 35.5485 387.048 35.4624C386.861 35.3763 386.657 35.3339 386.452 35.3385Z" fill="#0152A2"/>
<path d="M395.376 38.5238L394.306 42.1547C394.788 41.3957 395.317 40.6681 395.892 39.9762C396.271 39.5275 396.718 39.1407 397.217 38.8296C397.536 38.6409 397.897 38.5357 398.268 38.5238C398.409 38.5223 398.549 38.5504 398.678 38.6063C398.808 38.6623 398.924 38.7449 399.019 38.8487C399.125 38.9622 399.207 39.0956 399.26 39.241C399.314 39.3864 399.338 39.5411 399.332 39.6959C399.318 40.0879 399.249 40.476 399.128 40.8489L398.045 44.4607C397.978 44.6677 397.933 44.8812 397.911 45.0977C397.911 45.1262 397.916 45.1544 397.927 45.1807C397.938 45.207 397.954 45.2307 397.975 45.2506C398.008 45.2907 398.056 45.3159 398.109 45.3206C398.172 45.3161 398.232 45.2916 398.281 45.2506C398.524 45.0499 398.738 44.8162 398.918 44.5562L399.16 44.1995L399.484 44.397C398.635 45.7899 397.762 46.4864 396.866 46.4864C396.569 46.505 396.277 46.4067 396.051 46.2125C395.955 46.1286 395.878 46.0247 395.826 45.9081C395.775 45.7914 395.749 45.6648 395.752 45.5372C395.775 45.1776 395.844 44.8224 395.955 44.4798L397.013 40.868C397.071 40.6991 397.107 40.5236 397.121 40.3456C397.121 40.3141 397.114 40.283 397.101 40.2544C397.088 40.2258 397.069 40.2004 397.045 40.18C397.022 40.1565 396.994 40.1381 396.963 40.126C396.932 40.114 396.899 40.1085 396.866 40.1099C396.563 40.1579 396.287 40.314 396.089 40.5495C395.153 41.5185 394.39 42.6411 393.834 43.8683L393.14 46.4163H390.98L392.56 40.9826C392.681 40.5981 392.754 40.2002 392.777 39.7978C392.781 39.7125 392.759 39.6279 392.713 39.5558C392.656 39.4838 392.578 39.4306 392.49 39.4029C392.302 39.361 392.109 39.3438 391.917 39.3519L392.006 39.027L394.86 38.5302L395.376 38.5238Z" fill="#0152A2"/>
<path d="M409.683 36.4596L409.001 38.7592H410.11L409.817 39.7338H408.721L407.313 44.6388C407.234 44.8626 407.187 45.0963 407.173 45.3331C407.173 45.4042 407.201 45.4725 407.25 45.5242C407.271 45.5481 407.298 45.5672 407.328 45.5803C407.357 45.5935 407.389 45.6004 407.422 45.6006C407.529 45.5956 407.632 45.5553 407.715 45.486C408.067 45.1885 408.374 44.8408 408.625 44.454L408.919 44.6388C408.612 45.2252 408.176 45.7348 407.645 46.1294C407.244 46.4209 406.764 46.5852 406.269 46.6007C405.945 46.6201 405.626 46.5153 405.377 46.3077C405.272 46.216 405.189 46.102 405.134 45.9742C405.079 45.8464 405.053 45.7079 405.058 45.5688C405.073 45.1363 405.146 44.7078 405.275 44.2948L406.613 39.7211H405.466L405.632 39.0841C406.28 38.8541 406.894 38.5393 407.46 38.1477C408.118 37.6448 408.719 37.0701 409.25 36.4341L409.683 36.4596Z" fill="#0152A2"/>
<path d="M413.945 38.5235L412.206 44.5368C412.136 44.7564 412.089 44.9827 412.066 45.2121C412.066 45.2445 412.073 45.2764 412.086 45.306C412.099 45.3356 412.119 45.3622 412.142 45.3841C412.161 45.4088 412.185 45.429 412.213 45.4433C412.24 45.4576 412.271 45.4657 412.302 45.4669C412.41 45.4636 412.513 45.4179 412.588 45.3395C412.946 45.0064 413.255 44.6247 413.506 44.2056L413.792 44.3776C412.943 45.8639 412.038 46.605 411.079 46.6007C410.768 46.6097 410.465 46.5004 410.231 46.295C410.126 46.1944 410.042 46.0726 409.986 45.9377C409.93 45.8027 409.903 45.6575 409.907 45.5115C409.918 45.2405 409.967 44.9725 410.053 44.7152L411.225 40.6702C411.321 40.386 411.378 40.0904 411.397 39.7912C411.395 39.7272 411.38 39.6645 411.351 39.6072C411.322 39.55 411.282 39.4998 411.232 39.4599C411.108 39.3599 410.951 39.3099 410.792 39.3198H410.493L410.601 38.9822L413.416 38.5235H413.945ZM413.416 34.6314C413.657 34.6436 413.888 34.7235 414.085 34.8618C414.282 35.0001 414.435 35.1912 414.528 35.413C414.62 35.6349 414.648 35.8784 414.608 36.1154C414.568 36.3525 414.462 36.5734 414.302 36.7526C414.187 36.8704 414.049 36.9638 413.897 37.0273C413.745 37.0908 413.581 37.123 413.416 37.1221C413.254 37.123 413.094 37.0907 412.945 37.0272C412.796 36.9636 412.662 36.8702 412.55 36.7526C412.324 36.5157 412.198 36.2009 412.198 35.8736C412.198 35.5462 412.324 35.2314 412.55 34.9945C412.662 34.8781 412.797 34.7859 412.946 34.7234C413.095 34.661 413.255 34.6297 413.416 34.6314Z" fill="#0152A2"/>
<path d="M418.945 38.5236L417.875 42.1609C418.363 41.3793 418.893 40.6245 419.461 39.8995C419.803 39.4638 420.214 39.0872 420.678 38.7848C420.972 38.6182 421.302 38.5284 421.64 38.5236C421.789 38.5092 421.939 38.532 422.076 38.5898C422.214 38.6476 422.336 38.7387 422.43 38.8548C422.592 39.0619 422.68 39.3178 422.678 39.581C422.654 39.9947 422.577 40.4035 422.449 40.7977L422.067 42.1609C422.55 41.3804 423.08 40.6295 423.653 39.9123C424.007 39.4518 424.438 39.0553 424.927 38.7402C425.172 38.5968 425.452 38.522 425.736 38.5236C425.875 38.5206 426.013 38.5456 426.142 38.5971C426.271 38.6485 426.389 38.7253 426.487 38.823C426.589 38.9259 426.668 39.0485 426.721 39.1832C426.774 39.318 426.798 39.462 426.793 39.6065C426.774 40.0833 426.689 40.555 426.538 41.0079L425.602 44.1929C425.495 44.485 425.422 44.7885 425.385 45.0975C425.388 45.1457 425.408 45.1912 425.443 45.2249C425.458 45.2423 425.476 45.2564 425.497 45.2663C425.518 45.2762 425.541 45.2816 425.564 45.2822C425.624 45.2827 425.682 45.2625 425.729 45.2249C425.97 45.0119 426.184 44.7702 426.366 44.5051L426.596 44.1929L426.882 44.3777C426.582 44.9988 426.147 45.545 425.608 45.9765C425.247 46.275 424.802 46.4532 424.334 46.4861C424.032 46.5013 423.735 46.3985 423.506 46.1995C423.411 46.1217 423.334 46.0247 423.279 45.915C423.224 45.8052 423.193 45.6851 423.188 45.5625C423.214 45.1876 423.287 44.8175 423.404 44.4605L424.36 41.1608C424.45 40.8828 424.514 40.5971 424.551 40.3072C424.549 40.2852 424.544 40.2638 424.534 40.2441C424.524 40.2244 424.51 40.2069 424.494 40.1925C424.478 40.1759 424.459 40.1628 424.439 40.154C424.418 40.1452 424.395 40.141 424.373 40.1416C424.297 40.1403 424.223 40.1578 424.156 40.1925C423.968 40.3114 423.8 40.4598 423.659 40.6321C423.31 41.0342 422.988 41.4599 422.697 41.9061C422.378 42.3645 422.088 42.8433 421.831 43.3393C421.639 43.773 421.48 44.2201 421.353 44.6771L420.837 46.4224H418.697L420.283 40.8996C420.349 40.6926 420.392 40.479 420.41 40.2626C420.41 40.2414 420.404 40.2206 420.394 40.2019C420.384 40.1831 420.37 40.1668 420.353 40.1543C420.339 40.1382 420.321 40.1253 420.301 40.1165C420.281 40.1077 420.26 40.1033 420.238 40.1034C420.028 40.1034 419.703 40.3709 419.251 40.9187C418.493 41.8568 417.851 42.8835 417.34 43.9763L416.652 46.4033H414.499L416.085 40.9633C416.212 40.5946 416.294 40.2116 416.327 39.8231C416.328 39.7392 416.304 39.657 416.257 39.5874C416.2 39.5155 416.122 39.4623 416.034 39.4345C415.844 39.392 415.649 39.3748 415.455 39.3835L415.537 39.0587L418.423 38.5618L418.945 38.5236Z" fill="#0152A2"/>
<path d="M430.52 43.193C430.479 43.493 430.455 43.795 430.45 44.0976C430.44 44.282 430.468 44.4664 430.53 44.6402C430.592 44.8141 430.688 44.9738 430.813 45.1104C430.942 45.2392 431.096 45.3397 431.266 45.4055C431.436 45.4713 431.618 45.501 431.8 45.4926C432.214 45.488 432.621 45.39 432.991 45.206C433.495 44.9348 433.961 44.5962 434.373 44.1995L434.628 44.4288C434.104 45.1037 433.455 45.6723 432.717 46.1042C432.09 46.4389 431.389 46.6098 430.679 46.601C430.323 46.6427 429.962 46.6037 429.624 46.4868C429.285 46.3699 428.977 46.1781 428.723 45.9258C428.367 45.4816 428.176 44.928 428.182 44.3588C428.2 43.3795 428.479 42.4229 428.991 41.5878C429.522 40.67 430.278 39.9027 431.188 39.3583C432.03 38.8275 433.002 38.5388 433.998 38.5238C434.386 38.4956 434.771 38.6163 435.074 38.8614C435.192 38.9693 435.286 39.1014 435.349 39.2486C435.411 39.3959 435.442 39.555 435.437 39.715C435.433 40.1417 435.309 40.5586 435.081 40.9189C434.769 41.4303 434.346 41.8655 433.845 42.1929C433.333 42.5255 432.772 42.7749 432.182 42.9319C431.637 43.0685 431.08 43.1559 430.52 43.193ZM430.602 42.7535C430.998 42.7051 431.386 42.6045 431.755 42.4541C432.062 42.2963 432.335 42.0799 432.558 41.8171C432.842 41.5047 433.072 41.1474 433.24 40.7597C433.419 40.3853 433.517 39.9771 433.526 39.5621C433.53 39.4947 433.52 39.4271 433.497 39.3636C433.474 39.3001 433.439 39.2419 433.392 39.1927C433.35 39.1484 433.298 39.1136 433.241 39.0906C433.184 39.0676 433.123 39.0567 433.061 39.0589C432.878 39.0856 432.703 39.1491 432.545 39.2454C432.388 39.3417 432.251 39.469 432.144 39.6194C431.412 40.5402 430.89 41.6099 430.615 42.7535H430.602Z" fill="#0152A2"/>
<path d="M437.763 40.0143L437.553 39.6575C438.141 39.387 438.68 39.0187 439.145 38.5683C439.306 38.3936 439.4 38.1683 439.413 37.9313C439.387 37.7831 439.332 37.6415 439.251 37.5147C439.17 37.3879 439.065 37.2783 438.941 37.1923C438.76 37.0559 438.61 36.8826 438.5 36.6839C438.39 36.4852 438.323 36.2656 438.304 36.0394C438.303 35.8562 438.338 35.6746 438.41 35.5059C438.481 35.3372 438.586 35.1848 438.718 35.0584C438.842 34.9251 438.992 34.8189 439.158 34.7465C439.325 34.6741 439.505 34.6372 439.687 34.638C439.877 34.639 440.066 34.6805 440.239 34.7595C440.413 34.8386 440.567 34.9534 440.693 35.0966C440.978 35.3994 441.134 35.8018 441.126 36.2177C441.122 36.9287 440.87 37.6159 440.413 38.1606C439.704 38.9961 438.791 39.6346 437.763 40.0143ZM441.502 40.0143L441.298 39.6703C441.889 39.3921 442.427 39.0151 442.891 38.5555C443.051 38.3802 443.145 38.1553 443.158 37.9185C443.101 37.6481 442.944 37.4092 442.719 37.2497C442.485 37.0511 442.287 36.8141 442.133 36.549C442.055 36.3931 442.017 36.2199 442.024 36.0457C442.022 35.8655 442.056 35.6867 442.125 35.5202C442.194 35.3538 442.297 35.2031 442.426 35.0775C442.556 34.9447 442.712 34.84 442.884 34.7698C443.056 34.6997 443.24 34.6657 443.426 34.6698C443.614 34.6674 443.8 34.7047 443.972 34.7794C444.145 34.854 444.299 34.9643 444.426 35.103C444.701 35.4104 444.847 35.8119 444.834 36.2241C444.853 36.9163 444.628 37.5931 444.197 38.1351C443.466 38.9759 442.541 39.6254 441.502 40.027V40.0143Z" fill="#0152A2"/>
</g>
<defs>
<clipPath id="clip0_74_411">
<rect width="521" height="52.8714" fill="white" transform="translate(0 0.940186)"/>
</clipPath>
</defs>
</svg>
