<svg width="349" height="106" viewBox="0 0 349 106" fill="none" xmlns="http://www.w3.org/2000/svg">
<path d="M140.154 54.4244V33.7231H147.135V54.479L140.154 54.4244Z" fill="white"/>
<path d="M161.882 54.4242V44.2975C161.906 43.5313 161.713 42.7739 161.325 42.1127C161.166 41.8526 160.943 41.6376 160.677 41.4884C160.411 41.3392 160.112 41.2608 159.807 41.2606C158.937 41.2685 158.08 41.4661 157.294 41.8396C156.722 42.0837 156.173 42.3799 155.656 42.7245V54.4242H150.041V37.5683H154.902L155.372 39.6875C156.275 38.9024 157.31 38.2846 158.43 37.8632C159.587 37.3868 160.828 37.149 162.079 37.1641C162.827 37.1103 163.577 37.2214 164.278 37.4894C164.978 37.7574 165.611 38.1759 166.132 38.7153C167.11 39.9997 167.591 41.5942 167.486 43.2051V54.4242H161.882Z" fill="white"/>
<path d="M181.841 34.5642C181.728 34.5181 181.611 34.4816 181.491 34.455C181.321 34.4253 181.152 34.3814 180.989 34.3239L180.344 34.2256C180.072 34.2068 179.798 34.2068 179.525 34.2256C179.311 34.2102 179.097 34.2381 178.894 34.3076C178.691 34.377 178.505 34.4866 178.345 34.6298C178.187 34.8027 178.067 35.0066 177.991 35.2285C177.916 35.4503 177.888 35.6854 177.908 35.9188V37.6121H182.278V40.6708H177.908V56.5983H172.304V40.6271H168.732V37.5684H172.381V35.2961C172.346 34.6375 172.473 33.9804 172.751 33.3823C173.029 32.7843 173.449 32.2636 173.976 31.866C175.244 31.015 176.754 30.5973 178.28 30.6752H179.372L180.366 30.7626C180.736 30.8173 181.102 30.9013 181.459 31.0139L182.354 31.3198L181.841 34.5642Z" fill="white"/>
<path d="M184.496 54.4243V37.5683H190.111V54.4243H184.496ZM189.575 34.9574C189.086 35.3111 188.497 35.5015 187.893 35.5015C187.289 35.5015 186.7 35.3111 186.211 34.9574C186.008 34.7645 185.846 34.5324 185.736 34.2751C185.625 34.0178 185.568 33.7408 185.568 33.4608C185.568 33.1808 185.625 32.9038 185.736 32.6465C185.846 32.3892 186.008 32.1571 186.211 31.9642C186.703 31.603 187.298 31.4082 187.909 31.4082C188.52 31.4082 189.115 31.603 189.608 31.9642C189.812 32.1551 189.973 32.3873 190.081 32.6453C190.188 32.9034 190.239 33.1814 190.231 33.4608C190.239 33.7432 190.184 34.0239 190.071 34.2826C189.958 34.5414 189.788 34.7719 189.575 34.9574Z" fill="white"/>
<path d="M204.782 54.4246V44.2979C204.806 43.5317 204.612 42.7742 204.224 42.1131C204.067 41.8515 203.844 41.6354 203.578 41.4859C203.312 41.3365 203.011 41.259 202.706 41.261C201.837 41.2713 200.98 41.4687 200.193 41.84C199.622 42.0867 199.074 42.3828 198.555 42.7248V54.4246H192.951V37.5686H197.801L198.271 39.6879C199.175 38.9052 200.211 38.2877 201.33 37.8636C202.487 37.3891 203.727 37.1514 204.978 37.1644C205.728 37.112 206.479 37.2237 207.181 37.4916C207.883 37.7595 208.518 38.1772 209.042 38.7157C210.015 40.0028 210.495 41.5952 210.397 43.2055V54.4246H204.782Z" fill="white"/>
<path d="M213.193 54.4242V37.5682H218.797V54.4242H213.193ZM218.273 34.9573C217.779 35.3195 217.182 35.5147 216.569 35.5147C215.956 35.5147 215.359 35.3195 214.865 34.9573C214.662 34.7644 214.5 34.5323 214.39 34.275C214.279 34.0177 214.222 33.7407 214.222 33.4607C214.222 33.1807 214.279 32.9037 214.39 32.6464C214.5 32.3891 214.662 32.157 214.865 31.9641C215.359 31.602 215.956 31.4067 216.569 31.4067C217.182 31.4067 217.779 31.602 218.273 31.9641C218.474 32.1568 218.633 32.3896 218.738 32.6474C218.843 32.9052 218.893 33.1823 218.885 33.4607C218.896 33.7395 218.847 34.0174 218.742 34.2756C218.636 34.5338 218.476 34.7663 218.273 34.9573Z" fill="white"/>
<path d="M233.042 54.5114C232.594 54.6097 232.147 54.6862 231.72 54.7517C231.3 54.8072 230.877 54.8364 230.453 54.8391C228.882 54.9669 227.311 54.5838 225.974 53.7467C225.476 53.2828 225.092 52.7103 224.852 52.0736C224.611 51.437 224.52 50.7535 224.587 50.0762V40.8015H220.917V37.5243H224.587V32.6631L230.224 31.7563V37.568H234.954V40.8452H230.224V48.7434C230.189 49.3256 230.367 49.9005 230.726 50.3602C230.886 50.5538 231.089 50.7078 231.318 50.8102C231.547 50.9125 231.797 50.9604 232.048 50.9501C232.628 50.9589 233.205 50.8665 233.752 50.677L234.069 50.5896C234.114 50.585 234.156 50.5658 234.189 50.535L234.954 54.0307C234.33 54.2385 233.691 54.3992 233.042 54.5114Z" fill="white"/>
<path d="M240.941 47.3235C241.07 48.2689 241.49 49.1508 242.142 49.8469C243.299 50.7597 244.759 51.2008 246.228 51.0814C246.752 51.0814 247.233 51.0814 247.681 51.0158C248.168 50.9651 248.64 50.8164 249.068 50.5789L250.281 53.6376C249.546 54.1268 248.722 54.4647 247.856 54.6317C246.979 54.7783 246.09 54.8477 245.201 54.8393C242.619 54.9851 240.082 54.1235 238.122 52.436C237.237 51.563 236.548 50.5112 236.101 49.3508C235.655 48.1903 235.461 46.948 235.533 45.7067C235.495 44.5851 235.681 43.4672 236.08 42.4185C236.48 41.3698 237.085 40.4116 237.86 39.6001C238.614 38.81 239.527 38.1877 240.537 37.7736C241.548 37.3596 242.635 37.163 243.726 37.1968C244.799 37.1503 245.868 37.3417 246.858 37.7572C247.847 38.1727 248.733 38.802 249.451 39.6001C250.949 41.3538 251.73 43.6093 251.635 45.9142V47.3562L240.941 47.3235ZM245.638 41.6757C245.437 41.3403 245.152 41.0632 244.811 40.8716C244.47 40.6801 244.085 40.5807 243.694 40.5833C243.227 40.5713 242.768 40.7018 242.378 40.9575C241.987 41.2132 241.684 41.5819 241.509 42.0143C241.08 42.9163 240.849 43.8997 240.831 44.8983H246.294V44.5815C246.353 43.5705 246.125 42.5634 245.638 41.6757Z" fill="white"/>
<path d="M62.3524 76.469C62.4787 77.4153 62.899 78.298 63.5541 78.9924C64.7057 79.9075 66.163 80.349 67.6288 80.2269C68.1641 80.2269 68.6447 80.2269 69.0926 80.2269C69.5784 80.1695 70.049 80.0213 70.48 79.7899L71.6817 82.8377C70.9517 83.3277 70.1307 83.6657 69.2674 83.8318C68.3867 83.9787 67.4948 84.0482 66.6019 84.0394C63.9917 84.1668 61.4364 83.2601 59.4903 81.5159C58.6063 80.6442 57.9182 79.5942 57.4718 78.4358C57.0253 77.2773 56.8309 76.0371 56.9013 74.7976C56.8637 73.6771 57.0491 72.5602 57.4467 71.512C57.8443 70.4637 58.4461 69.5048 59.2172 68.691C59.9734 67.8998 60.8872 67.2761 61.8996 66.8602C62.912 66.4443 64.0004 66.2455 65.0944 66.2767C66.1675 66.2324 67.2371 66.4258 68.2267 66.8432C69.2163 67.2606 70.1014 67.8915 70.8187 68.691C72.3176 70.4403 73.0983 72.6925 73.0035 74.9942V76.469H62.3524ZM67.0498 70.8212C66.8478 70.4865 66.5624 70.21 66.2216 70.0186C65.8808 69.8271 65.4962 69.7272 65.1053 69.7288C64.6401 69.7159 64.1819 69.8448 63.7917 70.0985C63.4015 70.3521 63.0976 70.7185 62.9205 71.1489C62.5022 72.058 62.2754 73.0433 62.2541 74.0438H67.7162V73.7161C67.7761 72.6967 67.545 71.6814 67.0498 70.7884V70.8212Z" fill="white"/>
<path d="M88.2425 71.1271L88.0131 71.007H87.8601L87.6198 70.9196L87.1064 70.712C86.1512 70.3276 85.1318 70.1275 84.1022 70.1221C83.5029 70.0811 82.9023 70.179 82.3471 70.4083C81.7919 70.6376 81.2971 70.992 80.9014 71.4439C80.1106 72.5766 79.7257 73.9431 79.809 75.322C79.7599 75.9274 79.8375 76.5363 80.0369 77.11C80.2362 77.6837 80.553 78.2095 80.967 78.6539C82.0417 79.4697 83.3803 79.8588 84.7249 79.7463C85.5442 79.7463 86.3089 79.7463 86.9971 79.6371C87.7478 79.5607 88.4836 79.3768 89.182 79.0908L88.6467 82.8815C88.0155 83.1592 87.3563 83.368 86.6803 83.5042C85.6447 83.7676 84.5808 83.9033 83.5123 83.9084C82.3253 83.9842 81.135 83.8223 80.0114 83.4321C78.8878 83.0419 77.8533 82.4314 76.9687 81.6362C76.16 80.8146 75.5307 79.834 75.1207 78.7565C74.7108 77.679 74.5291 76.528 74.5873 75.3766C74.4852 74.154 74.6518 72.9238 75.0755 71.7723C75.4991 70.6208 76.1695 69.576 77.0397 68.711C77.9098 67.8461 78.9587 67.1819 80.1127 66.7652C81.2667 66.3485 82.4978 66.1892 83.7199 66.2987C84.7573 66.2725 85.7935 66.3864 86.8005 66.6373C87.2156 66.7793 87.6416 66.9104 88.1005 67.0415C88.4715 67.1396 88.8363 67.26 89.1929 67.402L88.2425 71.1271Z" fill="white"/>
<path d="M103.187 83.5481V73.4105C103.209 72.6445 103.016 71.8877 102.63 71.2257C102.471 70.9655 102.248 70.7506 101.982 70.6014C101.716 70.4522 101.416 70.3738 101.112 70.3736C100.241 70.3813 99.3824 70.5828 98.599 70.9635C98.03 71.2099 97.482 71.5022 96.9604 71.8374V83.5481H91.3345V60.52H96.9386V68.6913C98.741 67.1691 101.014 66.3162 103.373 66.277C104.121 66.2262 104.872 66.3396 105.572 66.6095C106.272 66.8794 106.905 67.2991 107.426 67.8392C108.398 69.126 108.875 70.7197 108.769 72.329V83.5481H103.187Z" fill="white"/>
<path d="M123.397 83.5479V73.4103C123.419 72.6443 123.226 71.8875 122.84 71.2255C122.681 70.9653 122.458 70.7503 122.192 70.6012C121.926 70.452 121.626 70.3735 121.321 70.3734C120.45 70.381 119.592 70.5826 118.809 70.9633C118.24 71.2096 117.692 71.5019 117.17 71.8372V83.5479H111.566V66.6919H116.416L116.886 68.8003C117.791 68.0209 118.827 67.407 119.945 66.9869C121.101 66.5078 122.342 66.2664 123.593 66.2768C124.342 66.2252 125.093 66.3383 125.793 66.6082C126.493 66.8781 127.126 67.2982 127.646 67.839C128.627 69.122 129.108 70.7175 129.001 72.3288V83.5479H123.397Z" fill="white"/>
<path d="M131.819 83.548V66.692H137.434V83.548H131.819ZM136.899 64.0702C136.409 64.438 135.813 64.6369 135.2 64.6369C134.588 64.6369 133.992 64.438 133.502 64.0702C133.288 63.8852 133.118 63.6548 133.005 63.3959C132.892 63.137 132.837 62.8561 132.846 62.5736C132.84 62.2914 132.895 62.0112 133.008 61.7527C133.121 61.4941 133.29 61.2635 133.502 61.077C133.994 60.7158 134.589 60.521 135.2 60.521C135.811 60.521 136.406 60.7158 136.899 61.077C137.103 61.2683 137.263 61.5006 137.371 61.7585C137.478 62.0165 137.53 62.2943 137.522 62.5736C137.536 62.8537 137.488 63.1335 137.38 63.3925C137.272 63.6515 137.108 63.883 136.899 64.0702Z" fill="white"/>
<path d="M153.667 71.1275L153.438 71.0073H153.285L153.034 70.9199L152.52 70.7123C151.569 70.3273 150.553 70.127 149.527 70.1224C148.921 70.092 148.316 70.2035 147.76 70.4481C147.204 70.6928 146.713 71.0638 146.326 71.5317C145.524 72.6488 145.12 74.0029 145.179 75.377C145.145 75.9773 145.235 76.5782 145.444 77.1421C145.652 77.706 145.975 78.2208 146.392 78.6542C147.47 79.4726 148.813 79.8619 150.161 79.7466C150.98 79.7466 151.734 79.7466 152.433 79.6374C153.184 79.5611 153.92 79.3771 154.618 79.0912L154.083 82.8819C153.451 83.1596 152.792 83.3683 152.116 83.5045C151.081 83.7679 150.017 83.9036 148.948 83.9087C147.767 83.9713 146.585 83.7988 145.472 83.4013C144.358 83.0038 143.334 82.389 142.459 81.5928C141.644 80.7819 141.006 79.8109 140.585 78.7411C140.164 77.6713 139.969 76.5259 140.012 75.377C139.906 74.1534 140.07 72.9215 140.492 71.7683C140.915 70.615 141.585 69.5685 142.456 68.7027C143.327 67.8369 144.378 67.1729 145.533 66.7575C146.689 66.3422 147.922 66.1857 149.145 66.299C150.194 66.2734 151.241 66.391 152.258 66.6485C152.673 66.7906 153.099 66.9217 153.558 67.0527C153.929 67.1508 154.294 67.2712 154.651 67.4132L153.667 71.1275Z" fill="white"/>
<path d="M171.703 83.93L170.294 83.0233C169.93 82.7829 169.602 82.5426 169.311 82.3023C169.005 82.0728 168.852 81.8981 168.852 81.7997C167.83 82.4562 166.729 82.9811 165.575 83.3619C164.399 83.7602 163.167 83.9668 161.926 83.9737C160.355 84.0727 158.801 83.5949 157.556 82.63C157.051 82.177 156.652 81.618 156.388 80.993C156.123 80.3679 156 79.6922 156.027 79.0141C156.032 78.2145 156.242 77.4296 156.638 76.735C157.034 76.0405 157.603 75.4596 158.288 75.0486C158.96 74.6245 159.699 74.3179 160.473 74.1419C161.324 73.9301 162.19 73.7804 163.062 73.694C163.925 73.6176 164.755 73.5848 165.531 73.5848C166.307 73.5848 166.962 73.5848 167.41 73.5848H168.142V72.5907C168.172 72.1778 168.103 71.7638 167.939 71.3835C167.776 71.0032 167.523 70.6678 167.203 70.4058C166.479 69.8877 165.6 69.6332 164.712 69.6849C163.498 69.6696 162.293 69.8885 161.161 70.3294C160.593 70.5369 160.069 70.7227 159.687 70.8537L158.452 68.0244C158.622 67.8924 158.805 67.7789 158.998 67.6857C159.25 67.5546 159.61 67.3908 160.091 67.1941C161.687 66.5505 163.395 66.2276 165.116 66.2437C168.011 66.2437 170.108 66.779 171.43 67.8605C172.752 68.942 173.418 70.7445 173.418 73.2352V79.9645C173.435 80.0819 173.477 80.1944 173.541 80.2943C173.605 80.3941 173.69 80.4791 173.79 80.5435C173.997 80.7376 174.224 80.9097 174.467 81.0569L174.828 81.2863L171.703 83.93ZM168.24 76.4688C167.355 76.4688 166.427 76.4688 165.444 76.5452C164.516 76.5818 163.601 76.7854 162.745 77.1461C162.333 77.2669 161.968 77.5122 161.7 77.8486C161.432 78.1849 161.274 78.5958 161.249 79.025C161.237 79.2817 161.289 79.5374 161.402 79.7685C161.514 79.9995 161.684 80.1984 161.893 80.3468C162.483 80.7067 163.171 80.8711 163.86 80.8166C164.328 80.8164 164.796 80.7762 165.258 80.6964C165.694 80.6185 166.121 80.5015 166.536 80.3468C166.892 80.2164 167.238 80.0631 167.574 79.888C167.858 79.746 168.076 79.6258 168.24 79.5275V76.4688Z" fill="white"/>
<path d="M177.471 83.5481V60.52H183.086V83.5481H177.471Z" fill="white"/>
<path d="M212.789 81.7453C210.455 83.0353 207.806 83.6447 205.142 83.5041C203.335 83.5022 201.53 83.356 199.746 83.0671L197.419 82.7066L196.042 82.4772L197.135 78.2824C197.329 78.3717 197.53 78.4447 197.736 78.5009C197.889 78.5009 198.052 78.5008 198.227 78.5664L198.894 78.6756C199.178 78.6756 199.56 78.8176 200.073 78.9487C201.015 79.2532 201.991 79.4367 202.979 79.4949C203.897 79.4949 204.782 79.5714 205.623 79.5714C206.648 79.6169 207.67 79.4341 208.616 79.0361C208.949 78.9246 209.238 78.7119 209.443 78.4279C209.649 78.1439 209.761 77.8028 209.763 77.4521C209.744 77.1666 209.646 76.892 209.48 76.6587C209.314 76.4254 209.087 76.2425 208.824 76.1303C208.334 75.8997 207.821 75.7203 207.294 75.595C206.423 75.3684 205.541 75.1861 204.651 75.0488C201.166 74.4371 198.752 73.6396 197.397 72.6346C196.75 72.1564 196.231 71.5268 195.884 70.8012C195.538 70.0755 195.374 69.2759 195.409 68.4725C195.37 67.514 195.597 66.5635 196.063 65.7252C196.53 64.8869 197.218 64.1933 198.052 63.7205C200.29 62.5109 202.821 61.9473 205.361 62.0928C206.904 62.0928 208.445 62.2097 209.971 62.4423C210.714 62.5625 211.38 62.6717 211.981 62.7919C212.582 62.9121 213.073 63.0322 213.554 63.1633L213.019 67.238L212.527 67.1616L211.26 66.9431C210.714 66.8448 210.167 66.7246 209.643 66.5935C208.163 66.1823 206.635 65.9656 205.099 65.949C204.114 65.9095 203.129 66.0463 202.193 66.3532C201.885 66.4241 201.61 66.5961 201.412 66.8417C201.214 67.0873 201.104 67.3923 201.1 67.7078C201.1 68.4069 201.592 68.9313 202.564 69.259C203.056 69.4229 203.657 69.5758 204.421 69.7506C205.186 69.9254 206.027 70.0892 207.032 70.264C210.255 70.8321 212.494 71.6295 213.663 72.6673C214.25 73.1641 214.719 73.7859 215.034 74.4871C215.35 75.1884 215.505 75.9514 215.487 76.7202C215.537 77.724 215.312 78.7222 214.836 79.6077C214.361 80.4931 213.653 81.2321 212.789 81.7453Z" fill="white"/>
<path d="M240.471 83.1764V60.1592H246.075V83.1764H240.471Z" fill="white"/>
<path d="M261.489 83.1763L261.107 81.0679C260.118 81.816 259.039 82.4363 257.895 82.9141C256.755 83.368 255.538 83.5979 254.312 83.5914C253.579 83.649 252.843 83.5481 252.153 83.2955C251.463 83.0429 250.836 82.6445 250.313 82.1276C249.333 80.9207 248.848 79.3856 248.959 77.8344V66.3203H254.563V76.4033C254.514 77.2199 254.696 78.0336 255.087 78.752C255.274 79.0167 255.526 79.2284 255.819 79.3663C256.112 79.5042 256.436 79.5636 256.759 79.5385C257.42 79.5022 258.07 79.3545 258.681 79.1016C259.075 78.9377 259.446 78.7848 259.774 78.61C260.115 78.4513 260.447 78.2725 260.768 78.0747V66.3203H266.372V83.1763H261.489Z" fill="white"/>
<path d="M280.868 83.2638C280.421 83.3621 279.984 83.4495 279.547 83.5041C279.13 83.5601 278.711 83.5893 278.29 83.5915C276.716 83.7117 275.144 83.3292 273.801 82.4991C273.306 82.0327 272.924 81.4598 272.684 80.8239C272.443 80.1879 272.351 79.5056 272.413 78.8286V69.5431H268.743V66.2658H272.413V61.4264L278.05 60.5088V66.3204H282.78V69.5977H278.05V77.4522C278.017 78.0324 278.191 78.6055 278.542 79.0689C278.703 79.2607 278.906 79.4133 279.135 79.5155C279.364 79.6177 279.613 79.6667 279.863 79.6588C280.442 79.6675 281.018 79.5789 281.568 79.3967L281.895 79.3093C281.895 79.3093 281.95 79.3093 282.016 79.2437L282.78 82.7395C282.158 82.9666 281.519 83.142 280.868 83.2638Z" fill="white"/>
<path d="M284.921 83.1767V66.3207H290.536V83.1767H284.921ZM289.99 63.7098C289.497 64.0711 288.902 64.2658 288.292 64.2658C287.681 64.2658 287.086 64.0711 286.593 63.7098C286.386 63.5195 286.22 63.2882 286.107 63.0306C285.994 62.773 285.935 62.4946 285.935 62.2132C285.935 61.9318 285.994 61.6535 286.107 61.3959C286.22 61.1383 286.386 60.907 286.593 60.7166C287.086 60.3554 287.681 60.1606 288.292 60.1606C288.902 60.1606 289.497 60.3554 289.99 60.7166C290.194 60.9079 290.355 61.1402 290.462 61.3982C290.569 61.6562 290.621 61.9339 290.613 62.2132C290.626 62.4932 290.577 62.7725 290.469 63.0312C290.361 63.29 290.198 63.5217 289.99 63.7098Z" fill="white"/>
<path d="M309.326 81.2433C307.425 82.8853 304.962 83.7271 302.454 83.592C299.956 83.7312 297.502 82.8884 295.616 81.2433C294.763 80.4009 294.098 79.3867 293.667 78.2679C293.236 77.1492 293.047 75.9515 293.114 74.7544C293.047 73.5572 293.236 72.3595 293.667 71.2408C294.098 70.122 294.763 69.1078 295.616 68.2654C297.502 66.6204 299.956 65.7775 302.454 65.9167C304.962 65.7816 307.425 66.6234 309.326 68.2654C310.179 69.1081 310.844 70.1221 311.278 71.2406C311.711 72.3591 311.902 73.5566 311.838 74.7544C311.902 75.9521 311.711 77.1497 311.278 78.2681C310.844 79.3866 310.179 80.4006 309.326 81.2433ZM305.721 71.204C305.299 70.7654 304.789 70.4224 304.223 70.1981C303.658 69.9738 303.051 69.8736 302.444 69.904C301.835 69.8638 301.225 69.9597 300.658 70.1845C300.091 70.4094 299.582 70.7576 299.166 71.204C298.407 72.232 297.997 73.4763 297.997 74.7544C297.997 76.0324 298.407 77.2767 299.166 78.3047C299.582 78.7497 300.092 79.0964 300.659 79.3194C301.226 79.5424 301.836 79.6361 302.444 79.5938C303.05 79.6256 303.657 79.5271 304.222 79.3047C304.787 79.0823 305.298 78.7413 305.721 78.3047C306.48 77.2767 306.89 76.0324 306.89 74.7544C306.89 73.4763 306.48 72.232 305.721 71.204Z" fill="white"/>
<path d="M326.269 83.1766V73.0499C326.291 72.2839 326.098 71.5271 325.712 70.865C325.555 70.6034 325.332 70.3873 325.066 70.2379C324.8 70.0885 324.499 70.011 324.194 70.0129C323.323 70.0206 322.465 70.2221 321.681 70.6029C321.108 70.8401 320.559 71.1328 320.043 71.4768V83.1766H314.438V66.3206H319.289L319.759 68.4399C320.663 67.6571 321.699 67.0396 322.817 66.6155C323.975 66.1411 325.215 65.9034 326.466 65.9164C327.215 65.864 327.967 65.9756 328.669 66.2436C329.371 66.5115 330.006 66.9292 330.53 67.4676C331.504 68.7581 331.985 70.3545 331.884 71.9684V83.1766H326.269Z" fill="white"/>
<path d="M346.654 82.2696C345.139 83.2576 343.347 83.7325 341.541 83.6242C340.302 83.6309 339.064 83.5433 337.838 83.362C337.543 83.362 337.205 83.2527 336.811 83.1654L335.719 82.9141L334.452 82.6191L335.216 78.894C336.178 79.2108 336.986 79.4621 337.631 79.6587C338.275 79.8553 338.92 80.0301 339.575 80.1831C340.07 80.3207 340.58 80.4014 341.094 80.4234C341.671 80.4411 342.243 80.3213 342.765 80.0738C342.972 79.9778 343.147 79.8232 343.267 79.6291C343.388 79.4349 343.448 79.2098 343.442 78.9814C343.429 78.6557 343.317 78.3417 343.123 78.0804C342.928 77.8192 342.658 77.623 342.35 77.5176C341.382 77.0957 340.389 76.7309 339.378 76.4251C338.31 76.0266 337.289 75.5138 336.331 74.8958C335.734 74.5051 335.253 73.9615 334.938 73.3216C334.623 72.6818 334.485 71.9692 334.539 71.258C334.499 70.4884 334.659 69.7216 335.004 69.0323C335.348 68.3431 335.866 67.7549 336.505 67.3253C338.019 66.3631 339.793 65.8902 341.585 65.9707C342.577 65.9692 343.565 66.0978 344.524 66.3531C345.026 66.4842 345.551 66.648 346.075 66.8337C346.599 67.0194 347.004 67.1724 347.277 67.2926L346.457 70.9631L346.283 70.8538L346.031 70.7446L345.605 70.548L344.928 70.2312C344.382 69.958 343.835 69.7068 343.3 69.4774C342.803 69.2632 342.269 69.1482 341.727 69.1387C341.189 69.1146 340.659 69.2809 340.231 69.6085C340.057 69.7351 339.914 69.8989 339.812 70.0879C339.71 70.277 339.651 70.4864 339.641 70.7009C339.658 71.0295 339.77 71.3461 339.964 71.6119C340.158 71.8777 340.425 72.0812 340.733 72.1975C341.844 72.7655 342.994 73.2546 344.174 73.6613C345.4 74.052 346.521 74.717 347.451 75.6058C347.841 75.9917 348.147 76.4537 348.35 76.9631C348.553 77.4724 348.649 78.0182 348.631 78.5663C348.639 79.2999 348.462 80.0237 348.116 80.6709C347.771 81.3181 347.268 81.8679 346.654 82.2696Z" fill="white"/>
<path d="M238.647 65.6435C238.575 66.0132 238.48 66.3781 238.363 66.7359C238.107 67.4127 237.676 68.0093 237.113 68.4643C236.551 68.9194 235.877 69.2164 235.162 69.3249C235.162 69.4123 235.162 69.4888 235.249 69.5543C235.435 69.9804 235.61 70.4064 235.806 70.8215C235.82 70.8437 235.83 70.8684 235.834 70.8942C235.838 70.92 235.837 70.9464 235.831 70.9718C235.825 70.9973 235.814 71.0212 235.798 71.0423C235.783 71.0634 235.763 71.0812 235.741 71.0946L234.834 71.9685C234.78 72.0364 234.752 72.122 234.758 72.2089C234.758 72.8206 234.758 73.4433 234.812 74.0551C234.822 74.1533 234.865 74.2455 234.932 74.3172C235.227 74.6013 235.533 74.8635 235.85 75.1256C235.892 75.1506 235.922 75.1909 235.934 75.2379C235.946 75.2849 235.94 75.3347 235.916 75.3769C235.544 76.3273 235.173 77.2777 234.823 78.239C234.823 78.3592 234.714 78.381 234.583 78.381C234.168 78.381 233.742 78.381 233.327 78.381C233.248 78.3886 233.175 78.4234 233.119 78.4793C232.682 78.9272 232.256 79.3861 231.83 79.8339C231.801 79.8624 231.779 79.8965 231.763 79.9341C231.748 79.9717 231.741 80.012 231.743 80.0524C231.743 80.4785 231.743 80.9045 231.819 81.3306C231.819 81.4616 231.819 81.5272 231.677 81.5709L228.88 82.7944C228.838 82.8159 228.789 82.8211 228.742 82.809C228.696 82.7969 228.656 82.7684 228.629 82.7289L227.777 81.8549C227.742 81.8155 227.698 81.7857 227.648 81.7685C227.598 81.7512 227.545 81.7471 227.493 81.7566H225.658C225.566 81.7641 225.479 81.7983 225.407 81.8549C225.133 82.1608 224.86 82.4667 224.609 82.7725C224.596 82.795 224.578 82.8145 224.557 82.83C224.536 82.8455 224.512 82.8566 224.486 82.8627C224.461 82.8688 224.434 82.8698 224.409 82.8655C224.383 82.8613 224.358 82.852 224.336 82.8381L221.485 81.7457C221.365 81.7457 221.343 81.6364 221.343 81.5053C221.343 81.0902 221.343 80.6751 221.343 80.2491C221.335 80.1705 221.3 80.0971 221.244 80.0415L219.857 78.7415C219.798 78.6928 219.726 78.6624 219.649 78.6541C219.223 78.6541 218.808 78.7197 218.393 78.7634C218.368 78.7699 218.342 78.7715 218.316 78.7679C218.291 78.7643 218.266 78.7556 218.243 78.7424C218.221 78.7292 218.202 78.7117 218.186 78.691C218.171 78.6702 218.159 78.6465 218.153 78.6214C217.749 77.6819 217.334 76.7533 216.918 75.8139C216.904 75.7932 216.895 75.7699 216.89 75.7454C216.885 75.7209 216.885 75.6956 216.89 75.6711C216.895 75.6467 216.905 75.6234 216.919 75.6029C216.934 75.5824 216.952 75.565 216.973 75.5517L217.891 74.6777C217.939 74.6066 217.965 74.5232 217.967 74.4374C217.967 73.8257 217.967 73.203 217.967 72.5912C217.957 72.4897 217.915 72.3941 217.847 72.3181C217.552 72.045 217.235 71.7938 216.929 71.5316C216.906 71.5191 216.885 71.502 216.869 71.4813C216.852 71.4606 216.84 71.4368 216.833 71.4113C216.826 71.3858 216.824 71.3591 216.827 71.3329C216.831 71.3066 216.839 71.2813 216.853 71.2585C217.224 70.319 217.585 69.3686 217.945 68.4291C218 68.309 218.055 68.2653 218.175 68.2653L219.42 68.3199C219.475 68.3203 219.53 68.3077 219.579 68.283C219.629 68.2583 219.671 68.2223 219.704 68.1779C220.108 67.73 220.545 67.3039 220.96 66.856C221.021 66.785 221.059 66.6975 221.07 66.6048C221.07 66.1897 221.004 65.7636 220.96 65.3485C220.95 65.298 220.959 65.2453 220.985 65.2009C221.011 65.1565 221.053 65.1234 221.102 65.1082L223.899 63.9065C223.944 63.8769 223.999 63.866 224.052 63.8762C224.105 63.8864 224.152 63.9169 224.183 63.9611C224.467 64.2561 224.74 64.551 225.035 64.8351C225.116 64.8983 225.217 64.9294 225.319 64.9225H227.1C227.158 64.9309 227.218 64.9244 227.274 64.9033C227.329 64.8823 227.378 64.8475 227.417 64.8023C227.668 64.4855 227.941 64.1796 228.203 63.8738C228.214 63.8504 228.23 63.8298 228.25 63.8134C228.27 63.797 228.294 63.7852 228.319 63.779C228.344 63.7727 228.37 63.7721 228.395 63.7771C228.421 63.7822 228.445 63.7928 228.465 63.8082L230.541 64.6275C230.617 64.3653 230.683 64.1032 230.77 63.8628C231.065 63.0175 231.634 62.2944 232.385 61.8078C233.137 61.3212 234.029 61.0987 234.921 61.1755C235.266 61.2109 235.606 61.2804 235.937 61.383C236.026 61.4038 236.107 61.4486 236.171 61.5125C236.236 61.5765 236.281 61.6571 236.303 61.7453C236.324 61.8336 236.321 61.9261 236.293 62.0125C236.265 62.099 236.214 62.1761 236.145 62.2351L234.943 63.4368L234.769 63.6225L236.331 65.0863C236.407 64.988 236.538 64.8351 236.68 64.6821L237.631 63.7317C237.688 63.6619 237.763 63.6095 237.848 63.5805C237.933 63.5514 238.025 63.5469 238.113 63.5674C238.2 63.5879 238.28 63.6326 238.344 63.6964C238.407 63.7602 238.452 63.8406 238.472 63.9284C238.559 64.1906 238.614 64.4637 238.679 64.7258L238.647 65.6435Z" fill="white"/>
<path d="M218.011 71.0945C218.284 71.3457 218.557 71.6079 218.841 71.8373C218.913 71.8924 218.969 71.9665 219.002 72.0514C219.035 72.1362 219.043 72.2285 219.027 72.318C218.93 73.1322 218.948 73.9559 219.081 74.765C219.088 74.8554 219.061 74.9451 219.005 75.0163C218.754 75.2675 218.491 75.5078 218.229 75.7482C218.188 75.7787 218.159 75.8229 218.147 75.8728C218.135 75.9227 218.141 75.9753 218.164 76.0213C218.393 76.5238 218.601 77.0263 218.797 77.5397C218.813 77.5942 218.849 77.6406 218.897 77.6692C218.946 77.6977 219.004 77.7061 219.059 77.6927C219.398 77.6927 219.737 77.6381 220.075 77.5944C220.14 77.5782 220.207 77.5833 220.268 77.6089C220.329 77.6345 220.381 77.6792 220.414 77.7364C220.911 78.43 221.538 79.02 222.26 79.4733C222.311 79.5025 222.353 79.5459 222.38 79.5982C222.407 79.6505 222.419 79.7096 222.413 79.7683C222.413 80.1397 222.413 80.5002 222.413 80.8607C222.43 80.9407 222.477 81.0111 222.544 81.0573C223.058 81.2758 223.582 81.4615 224.095 81.68C224.139 81.7005 224.189 81.704 224.236 81.6899C224.282 81.6757 224.322 81.645 224.347 81.6035C224.49 81.4544 224.625 81.2976 224.751 81.1338C224.848 80.9675 224.996 80.8366 225.173 80.76C225.35 80.6834 225.546 80.6651 225.734 80.7077C226.463 80.8022 227.203 80.7652 227.919 80.5985C227.975 80.5833 228.034 80.5856 228.089 80.6051C228.144 80.6246 228.191 80.6604 228.225 80.7077C228.465 80.9699 228.716 81.2321 228.968 81.4724C229 81.4879 229.036 81.496 229.071 81.496C229.107 81.496 229.143 81.4879 229.175 81.4724L230.748 80.817C230.77 80.812 230.791 80.8025 230.809 80.7891C230.827 80.7758 230.842 80.7588 230.854 80.7394C230.865 80.7199 230.872 80.6983 230.875 80.6759C230.877 80.6536 230.875 80.6309 230.868 80.6094C230.868 80.2708 230.803 79.9321 230.77 79.5935C230.756 79.5293 230.762 79.4622 230.787 79.4015C230.813 79.3408 230.856 79.2895 230.912 79.2548C231.607 78.7419 232.21 78.1138 232.693 77.3977C232.722 77.3618 232.759 77.3326 232.8 77.3119C232.842 77.2912 232.887 77.2795 232.933 77.2776H234.026C234.157 77.2776 234.222 77.2776 234.266 77.1355C234.463 76.6221 234.659 76.1087 234.867 75.6062C234.891 75.564 234.897 75.5141 234.885 75.4672C234.873 75.4202 234.843 75.3799 234.801 75.3549C234.517 75.1146 234.244 74.8852 233.982 74.6448C233.952 74.6169 233.927 74.5832 233.91 74.5456C233.894 74.5081 233.884 74.4675 233.884 74.4263C234.015 73.5662 233.992 72.6897 233.818 71.8373C233.799 71.7765 233.799 71.7112 233.818 71.6505C233.838 71.5898 233.876 71.5367 233.927 71.4987C234.189 71.2583 234.43 71.0071 234.681 70.7668C234.722 70.738 234.75 70.695 234.76 70.6464C234.77 70.5978 234.761 70.5471 234.736 70.5046C234.593 70.2268 234.473 69.9382 234.375 69.6416C234.349 69.5076 234.274 69.388 234.165 69.3054C234.057 69.2228 233.921 69.1831 233.785 69.1937C233.688 69.1872 233.592 69.2142 233.512 69.2701C232.988 69.7836 232.485 70.297 231.972 70.8105C231.933 70.8407 231.907 70.8836 231.897 70.9316C231.887 70.9795 231.894 71.0295 231.917 71.0726C232.312 72.0524 232.429 73.1221 232.256 74.1642C232.129 74.9292 231.852 75.6614 231.439 76.3179C231.026 76.9744 230.487 77.542 229.852 77.9875C229.217 78.433 228.5 78.7475 227.742 78.9126C226.985 79.0777 226.202 79.09 225.439 78.9489C224.379 78.7798 223.389 78.3102 222.588 77.5957C221.786 76.8813 221.206 75.9519 220.917 74.9179C220.575 73.9292 220.52 72.8642 220.758 71.8456C220.996 70.827 221.516 69.8964 222.26 69.1609C223.083 68.309 224.148 67.7306 225.311 67.5039C226.473 67.2773 227.677 67.4133 228.76 67.8937C228.858 67.8937 228.946 67.9811 229.044 67.8937L230.584 66.3534C230.605 66.2858 230.605 66.2134 230.584 66.1458C230.6 66.0116 230.6 65.8759 230.584 65.7416C230.559 65.6626 230.504 65.5962 230.432 65.5559C229.885 65.3265 229.339 65.1299 228.793 64.9114C228.773 64.8997 228.751 64.8922 228.728 64.8892C228.705 64.8862 228.681 64.8878 228.659 64.8939C228.637 64.9 228.616 64.9104 228.597 64.9247C228.579 64.939 228.564 64.9567 228.553 64.977C228.345 65.2173 228.105 65.4576 227.908 65.7198C227.854 65.7933 227.78 65.8492 227.694 65.8804C227.609 65.9115 227.516 65.9164 227.427 65.8946C226.613 65.8015 225.789 65.8236 224.98 65.9601C224.89 65.9671 224.8 65.9398 224.729 65.8837C224.467 65.6324 224.205 65.3593 223.953 65.0971C223.877 65.0207 223.822 64.9879 223.713 65.0971L222.184 65.7744C222.15 65.7935 222.122 65.8203 222.101 65.8526C222.08 65.8849 222.067 65.9218 222.064 65.9601C222.036 66.1923 222.036 66.4271 222.064 66.6593C222.119 66.8412 222.108 67.0369 222.032 67.2112C221.956 67.3854 221.82 67.5268 221.648 67.6097C221.102 68.0088 220.641 68.5141 220.294 69.0954C220.252 69.1819 220.184 69.2535 220.1 69.3004C220.016 69.3472 219.92 69.3672 219.824 69.3575C219.453 69.3575 219.07 69.3575 218.732 69.3575L218.011 71.0945Z" fill="white"/>
<path d="M234.746 62.1475C234.354 62.1084 233.957 62.1503 233.582 62.2705C233.206 62.3908 232.859 62.5869 232.562 62.8467C232.099 63.2394 231.762 63.7595 231.593 64.3423C231.424 64.925 231.431 65.5447 231.611 66.1239C231.655 66.236 231.666 66.3581 231.643 66.4761C231.619 66.5941 231.563 66.7031 231.48 66.7903C230.184 68.1012 228.877 69.4048 227.558 70.7011C227.438 70.7919 227.294 70.8451 227.143 70.8541C226.987 70.8643 226.83 70.8643 226.674 70.8541C226.334 70.8149 225.99 70.8449 225.663 70.9425C225.336 71.0401 225.032 71.2031 224.769 71.4217C224.507 71.6402 224.291 71.9098 224.136 72.2141C223.981 72.5184 223.889 72.851 223.866 73.1918C223.843 73.5578 223.898 73.9246 224.028 74.2676C224.157 74.6107 224.359 74.9221 224.618 75.181C224.878 75.44 225.19 75.6406 225.533 75.7694C225.877 75.8982 226.244 75.9523 226.61 75.928C226.976 75.9037 227.332 75.8016 227.656 75.6285C227.979 75.4555 228.262 75.2154 228.485 74.9244C228.708 74.6334 228.866 74.2981 228.95 73.9409C229.033 73.5837 229.039 73.2129 228.968 72.8532C228.929 72.7241 228.928 72.5867 228.965 72.4571C229.002 72.3275 229.075 72.211 229.175 72.1213C230.421 70.8868 231.666 69.6524 232.889 68.4071C232.988 68.286 233.124 68.2003 233.275 68.1628C233.427 68.1254 233.587 68.1383 233.731 68.1995C234.13 68.3123 234.547 68.3432 234.958 68.2902C235.37 68.2372 235.766 68.1015 236.123 67.8912C236.48 67.6809 236.791 67.4004 237.037 67.0666C237.283 66.7328 237.459 66.3527 237.554 65.9491C237.605 65.6715 237.635 65.3902 237.641 65.108H237.576C237.27 65.4248 236.964 65.7525 236.647 66.0693C236.598 66.1483 236.53 66.2136 236.449 66.2588C236.367 66.304 236.276 66.3278 236.183 66.3278C236.09 66.3278 235.999 66.304 235.917 66.2588C235.836 66.2136 235.768 66.1483 235.719 66.0693L233.752 64.0483C233.414 63.7097 233.425 63.4584 233.752 63.1198L234.746 62.1475Z" fill="#CACACA"/>
<path d="M226.4 79.1345C229.634 79.1345 232.256 76.513 232.256 73.2792C232.256 70.0454 229.634 67.4238 226.4 67.4238C223.166 67.4238 220.545 70.0454 220.545 73.2792C220.545 76.513 223.166 79.1345 226.4 79.1345Z" fill="#CACACA"/>
<path d="M106.65 0C118.666 1.76971 128.367 13.109 129.35 24.9726C130.661 40.7143 118.961 52.8948 105.547 56.1174C90.7662 59.6568 77.2967 56.172 64.8104 48.0007C60.1662 44.9138 55.7255 41.5313 51.5157 37.8741C45.8724 33.0018 39.4162 29.1599 32.4421 26.5239C27.5606 24.7131 22.3188 24.0878 17.1483 24.6995C11.1072 25.344 6.22412 30.3582 5.1317 36.7161C3.98466 43.5655 5.48127 49.5848 10.5938 54.5006C11.0307 54.9048 11.3912 55.3964 12.1341 56.2266C11.4981 56.1949 10.8748 56.0365 10.3008 55.7607C9.72678 55.485 9.21359 55.0974 8.79129 54.6208C5.1591 51.52 2.54969 47.3931 1.30582 42.7822C0.061946 38.1713 0.241773 33.292 1.82168 28.7852C3.49501 24.4213 6.40443 20.64 10.1937 17.9043C13.9831 15.1685 18.4878 13.597 23.1566 13.3821C34.6597 13.0325 44.8301 17.2055 54.5089 22.8096C61.8281 27.0482 68.7103 32.0843 76.6412 35.2086C85.1075 38.5404 93.7266 40.0917 102.717 37.6446C105.782 36.8686 108.656 35.4752 111.164 33.5499C113.671 31.6246 115.76 29.2078 117.301 26.4474C123.211 16.1678 119.235 5.74611 106.65 0Z" fill="white"/>
<path d="M97.4957 35.3284C100.369 33.8427 103.253 32.4335 104.848 29.4075C106.77 25.7589 107.032 22.0665 104.618 18.5926C102.204 15.1187 98.8284 14.3322 94.7865 15.0095C85.7085 16.5389 79.154 22.2413 72.4575 27.7034C71.3651 28.5882 70.5021 29.3857 68.9181 28.6101C65.9795 27.1681 65.6408 26.4252 67.8257 23.9891C75.986 15.075 84.7581 7.02393 97.2663 4.68616C103.897 3.44081 110.058 5.98613 113.084 11.1751C115.641 15.5448 114.69 23.6068 110.987 28.0748C109.369 30.158 107.332 31.8796 105.009 33.1288C102.685 34.3781 100.126 35.1273 97.4957 35.3284Z" fill="white"/>
<path d="M32.2673 30.5878C31.2622 30.3584 30.2681 30.118 29.2522 29.9105C23.091 28.6979 17.8255 31.8659 16.9625 37.2843C16.034 43.1178 20.6112 48.7328 26.7943 49.3009C34.2882 50.0218 40.4167 46.6135 46.4577 42.8884C47.3645 42.3203 48.2821 40.8783 49.3636 41.796C50.3286 42.8372 51.0719 44.0637 51.5484 45.4009C51.7778 45.8925 51.1551 46.2749 50.7728 46.6135C44.4259 52.305 37.3688 56.5217 28.706 57.6797C18.5028 58.9906 8.58369 51.1033 8.64923 41.6321C8.58514 38.7617 9.47471 35.9511 11.1787 33.6403C12.8826 31.3294 15.3048 29.6489 18.0659 28.8618C20.4253 28.1637 22.9028 27.9567 25.3454 28.2536C27.7879 28.5504 30.1437 29.3449 32.2673 30.5878Z" fill="white"/>
<path d="M36.2876 105.058C41.4875 94.92 42.1429 85.2084 43.3774 75.4859C44.3278 67.9373 46.3051 60.4979 51.7016 53.6376C53.9891 50.5443 57.0528 48.1099 60.5829 46.5806C59.5788 48.5812 58.7385 50.66 58.0704 52.7964C56.6175 59.4165 55.1973 66.0365 54.1923 72.6347C53.2856 78.632 52.5537 84.6513 49.8226 90.5175C47.0916 96.3838 43.3228 101.595 36.2876 105.058Z" fill="white"/>
</svg>
