<svg width="203" height="62" viewBox="0 0 203 62" fill="none" xmlns="http://www.w3.org/2000/svg">
<path d="M81.314 31.6886V19.6352H85.3784V31.7204L81.314 31.6886Z" fill="#00187E"/>
<path d="M93.9652 31.6886V25.7923C93.9792 25.3461 93.8668 24.9051 93.6408 24.5202C93.5483 24.3687 93.4183 24.2435 93.2635 24.1567C93.1087 24.0698 92.9342 24.0241 92.7567 24.024C92.2503 24.0286 91.7511 24.1437 91.2938 24.3612C90.9606 24.5033 90.6412 24.6757 90.3397 24.8764V31.6886H87.0703V21.8742H89.9008L90.1743 23.1081C90.7001 22.6509 91.3032 22.2912 91.9553 22.0459C92.6288 21.7685 93.3514 21.63 94.0797 21.6388C94.5152 21.6075 94.9522 21.6722 95.3599 21.8282C95.7677 21.9843 96.1362 22.228 96.4395 22.542C97.0089 23.2899 97.289 24.2182 97.2282 25.1562V31.6886H93.9652Z" fill="#00187E"/>
<path d="M105.586 20.125C105.52 20.0981 105.452 20.0768 105.383 20.0614C105.283 20.0441 105.185 20.0185 105.09 19.985L104.715 19.9278C104.556 19.9169 104.397 19.9169 104.238 19.9278C104.113 19.9189 103.988 19.9351 103.87 19.9755C103.752 20.016 103.644 20.0798 103.551 20.1631C103.459 20.2638 103.389 20.3825 103.345 20.5117C103.301 20.6409 103.285 20.7778 103.297 20.9137V21.8996H105.841V23.6805H103.297V32.9543H100.034V23.6551H97.9536V21.8741H100.078V20.5511C100.058 20.1677 100.132 19.785 100.294 19.4368C100.455 19.0886 100.7 18.7854 101.007 18.5539C101.745 18.0584 102.625 17.8152 103.513 17.8606H104.149L104.728 17.9115C104.943 17.9433 105.156 17.9922 105.364 18.0578L105.885 18.2359L105.586 20.125Z" fill="#00187E"/>
<path d="M107.132 31.6886V21.8742H110.401V31.6886H107.132ZM110.09 20.354C109.804 20.5599 109.462 20.6707 109.11 20.6707C108.758 20.6707 108.416 20.5599 108.13 20.354C108.012 20.2417 107.918 20.1065 107.854 19.9567C107.79 19.8069 107.756 19.6456 107.756 19.4826C107.756 19.3196 107.79 19.1582 107.854 19.0084C107.918 18.8586 108.012 18.7235 108.13 18.6112C108.417 18.4008 108.764 18.2874 109.12 18.2874C109.475 18.2874 109.822 18.4008 110.109 18.6112C110.228 18.7223 110.321 18.8575 110.384 19.0078C110.446 19.158 110.476 19.3199 110.471 19.4826C110.476 19.647 110.444 19.8104 110.378 19.9611C110.312 20.1118 110.214 20.2459 110.09 20.354Z" fill="#00187E"/>
<path d="M118.944 31.6886V25.7923C118.958 25.3461 118.845 24.9051 118.619 24.5202C118.528 24.3678 118.398 24.242 118.243 24.155C118.088 24.068 117.913 24.0229 117.735 24.024C117.229 24.03 116.73 24.145 116.272 24.3611C115.94 24.5048 115.621 24.6772 115.318 24.8763V31.6886H112.055V21.8741H114.879L115.153 23.1081C115.68 22.6524 116.282 22.2928 116.934 22.0459C117.608 21.7696 118.33 21.6312 119.058 21.6388C119.495 21.6083 119.932 21.6733 120.341 21.8293C120.75 21.9853 121.119 22.2285 121.424 22.542C121.991 23.2914 122.27 24.2186 122.213 25.1562V31.6886H118.944Z" fill="#00187E"/>
<path d="M123.841 31.6886V21.8741H127.104V31.6886H123.841ZM126.799 20.354C126.511 20.5648 126.164 20.6785 125.807 20.6785C125.45 20.6785 125.102 20.5648 124.814 20.354C124.696 20.2417 124.602 20.1065 124.538 19.9567C124.474 19.8069 124.44 19.6456 124.44 19.4826C124.44 19.3195 124.474 19.1582 124.538 19.0084C124.602 18.8586 124.696 18.7234 124.814 18.6111C125.102 18.4003 125.45 18.2866 125.807 18.2866C126.164 18.2866 126.511 18.4003 126.799 18.6111C126.916 18.7233 127.008 18.8589 127.07 19.009C127.131 19.1591 127.16 19.3205 127.155 19.4826C127.162 19.6448 127.133 19.8067 127.072 19.957C127.01 20.1074 126.917 20.2428 126.799 20.354Z" fill="#00187E"/>
<path d="M135.399 31.7394C135.138 31.7967 134.877 31.8412 134.629 31.8794C134.384 31.9117 134.138 31.9287 133.891 31.9303C132.976 32.0047 132.061 31.7816 131.283 31.2942C130.993 31.0241 130.77 30.6908 130.63 30.3201C130.489 29.9494 130.437 29.5514 130.476 29.157V23.7569H128.338V21.8487H130.476V19.0182L133.758 18.4903V21.8741H136.512V23.7823H133.758V28.381C133.737 28.72 133.841 29.0548 134.05 29.3224C134.143 29.4352 134.261 29.5248 134.395 29.5844C134.528 29.644 134.674 29.6719 134.82 29.6659C135.157 29.671 135.493 29.6172 135.812 29.5069L135.997 29.456C136.023 29.4533 136.047 29.4421 136.067 29.4242L136.512 31.4596C136.148 31.5806 135.776 31.6741 135.399 31.7394Z" fill="#00187E"/>
<path d="M139.997 27.5542C140.073 28.1046 140.317 28.6181 140.697 29.0235C141.371 29.5549 142.221 29.8117 143.076 29.7422C143.381 29.7422 143.661 29.7422 143.922 29.704C144.206 29.6745 144.48 29.5879 144.73 29.4496L145.436 31.2306C145.008 31.5154 144.528 31.7122 144.024 31.8094C143.513 31.8947 142.996 31.9352 142.478 31.9303C140.975 32.0151 139.497 31.5135 138.356 30.5309C137.841 30.0227 137.44 29.4102 137.18 28.7346C136.92 28.0589 136.807 27.3355 136.849 26.6128C136.826 25.9598 136.935 25.3088 137.167 24.6982C137.4 24.0877 137.752 23.5297 138.204 23.0572C138.643 22.5972 139.174 22.2349 139.762 21.9938C140.351 21.7527 140.984 21.6382 141.619 21.6579C142.244 21.6308 142.866 21.7423 143.443 21.9842C144.019 22.2261 144.534 22.5925 144.952 23.0572C145.825 24.0783 146.279 25.3916 146.224 26.7336V27.5732L139.997 27.5542ZM142.732 24.2657C142.615 24.0705 142.449 23.9091 142.251 23.7976C142.052 23.686 141.828 23.6282 141.6 23.6297C141.329 23.6227 141.061 23.6987 140.834 23.8476C140.607 23.9965 140.43 24.2111 140.328 24.4629C140.078 24.9881 139.944 25.5606 139.934 26.1421H143.114V25.9576C143.148 25.369 143.016 24.7826 142.732 24.2657Z" fill="#00187E"/>
<path d="M36.0139 44.5243C36.0874 45.0753 36.3322 45.5892 36.7136 45.9936C37.3841 46.5264 38.2326 46.7834 39.0861 46.7123C39.3978 46.7123 39.6776 46.7123 39.9384 46.7123C40.2213 46.6789 40.4953 46.5926 40.7462 46.4579L41.4459 48.2325C41.0209 48.5178 40.5428 48.7146 40.0402 48.8113C39.5274 48.8968 39.0081 48.9373 38.4882 48.9322C36.9684 49.0064 35.4806 48.4784 34.3474 47.4629C33.8327 46.9553 33.4321 46.344 33.1722 45.6694C32.9122 44.9949 32.799 44.2728 32.84 43.5511C32.8181 42.8987 32.9261 42.2484 33.1575 41.6381C33.389 41.0277 33.7394 40.4694 34.1884 39.9955C34.6287 39.5348 35.1608 39.1717 35.7503 38.9296C36.3397 38.6874 36.9734 38.5717 37.6104 38.5898C38.2352 38.564 38.858 38.6766 39.4342 38.9197C40.0104 39.1627 40.5258 39.5301 40.9434 39.9955C41.8162 41.0141 42.2707 42.3254 42.2155 43.6656V44.5243H36.0139ZM38.749 41.2358C38.6313 41.041 38.4652 40.88 38.2668 40.7685C38.0683 40.657 37.8444 40.5989 37.6168 40.5998C37.3459 40.5923 37.0791 40.6674 36.8519 40.8151C36.6247 40.9628 36.4478 41.1761 36.3447 41.4267C36.1011 41.956 35.9691 42.5297 35.9567 43.1122H39.137V42.9214C39.1719 42.3279 39.0373 41.7367 38.749 41.2168V41.2358Z" fill="#00187E"/>
<path d="M51.0886 41.4139L50.955 41.3439H50.866L50.726 41.2931L50.4271 41.1722C49.8709 40.9484 49.2774 40.8319 48.6779 40.8287C48.329 40.8048 47.9793 40.8619 47.656 40.9954C47.3327 41.1289 47.0447 41.3352 46.8143 41.5984C46.3538 42.2578 46.1297 43.0535 46.1782 43.8564C46.1496 44.2089 46.1948 44.5634 46.3109 44.8974C46.427 45.2315 46.6114 45.5376 46.8524 45.7964C47.4782 46.2714 48.2576 46.4979 49.0405 46.4324C49.5175 46.4324 49.9628 46.4324 50.3635 46.3688C50.8006 46.3244 51.229 46.2173 51.6356 46.0508L51.3239 48.2579C50.9565 48.4196 50.5726 48.5412 50.179 48.6205C49.5761 48.7738 48.9566 48.8529 48.3345 48.8558C47.6433 48.9 46.9503 48.8057 46.296 48.5785C45.6418 48.3513 45.0395 47.9958 44.5244 47.5328C44.0535 47.0545 43.6871 46.4835 43.4484 45.8561C43.2097 45.2287 43.104 44.5586 43.1378 43.8882C43.0784 43.1763 43.1754 42.46 43.4221 41.7896C43.6687 41.1191 44.0591 40.5108 44.5657 40.0071C45.0724 39.5035 45.6831 39.1168 46.355 38.8742C47.0269 38.6315 47.7438 38.5388 48.4553 38.6025C49.0594 38.5873 49.6627 38.6536 50.249 38.7997C50.4907 38.8824 50.7388 38.9587 51.0059 39.035C51.222 39.0921 51.4344 39.1622 51.642 39.2449L51.0886 41.4139Z" fill="#00187E"/>
<path d="M59.7899 48.646V42.7433C59.8026 42.2973 59.6902 41.8567 59.4655 41.4712C59.373 41.3197 59.2431 41.1946 59.0883 41.1077C58.9335 41.0208 58.7589 40.9752 58.5814 40.9751C58.0743 40.9795 57.5746 41.0969 57.1185 41.3185C56.7872 41.462 56.4681 41.6322 56.1644 41.8274V48.646H52.8887V35.2378H56.1517V39.9955C57.2012 39.1092 58.5246 38.6127 59.8981 38.5898C60.3339 38.5602 60.771 38.6263 61.1786 38.7834C61.5863 38.9405 61.9546 39.1849 62.2578 39.4994C62.824 40.2486 63.1017 41.1765 63.0402 42.1136V48.646H59.7899Z" fill="#00187E"/>
<path d="M71.557 48.646V42.7433C71.5697 42.2973 71.4573 41.8567 71.2326 41.4712C71.14 41.3197 71.0101 41.1946 70.8553 41.1077C70.7005 41.0208 70.526 40.9752 70.3485 40.9751C69.8414 40.9795 69.3416 41.0969 68.8855 41.3185C68.5542 41.462 68.2352 41.6322 67.9315 41.8274V48.646H64.6685V38.8315H67.4926L67.7661 40.0591C68.2931 39.6053 68.896 39.2479 69.547 39.0033C70.2203 38.7244 70.9428 38.5838 71.6715 38.5898C72.1074 38.5598 72.5446 38.6257 72.9523 38.7828C73.36 38.94 73.7283 39.1846 74.0313 39.4994C74.6023 40.2465 74.8825 41.1754 74.82 42.1136V48.646H71.557Z" fill="#00187E"/>
<path d="M76.4609 48.646V38.8315H79.7303V48.646H76.4609ZM79.4186 37.305C79.1334 37.5192 78.7863 37.6349 78.4295 37.6349C78.0728 37.6349 77.7257 37.5192 77.4405 37.305C77.3161 37.1973 77.2173 37.0631 77.1513 36.9124C77.0852 36.7616 77.0537 36.5981 77.0588 36.4336C77.055 36.2693 77.0872 36.1061 77.1531 35.9556C77.219 35.8051 77.3171 35.6708 77.4405 35.5622C77.7274 35.3519 78.0738 35.2385 78.4295 35.2385C78.7853 35.2385 79.1317 35.3519 79.4186 35.5622C79.5372 35.6736 79.6308 35.8088 79.6933 35.959C79.7558 36.1092 79.7857 36.271 79.7812 36.4336C79.7896 36.5967 79.7614 36.7596 79.6987 36.9104C79.636 37.0612 79.5403 37.196 79.4186 37.305Z" fill="#00187E"/>
<path d="M89.1824 41.4139L89.0488 41.344H88.9597L88.8135 41.2931L88.5145 41.1722C87.9607 40.948 87.3692 40.8314 86.7717 40.8288C86.4186 40.811 86.0663 40.8759 85.7427 41.0184C85.4192 41.1608 85.1334 41.3769 84.908 41.6493C84.4409 42.2997 84.2057 43.0882 84.2402 43.8882C84.2202 44.2377 84.2727 44.5876 84.3941 44.9159C84.5156 45.2443 84.7036 45.544 84.9462 45.7964C85.5736 46.2729 86.3556 46.4996 87.1406 46.4324C87.6177 46.4324 88.0565 46.4325 88.4636 46.3688C88.9007 46.3244 89.3292 46.2173 89.7357 46.0508L89.4241 48.2579C89.0566 48.4196 88.6727 48.5412 88.2792 48.6205C87.6762 48.7738 87.0567 48.8529 86.4346 48.8558C85.7469 48.8923 85.0589 48.7919 84.4103 48.5604C83.7617 48.3289 83.1656 47.971 82.6564 47.5074C82.1818 47.0352 81.8102 46.4699 81.565 45.847C81.3198 45.2241 81.2063 44.5572 81.2316 43.8882C81.1699 43.1758 81.2653 42.4585 81.5112 41.787C81.7571 41.1156 82.1474 40.5062 82.6545 40.0021C83.1617 39.498 83.7733 39.1114 84.4463 38.8695C85.1192 38.6277 85.837 38.5366 86.5491 38.6025C87.1598 38.5876 87.7697 38.6561 88.3618 38.8061C88.6036 38.8888 88.8516 38.9651 89.1188 39.0414C89.3348 39.0985 89.5472 39.1686 89.7548 39.2513L89.1824 41.4139Z" fill="#00187E"/>
<path d="M99.6838 48.8686L98.8633 48.3406C98.6513 48.2007 98.4604 48.0608 98.2908 47.9208C98.1127 47.7873 98.0237 47.6855 98.0237 47.6283C97.4284 48.0105 96.7873 48.3161 96.1155 48.5378C95.431 48.7697 94.7137 48.89 93.9911 48.894C93.076 48.9517 92.1714 48.6735 91.4468 48.1117C91.1526 47.8479 90.9202 47.5225 90.7662 47.1585C90.6123 46.7946 90.5406 46.4011 90.5563 46.0063C90.5589 45.5408 90.6815 45.0837 90.9121 44.6793C91.1427 44.2749 91.4736 43.9367 91.873 43.6974C92.2639 43.4504 92.6941 43.2719 93.1451 43.1695C93.6406 43.0461 94.1444 42.959 94.6526 42.9087C95.155 42.8642 95.6385 42.8451 96.0901 42.8451C96.5417 42.8451 96.9233 42.8451 97.1841 42.8451H97.6102V42.2663C97.6279 42.0259 97.5874 41.7848 97.4922 41.5634C97.397 41.3419 97.2498 41.1467 97.0632 40.9941C96.6421 40.6924 96.1302 40.5442 95.613 40.5743C94.9062 40.5655 94.2044 40.6929 93.5458 40.9496C93.2151 41.0705 92.9097 41.1786 92.6871 41.2549L91.9684 39.6075C92.0671 39.5307 92.1737 39.4646 92.2864 39.4103C92.4327 39.334 92.6426 39.2386 92.9225 39.1241C93.852 38.7494 94.8462 38.5613 95.8484 38.5707C97.5339 38.5707 98.7551 38.8824 99.5248 39.5121C100.294 40.1418 100.682 41.1913 100.682 42.6415V46.5597C100.692 46.628 100.717 46.6935 100.754 46.7517C100.791 46.8098 100.841 46.8593 100.899 46.8968C101.019 47.0098 101.152 47.11 101.293 47.1957L101.503 47.3293L99.6838 48.8686ZM97.6675 44.5243C97.1523 44.5243 96.6116 44.5243 96.0392 44.5688C95.4987 44.5901 94.9665 44.7086 94.4681 44.9186C94.2278 44.989 94.0151 45.1318 93.8592 45.3277C93.7032 45.5235 93.6115 45.7627 93.5967 46.0127C93.5895 46.1621 93.6202 46.311 93.6858 46.4455C93.7513 46.5801 93.8498 46.6959 93.972 46.7823C94.3152 46.9918 94.716 47.0876 95.1169 47.0558C95.3898 47.0557 95.6621 47.0323 95.931 46.9858C96.1847 46.9405 96.4338 46.8723 96.6752 46.7823C96.8822 46.7063 97.084 46.6171 97.2795 46.5151C97.4449 46.4325 97.5721 46.3625 97.6675 46.3052V44.5243Z" fill="#00187E"/>
<path d="M103.042 48.646V35.2378H106.311V48.646H103.042Z" fill="#00187E"/>
<path d="M123.606 47.5965C122.247 48.3476 120.704 48.7024 119.153 48.6205C118.101 48.6194 117.05 48.5343 116.011 48.3661L114.656 48.1562L113.855 48.0226L114.491 45.5802C114.604 45.6321 114.721 45.6747 114.841 45.7074C114.93 45.7074 115.025 45.7074 115.127 45.7455L115.515 45.8091C115.68 45.8091 115.903 45.8918 116.202 45.9681C116.75 46.1454 117.319 46.2523 117.894 46.2862C118.428 46.2862 118.943 46.3307 119.433 46.3307C120.03 46.3572 120.625 46.2507 121.176 46.019C121.37 45.9541 121.538 45.8303 121.658 45.6649C121.777 45.4995 121.843 45.3009 121.844 45.0967C121.833 44.9305 121.775 44.7706 121.679 44.6348C121.582 44.4989 121.45 44.3925 121.297 44.3271C121.012 44.1928 120.713 44.0884 120.406 44.0154C119.899 43.8835 119.385 43.7773 118.867 43.6974C116.838 43.3412 115.432 42.8769 114.644 42.2917C114.267 42.0133 113.965 41.6467 113.763 41.2242C113.561 40.8017 113.466 40.3361 113.486 39.8683C113.464 39.3102 113.596 38.7568 113.867 38.2687C114.139 37.7806 114.539 37.3768 115.025 37.1015C116.328 36.3972 117.802 36.069 119.281 36.1537C120.179 36.1538 121.076 36.2218 121.965 36.3573C122.397 36.4272 122.785 36.4908 123.135 36.5608C123.485 36.6308 123.771 36.7007 124.051 36.7771L123.739 39.1496L123.453 39.1051L122.715 38.9778C122.397 38.9206 122.079 38.8506 121.774 38.7743C120.912 38.5349 120.022 38.4087 119.128 38.399C118.554 38.376 117.981 38.4557 117.436 38.6344C117.257 38.6756 117.097 38.7758 116.982 38.9188C116.866 39.0618 116.802 39.2394 116.8 39.4231C116.8 39.8302 117.086 40.1355 117.652 40.3263C117.938 40.4217 118.288 40.5107 118.734 40.6125C119.179 40.7143 119.669 40.8097 120.254 40.9115C122.13 41.2422 123.434 41.7065 124.115 42.3108C124.456 42.6 124.729 42.9621 124.913 43.3704C125.097 43.7787 125.187 44.2229 125.177 44.6706C125.206 45.255 125.075 45.8363 124.798 46.3518C124.521 46.8673 124.109 47.2977 123.606 47.5965Z" fill="#00187E"/>
<path d="M139.724 48.4297V35.0279H142.987V48.4297H139.724Z" fill="#00187E"/>
<path d="M151.961 48.4297L151.739 47.2021C151.163 47.6376 150.535 47.9988 149.869 48.277C149.205 48.5413 148.497 48.6752 147.782 48.6714C147.356 48.705 146.927 48.6462 146.526 48.4991C146.124 48.352 145.758 48.1201 145.454 47.8191C144.883 47.1164 144.601 46.2226 144.666 45.3193V38.6153H147.929V44.4861C147.901 44.9615 148.006 45.4354 148.234 45.8536C148.343 46.0078 148.489 46.131 148.66 46.2113C148.831 46.2916 149.019 46.3262 149.207 46.3116C149.592 46.2904 149.971 46.2044 150.327 46.0572C150.556 45.9618 150.772 45.8727 150.963 45.771C151.162 45.6785 151.355 45.5745 151.542 45.4593V38.6153H154.805V48.4297H151.961Z" fill="#00187E"/>
<path d="M163.245 48.4806C162.985 48.5378 162.73 48.5887 162.476 48.6205C162.233 48.6531 161.989 48.6701 161.744 48.6714C160.827 48.7414 159.912 48.5187 159.13 48.0354C158.842 47.7638 158.62 47.4302 158.48 47.0599C158.34 46.6897 158.286 46.2924 158.322 45.8982V40.4917H156.185V38.5835H158.322V35.7657L161.604 35.2314V38.6153H164.358V40.5235H161.604V45.0968C161.585 45.4346 161.686 45.7683 161.891 46.0381C161.985 46.1498 162.103 46.2387 162.236 46.2981C162.369 46.3576 162.514 46.3862 162.66 46.3816C162.997 46.3866 163.333 46.335 163.652 46.2289L163.843 46.1781C163.843 46.1781 163.875 46.1781 163.913 46.1399L164.358 48.1753C163.996 48.3075 163.624 48.4097 163.245 48.4806Z" fill="#00187E"/>
<path d="M165.605 48.4297V38.6153H168.874V48.4297H165.605ZM168.556 37.0951C168.269 37.3054 167.923 37.4188 167.567 37.4188C167.212 37.4188 166.865 37.3054 166.578 37.0951C166.457 36.9843 166.361 36.8496 166.295 36.6996C166.229 36.5496 166.195 36.3875 166.195 36.2237C166.195 36.0598 166.229 35.8978 166.295 35.7478C166.361 35.5978 166.457 35.4631 166.578 35.3523C166.865 35.142 167.212 35.0286 167.567 35.0286C167.923 35.0286 168.269 35.142 168.556 35.3523C168.675 35.4637 168.769 35.5989 168.831 35.7491C168.893 35.8993 168.923 36.0611 168.919 36.2237C168.926 36.3867 168.898 36.5493 168.835 36.7C168.772 36.8506 168.677 36.9855 168.556 37.0951Z" fill="#00187E"/>
<path d="M179.815 47.3039C178.708 48.2599 177.274 48.75 175.814 48.6714C174.359 48.7524 172.93 48.2617 171.832 47.3039C171.335 46.8134 170.948 46.2228 170.697 45.5715C170.446 44.9201 170.336 44.2227 170.375 43.5257C170.336 42.8286 170.446 42.1313 170.697 41.4799C170.948 40.8285 171.335 40.2379 171.832 39.7475C172.93 38.7896 174.359 38.2989 175.814 38.3799C177.274 38.3013 178.708 38.7914 179.815 39.7475C180.311 40.2381 180.699 40.8285 180.951 41.4798C181.203 42.131 181.314 42.8283 181.277 43.5257C181.314 44.223 181.203 44.9203 180.951 45.5716C180.699 46.2228 180.311 46.8132 179.815 47.3039ZM177.716 41.4585C177.47 41.2031 177.173 41.0034 176.844 40.8728C176.514 40.7422 176.161 40.6838 175.807 40.7016C175.453 40.6782 175.098 40.7339 174.768 40.8649C174.438 40.9958 174.141 41.1986 173.899 41.4585C173.457 42.057 173.218 42.7815 173.218 43.5257C173.218 44.2698 173.457 44.9943 173.899 45.5929C174.141 45.852 174.438 46.0538 174.768 46.1836C175.099 46.3135 175.453 46.3681 175.807 46.3434C176.161 46.362 176.514 46.3046 176.843 46.1751C177.172 46.0456 177.47 45.8471 177.716 45.5929C178.158 44.9943 178.396 44.2698 178.396 43.5257C178.396 42.7815 178.158 42.057 177.716 41.4585Z" fill="#00187E"/>
<path d="M189.68 48.4297V42.5334C189.693 42.0874 189.58 41.6468 189.356 41.2613C189.264 41.109 189.134 40.9831 188.979 40.8962C188.824 40.8092 188.649 40.764 188.472 40.7652C187.964 40.7696 187.465 40.887 187.009 41.1086C186.675 41.2468 186.355 41.4172 186.055 41.6175V48.4297H182.792V38.6153H185.616L185.889 39.8492C186.416 39.3935 187.019 39.0339 187.67 38.787C188.344 38.5108 189.066 38.3724 189.795 38.3799C190.231 38.3494 190.669 38.4144 191.077 38.5704C191.486 38.7264 191.856 38.9696 192.161 39.2832C192.728 40.0345 193.008 40.9641 192.949 41.9037V48.4297H189.68Z" fill="#00187E"/>
<path d="M201.549 47.9017C200.667 48.477 199.623 48.7536 198.572 48.6905C197.85 48.6944 197.129 48.6434 196.416 48.5378C196.244 48.5378 196.047 48.4742 195.818 48.4233L195.182 48.277L194.444 48.1053L194.889 45.9363C195.449 46.1208 195.919 46.2671 196.295 46.3816C196.67 46.4961 197.045 46.5978 197.427 46.6869C197.715 46.767 198.012 46.814 198.311 46.8268C198.647 46.8371 198.981 46.7674 199.284 46.6233C199.405 46.5674 199.507 46.4773 199.577 46.3643C199.647 46.2513 199.682 46.1202 199.679 45.9872C199.671 45.7976 199.606 45.6147 199.492 45.4626C199.379 45.3105 199.222 45.1963 199.043 45.1349C198.479 44.8892 197.901 44.6769 197.312 44.4988C196.691 44.2668 196.096 43.9682 195.538 43.6083C195.19 43.3808 194.91 43.0643 194.727 42.6918C194.543 42.3193 194.463 41.9043 194.495 41.4903C194.471 41.0422 194.565 40.5957 194.765 40.1943C194.966 39.793 195.267 39.4506 195.64 39.2004C196.521 38.6402 197.554 38.3648 198.597 38.4117C199.175 38.4108 199.75 38.4857 200.308 38.6343C200.601 38.7107 200.906 38.8061 201.212 38.9142C201.517 39.0223 201.752 39.1114 201.911 39.1814L201.434 41.3185L201.332 41.2549L201.186 41.1913L200.938 41.0768L200.544 40.8924C200.226 40.7333 199.908 40.587 199.596 40.4535C199.306 40.3288 198.995 40.2618 198.68 40.2563C198.366 40.2422 198.058 40.3391 197.809 40.5298C197.708 40.6035 197.624 40.6989 197.565 40.809C197.505 40.919 197.471 41.041 197.465 41.1659C197.475 41.3572 197.54 41.5415 197.653 41.6963C197.766 41.851 197.922 41.9695 198.101 42.0373C198.748 42.368 199.418 42.6528 200.105 42.8896C200.819 43.1171 201.471 43.5043 202.013 44.0218C202.24 44.2464 202.418 44.5154 202.536 44.812C202.654 45.1086 202.71 45.4264 202.7 45.7455C202.704 46.1727 202.601 46.5941 202.4 46.9709C202.199 47.3478 201.906 47.6679 201.549 47.9017Z" fill="#00187E"/>
<path d="M138.661 38.2209C138.62 38.4362 138.564 38.6487 138.496 38.857C138.347 39.2511 138.096 39.5984 137.768 39.8634C137.441 40.1283 137.049 40.3012 136.632 40.3644C136.632 40.4153 136.632 40.4598 136.683 40.498C136.791 40.7461 136.893 40.9941 137.008 41.2358C137.016 41.2487 137.021 41.2631 137.024 41.2782C137.026 41.2932 137.025 41.3086 137.022 41.3234C137.018 41.3382 137.012 41.3521 137.003 41.3644C136.994 41.3767 136.982 41.387 136.969 41.3949L136.441 41.9037C136.41 41.9432 136.394 41.9931 136.397 42.0436C136.397 42.3998 136.397 42.7624 136.429 43.1186C136.435 43.1758 136.459 43.2295 136.499 43.2712C136.67 43.4366 136.849 43.5893 137.033 43.7419C137.057 43.7565 137.075 43.7799 137.082 43.8073C137.089 43.8346 137.085 43.8637 137.071 43.8882C136.855 44.4416 136.639 44.995 136.435 45.5547C136.435 45.6247 136.372 45.6374 136.295 45.6374C136.053 45.6374 135.805 45.6374 135.564 45.6374C135.518 45.6418 135.475 45.662 135.443 45.6946C135.188 45.9554 134.94 46.2226 134.692 46.4833C134.676 46.4999 134.662 46.5198 134.654 46.5417C134.645 46.5635 134.641 46.587 134.641 46.6106C134.641 46.8586 134.641 47.1067 134.686 47.3547C134.686 47.4311 134.686 47.4692 134.603 47.4947L132.975 48.2071C132.95 48.2196 132.922 48.2226 132.895 48.2156C132.868 48.2085 132.844 48.192 132.829 48.1689L132.333 47.6601C132.312 47.6371 132.286 47.6197 132.257 47.6097C132.228 47.5997 132.197 47.5973 132.167 47.6028H131.099C131.045 47.6072 130.994 47.6271 130.952 47.6601C130.793 47.8382 130.634 48.0162 130.488 48.1943C130.48 48.2074 130.47 48.2188 130.457 48.2278C130.445 48.2368 130.431 48.2433 130.416 48.2468C130.402 48.2504 130.386 48.2509 130.371 48.2485C130.356 48.246 130.342 48.2406 130.329 48.2325L128.669 47.5964C128.599 47.5964 128.586 47.5328 128.586 47.4565C128.586 47.2148 128.586 46.9731 128.586 46.725C128.582 46.6793 128.561 46.6366 128.529 46.6042L127.721 45.8473C127.687 45.8189 127.645 45.8012 127.6 45.7964C127.352 45.7964 127.11 45.8346 126.869 45.86C126.854 45.8638 126.839 45.8647 126.824 45.8626C126.809 45.8605 126.795 45.8555 126.782 45.8478C126.769 45.8401 126.757 45.8299 126.748 45.8178C126.739 45.8057 126.733 45.792 126.729 45.7773C126.493 45.2303 126.252 44.6897 126.01 44.1426C126.002 44.1306 125.996 44.1171 125.993 44.1028C125.99 44.0885 125.99 44.0738 125.993 44.0595C125.996 44.0453 126.002 44.0318 126.011 44.0198C126.019 44.0079 126.03 43.9977 126.042 43.99L126.576 43.4811C126.604 43.4397 126.62 43.3911 126.621 43.3412C126.621 42.985 126.621 42.6224 126.621 42.2663C126.615 42.2072 126.59 42.1515 126.551 42.1072C126.379 41.9482 126.195 41.8019 126.016 41.6493C126.003 41.642 125.991 41.632 125.981 41.62C125.972 41.608 125.964 41.5941 125.96 41.5793C125.956 41.5644 125.955 41.5489 125.957 41.5336C125.959 41.5183 125.964 41.5036 125.972 41.4903C126.188 40.9433 126.398 40.3899 126.608 39.8429C126.64 39.7729 126.672 39.7475 126.742 39.7475L127.467 39.7793C127.499 39.7795 127.531 39.7721 127.559 39.7578C127.588 39.7434 127.613 39.7224 127.632 39.6966C127.867 39.4358 128.122 39.1877 128.363 38.9269C128.399 38.8856 128.421 38.8346 128.427 38.7806C128.427 38.5389 128.389 38.2909 128.363 38.0492C128.357 38.0197 128.363 37.9891 128.378 37.9632C128.393 37.9374 128.417 37.9181 128.446 37.9092L130.074 37.2096C130.101 37.1923 130.133 37.186 130.164 37.1919C130.195 37.1979 130.222 37.2156 130.24 37.2414C130.405 37.4131 130.564 37.5848 130.736 37.7502C130.783 37.787 130.842 37.8051 130.901 37.8011H131.938C131.972 37.806 132.007 37.8022 132.039 37.79C132.072 37.7777 132.1 37.7575 132.123 37.7311C132.269 37.5467 132.428 37.3686 132.581 37.1905C132.587 37.1769 132.596 37.1649 132.608 37.1553C132.62 37.1458 132.633 37.139 132.648 37.1353C132.662 37.1317 132.678 37.1313 132.692 37.1342C132.707 37.1372 132.721 37.1434 132.733 37.1523L133.942 37.6294C133.986 37.4767 134.024 37.3241 134.075 37.1841C134.247 36.6919 134.578 36.2709 135.016 35.9876C135.453 35.7043 135.973 35.5747 136.492 35.6194C136.693 35.64 136.891 35.6805 137.084 35.7403C137.135 35.7523 137.183 35.7784 137.22 35.8157C137.258 35.8529 137.284 35.8998 137.297 35.9512C137.309 36.0026 137.307 36.0565 137.291 36.1068C137.275 36.1571 137.245 36.202 137.205 36.2364L136.505 36.9361L136.403 37.0442L137.313 37.8965C137.357 37.8393 137.434 37.7502 137.516 37.6612L138.07 37.1078C138.103 37.0672 138.147 37.0367 138.196 37.0197C138.246 37.0028 138.299 37.0002 138.35 37.0121C138.401 37.024 138.448 37.0501 138.485 37.0872C138.522 37.1244 138.548 37.1712 138.56 37.2223C138.61 37.3749 138.642 37.534 138.68 37.6866L138.661 38.2209Z" fill="#C00020"/>
<path d="M126.646 41.3949C126.805 41.5412 126.965 41.6938 127.13 41.8274C127.172 41.8595 127.204 41.9026 127.224 41.952C127.243 42.0014 127.248 42.0552 127.238 42.1072C127.182 42.5813 127.192 43.0609 127.27 43.532C127.274 43.5847 127.258 43.6369 127.225 43.6783C127.079 43.8246 126.926 43.9645 126.774 44.1045C126.75 44.1223 126.733 44.148 126.726 44.177C126.719 44.2061 126.722 44.2367 126.736 44.2635C126.869 44.5561 126.99 44.8487 127.104 45.1476C127.113 45.1794 127.134 45.2064 127.163 45.223C127.191 45.2396 127.225 45.2445 127.257 45.2367C127.454 45.2367 127.651 45.2049 127.849 45.1794C127.886 45.17 127.925 45.173 127.961 45.1879C127.997 45.2028 128.026 45.2288 128.046 45.2621C128.335 45.666 128.7 46.0095 129.121 46.2734C129.151 46.2904 129.175 46.3157 129.191 46.3462C129.206 46.3766 129.213 46.411 129.21 46.4452C129.21 46.6614 129.21 46.8713 129.21 47.0812C129.22 47.1278 129.247 47.1688 129.286 47.1957C129.585 47.3229 129.89 47.4311 130.189 47.5583C130.215 47.5702 130.244 47.5723 130.271 47.564C130.298 47.5558 130.321 47.5379 130.336 47.5138C130.419 47.4269 130.498 47.3356 130.571 47.2403C130.628 47.1435 130.714 47.0672 130.817 47.0226C130.92 46.978 131.034 46.9674 131.143 46.9922C131.568 47.0472 131.999 47.0256 132.416 46.9286C132.448 46.9197 132.483 46.921 132.515 46.9324C132.546 46.9438 132.574 46.9647 132.594 46.9922C132.734 47.1448 132.88 47.2975 133.026 47.4374C133.045 47.4465 133.066 47.4512 133.087 47.4512C133.108 47.4512 133.128 47.4465 133.147 47.4374L134.063 47.0558C134.076 47.0529 134.088 47.0474 134.098 47.0396C134.109 47.0318 134.118 47.0219 134.124 47.0106C134.131 46.9993 134.135 46.9867 134.136 46.9737C134.138 46.9607 134.137 46.9475 134.133 46.935C134.133 46.7378 134.095 46.5406 134.076 46.3434C134.067 46.306 134.071 46.267 134.086 46.2316C134.1 46.1963 134.126 46.1664 134.158 46.1462C134.563 45.8476 134.914 45.4819 135.195 45.0649C135.212 45.044 135.233 45.027 135.258 45.0149C135.282 45.0029 135.308 44.9961 135.335 44.995H135.971C136.047 44.995 136.086 44.995 136.111 44.9123C136.226 44.6133 136.34 44.3144 136.461 44.0218C136.475 43.9973 136.479 43.9682 136.472 43.9409C136.465 43.9135 136.447 43.8901 136.423 43.8755C136.257 43.7356 136.098 43.602 135.946 43.4621C135.928 43.4458 135.914 43.4261 135.904 43.4043C135.894 43.3824 135.889 43.3588 135.888 43.3348C135.965 42.834 135.952 42.3237 135.85 41.8274C135.839 41.792 135.839 41.7539 135.85 41.7186C135.862 41.6832 135.884 41.6523 135.914 41.6302C136.067 41.4903 136.206 41.344 136.353 41.204C136.376 41.1873 136.393 41.1623 136.399 41.134C136.405 41.1056 136.4 41.0761 136.385 41.0514C136.302 40.8896 136.231 40.7216 136.175 40.5489C136.159 40.4709 136.116 40.4012 136.053 40.3532C135.989 40.3051 135.91 40.2819 135.831 40.2881C135.775 40.2844 135.719 40.3001 135.672 40.3326C135.367 40.6316 135.074 40.9305 134.775 41.2295C134.753 41.2471 134.737 41.2721 134.732 41.3C134.726 41.3279 134.73 41.357 134.744 41.3821C134.973 41.9526 135.042 42.5755 134.941 43.1822C134.867 43.6277 134.705 44.054 134.465 44.4362C134.225 44.8184 133.911 45.1489 133.541 45.4083C133.171 45.6677 132.754 45.8508 132.313 45.947C131.872 46.0431 131.416 46.0503 130.972 45.9681C130.354 45.8697 129.778 45.5962 129.311 45.1802C128.845 44.7642 128.507 44.2231 128.338 43.6211C128.14 43.0454 128.108 42.4253 128.246 41.8322C128.385 41.2391 128.688 40.6972 129.121 40.269C129.6 39.773 130.22 39.4362 130.897 39.3043C131.574 39.1723 132.275 39.2515 132.905 39.5312C132.963 39.5312 133.013 39.5821 133.071 39.5312L133.968 38.6344C133.98 38.595 133.98 38.5529 133.968 38.5135C133.977 38.4353 133.977 38.3563 133.968 38.2782C133.953 38.2321 133.921 38.1935 133.878 38.17C133.56 38.0365 133.242 37.922 132.924 37.7948C132.913 37.788 132.9 37.7836 132.886 37.7818C132.873 37.7801 132.859 37.781 132.846 37.7845C132.833 37.7881 132.821 37.7942 132.811 37.8025C132.8 37.8108 132.791 37.8211 132.784 37.8329C132.664 37.9728 132.524 38.1128 132.409 38.2654C132.378 38.3083 132.335 38.3408 132.285 38.3589C132.235 38.3771 132.181 38.3799 132.129 38.3672C131.655 38.313 131.175 38.3259 130.705 38.4054C130.652 38.4095 130.6 38.3936 130.558 38.3608C130.406 38.2146 130.253 38.0555 130.107 37.9029C130.062 37.8584 130.03 37.8393 129.967 37.9029L129.076 38.2972C129.057 38.3083 129.04 38.324 129.028 38.3428C129.016 38.3616 129.008 38.3831 129.006 38.4054C128.99 38.5406 128.99 38.6772 129.006 38.8124C129.039 38.9184 129.032 39.0323 128.988 39.1338C128.943 39.2353 128.864 39.3176 128.765 39.3658C128.446 39.5982 128.178 39.8924 127.976 40.2309C127.951 40.2813 127.912 40.3229 127.863 40.3502C127.814 40.3775 127.758 40.3891 127.702 40.3835C127.486 40.3835 127.263 40.3835 127.066 40.3835L126.646 41.3949Z" fill="#C00020"/>
<path d="M136.391 36.1855C136.162 36.1627 135.931 36.1871 135.713 36.2571C135.494 36.3272 135.292 36.4413 135.119 36.5926C134.849 36.8213 134.653 37.1241 134.555 37.4634C134.457 37.8027 134.46 38.1635 134.565 38.5008C134.591 38.566 134.597 38.6372 134.584 38.7059C134.57 38.7746 134.537 38.838 134.489 38.8888C133.734 39.6521 132.973 40.4111 132.206 41.1659C132.136 41.2187 132.052 41.2497 131.964 41.2549C131.873 41.2609 131.782 41.2609 131.69 41.2549C131.493 41.2321 131.293 41.2496 131.102 41.3064C130.912 41.3632 130.734 41.4581 130.582 41.5854C130.429 41.7127 130.303 41.8696 130.213 42.0468C130.123 42.224 130.069 42.4177 130.056 42.6161C130.042 42.8292 130.074 43.0428 130.15 43.2425C130.225 43.4422 130.343 43.6235 130.494 43.7743C130.645 43.9251 130.827 44.0419 131.027 44.1169C131.227 44.1919 131.44 44.2234 131.653 44.2092C131.866 44.1951 132.074 44.1356 132.262 44.0349C132.45 43.9341 132.615 43.7943 132.745 43.6249C132.875 43.4554 132.967 43.2602 133.016 43.0522C133.064 42.8443 133.068 42.6284 133.026 42.4189C133.004 42.3437 133.003 42.2637 133.025 42.1883C133.046 42.1128 133.089 42.045 133.147 41.9928C133.872 41.274 134.597 40.5553 135.31 39.8302C135.367 39.7597 135.446 39.7098 135.534 39.688C135.623 39.6662 135.716 39.6737 135.799 39.7093C136.032 39.775 136.275 39.793 136.514 39.7621C136.754 39.7313 136.984 39.6522 137.192 39.5298C137.4 39.4073 137.582 39.244 137.725 39.0497C137.868 38.8553 137.97 38.634 138.026 38.399C138.055 38.2374 138.072 38.0736 138.076 37.9092H138.038C137.86 38.0937 137.682 38.2845 137.498 38.469C137.469 38.515 137.429 38.553 137.382 38.5793C137.335 38.6057 137.281 38.6195 137.227 38.6195C137.173 38.6195 137.12 38.6057 137.073 38.5793C137.025 38.553 136.986 38.515 136.957 38.469L135.812 37.2923C135.615 37.0951 135.621 36.9488 135.812 36.7516L136.391 36.1855Z" fill="#CACACA"/>
<path d="M131.531 46.0763C133.414 46.0763 134.941 44.5499 134.941 42.667C134.941 40.7841 133.414 39.2577 131.531 39.2577C129.648 39.2577 128.122 40.7841 128.122 42.667C128.122 44.5499 129.648 46.0763 131.531 46.0763Z" fill="#CACACA"/>
<path d="M61.8062 0C68.8028 1.03042 74.4511 7.63273 75.0235 14.5404C75.7868 23.706 68.9746 30.7981 61.1637 32.6745C52.5578 34.7353 44.7152 32.7063 37.445 27.9485C34.7409 26.1512 32.1553 24.1817 29.7042 22.0522C26.4183 19.2153 22.6592 16.9784 18.5985 15.4436C15.7563 14.3892 12.7042 14.0252 9.69368 14.3813C6.17626 14.7566 3.33307 17.6761 2.69701 21.378C2.02914 25.3661 2.90055 28.8708 5.87731 31.7331C6.13174 31.9684 6.34164 32.2547 6.77416 32.7381C6.40384 32.7196 6.04093 32.6273 5.70672 32.4668C5.3725 32.3062 5.07369 32.0806 4.82781 31.8031C2.71296 29.9976 1.19363 27.5947 0.469381 24.91C-0.254866 22.2253 -0.150162 19.3843 0.769742 16.7602C1.74404 14.2193 3.43806 12.0177 5.64439 10.4248C7.85072 8.8319 10.4736 7.91688 13.192 7.79175C19.8897 7.58821 25.8115 10.018 31.447 13.281C35.7086 15.7489 39.7158 18.6811 44.3336 20.5002C49.263 22.4402 54.2816 23.3434 59.5163 21.9187C61.3008 21.4668 62.9743 20.6555 64.4344 19.5345C65.8944 18.4135 67.1104 17.0063 68.0078 15.399C71.4489 9.4137 69.1336 3.34568 61.8062 0Z" fill="url(#paint0_linear_52_1083)"/>
<path d="M56.4761 20.5702C58.1489 19.7052 59.8281 18.8847 60.7568 17.1228C61.8762 14.9983 62.0289 12.8484 60.6232 10.8258C59.2175 8.80309 57.2521 8.34513 54.8986 8.73949C49.613 9.62997 45.7966 12.9502 41.8976 16.1305C41.2615 16.6457 40.759 17.1101 39.8367 16.6584C38.1257 15.8188 37.9285 15.3863 39.2007 13.9679C43.952 8.77765 49.0596 4.08988 56.3425 2.72871C60.2034 2.0036 63.7908 3.48562 65.5527 6.50691C67.041 9.05116 66.4877 13.7453 64.3314 16.3468C63.3891 17.5598 62.2034 18.5621 60.8505 19.2895C59.4977 20.0169 58.0076 20.4531 56.4761 20.5702Z" fill="url(#paint1_linear_52_1083)"/>
<path d="M18.4967 17.8097C17.9115 17.6761 17.3327 17.5362 16.7412 17.4154C13.1538 16.7093 10.088 18.5539 9.58547 21.7088C9.04482 25.1053 11.7099 28.3747 15.31 28.7054C19.6734 29.1252 23.2417 27.1407 26.7591 24.9718C27.2871 24.641 27.8213 23.8014 28.451 24.3357C29.0129 24.9419 29.4457 25.6561 29.7232 26.4347C29.8567 26.7209 29.4942 26.9435 29.2716 27.1407C25.576 30.4546 21.4671 32.9098 16.4231 33.584C10.4823 34.3473 4.70688 29.7549 4.74505 24.2403C4.70773 22.569 5.22568 20.9325 6.21781 19.587C7.20994 18.2416 8.62024 17.2631 10.2279 16.8047C11.6017 16.3983 13.0442 16.2778 14.4664 16.4506C15.8886 16.6235 17.2603 17.086 18.4967 17.8097Z" fill="url(#paint2_linear_52_1083)"/>
<path d="M20.8374 61.17C23.8651 55.2673 24.2467 49.6128 24.9654 43.9518C25.5188 39.5566 26.6701 35.2251 29.8122 31.2306C31.1441 29.4295 32.928 28.0121 34.9834 27.1216C34.3987 28.2865 33.9095 29.4969 33.5205 30.7408C32.6745 34.5954 31.8476 38.4499 31.2624 42.2917C30.7345 45.7837 30.3084 49.2884 28.7182 52.704C27.128 56.1197 24.9336 59.1537 20.8374 61.17Z" fill="#00187E"/>
<defs>
<linearGradient id="paint0_linear_52_1083" x1="0.000108473" y1="16.7348" x2="75.0808" y2="16.7348" gradientUnits="userSpaceOnUse">
<stop stop-color="#0D1262"/>
<stop offset="0.27" stop-color="#1A115C"/>
<stop offset="0.51" stop-color="#C70006"/>
<stop offset="0.82" stop-color="#C9C6C0"/>
</linearGradient>
<linearGradient id="paint1_linear_52_1083" x1="38.3801" y1="11.5572" x2="66.3923" y2="11.5572" gradientUnits="userSpaceOnUse">
<stop stop-color="#0D1262"/>
<stop offset="0.27" stop-color="#1A115C"/>
<stop offset="0.51" stop-color="#C70006"/>
<stop offset="0.82" stop-color="#C9C6C0"/>
</linearGradient>
<linearGradient id="paint2_linear_52_1083" x1="4.74505" y1="25.0163" x2="29.685" y2="25.0163" gradientUnits="userSpaceOnUse">
<stop stop-color="#0D1262"/>
<stop offset="0.27" stop-color="#1A115C"/>
<stop offset="0.51" stop-color="#C70006"/>
<stop offset="0.82" stop-color="#C9C6C0"/>
</linearGradient>
</defs>
</svg>
