<svg width="275" height="250" viewBox="0 0 275 250" fill="none" xmlns="http://www.w3.org/2000/svg">
<path d="M501.209 102.809C499.682 111.064 497.698 119.227 495.267 127.262C489.842 142.872 480.363 156.758 467.802 167.497C455.241 178.236 440.05 185.441 423.786 188.374C424.478 190.134 425.116 191.895 425.863 193.708C430.258 203.239 434.602 212.879 439.21 222.35C439.545 222.833 439.782 223.377 439.906 223.952C440.03 224.526 440.04 225.119 439.935 225.697C439.83 226.276 439.612 226.827 439.293 227.321C438.974 227.815 438.562 228.241 438.078 228.575C431.247 235.271 424.472 242.073 417.917 249.031C416.695 250.567 416.092 252.504 416.225 254.462C416.588 268.515 417.599 282.605 418.608 296.642C418.803 298.913 419.793 301.043 421.403 302.658C428.35 308.782 435.506 314.686 442.767 320.425C443.668 320.941 444.349 321.769 444.682 322.753C445.016 323.737 444.977 324.808 444.575 325.766C436.624 347.523 428.786 369.492 421.062 391.674C420.81 392.832 420.114 393.845 419.123 394.495C418.132 395.145 416.926 395.381 415.763 395.151C406.166 394.896 396.576 394.874 386.991 395.086C385.194 395.35 383.553 396.253 382.369 397.63C372.654 408.117 363.052 418.764 353.561 429.569C352.354 430.957 351.691 432.735 351.696 434.574C352.325 444.31 353.167 453.986 354.171 463.658C354.44 464.784 354.276 465.97 353.714 466.982C353.152 467.993 352.231 468.758 351.134 469.125C329.938 478.724 308.944 488.479 288.151 498.391C287.213 498.977 286.088 499.186 285.002 498.974C283.916 498.762 282.951 498.145 282.303 497.249C275.776 490.682 268.985 484.338 262.458 477.772C261.603 476.86 260.534 476.176 259.347 475.783C258.161 475.391 256.895 475.301 255.665 475.523C241.79 476.528 227.792 476.943 213.914 477.786C211.802 477.883 209.796 478.738 208.265 480.195C202.146 487.357 196.292 494.351 190.499 501.613C189.882 502.627 188.896 503.362 187.748 503.663C186.6 503.964 185.38 503.808 184.345 503.226C162.59 495.347 140.838 487.594 119.09 479.966C117.942 479.702 116.941 479.001 116.302 478.011C115.663 477.021 115.435 475.821 115.666 474.666C115.851 465.125 115.873 455.534 115.679 445.949C115.461 444.133 114.573 442.465 113.188 441.272C102.375 431.494 91.4589 421.88 80.4392 412.43C79.0667 411.184 77.2855 410.482 75.4315 410.458C65.9341 411.278 56.4249 412.332 46.9037 413.619C45.7836 413.93 44.5866 413.792 43.5664 413.235C42.5461 412.678 41.783 411.746 41.4388 410.636C31.6945 389.372 21.7923 368.256 11.7323 347.287C11.165 346.325 10.9786 345.185 11.2096 344.092C11.4406 343 12.0725 342.033 12.9807 341.382C19.812 334.687 26.5867 327.885 33.1956 320.925C34.3822 319.371 34.9813 317.447 34.8873 315.494C34.523 301.387 33.6203 287.294 32.7176 273.201C32.5699 270.96 31.5937 268.853 29.9788 267.292C22.974 261.007 15.7097 255.106 8.45231 249.475C7.41197 248.913 6.63273 247.967 6.28136 246.838C5.92999 245.71 6.0344 244.488 6.57224 243.435C14.5232 221.679 22.3127 199.926 29.9406 178.178C30.1693 176.995 30.8499 175.948 31.838 175.258C32.8261 174.569 34.044 174.291 35.2331 174.485C44.6142 174.728 54.0395 174.592 63.4744 174.833C64.7289 174.89 65.9773 174.627 67.1029 174.071C68.2286 173.514 69.1948 172.681 69.9115 171.65C79.0159 161.178 88.6133 151.017 97.8268 140.596C99.3375 138.987 100.187 136.868 100.206 134.661C99.4752 125.144 98.3676 115.636 97.1524 106.131C96.8397 105.018 96.9702 103.827 97.5165 102.809C98.0628 101.79 98.9824 101.023 100.082 100.667C120.88 90.9709 141.928 81.1963 163.225 71.3433C164.28 70.6522 165.561 70.3942 166.801 70.6231C168.041 70.852 169.145 71.5501 169.884 72.5722C176.411 79.1385 182.991 85.6495 189.886 91.883C191.701 93.2805 193.954 93.9863 196.242 93.874C209.864 93.5223 223.415 92.5258 237.035 92.0664C238.365 92.1913 239.705 91.9729 240.927 91.432C242.149 90.891 243.211 90.0457 244.013 88.9767C249.697 81.6641 255.766 74.6648 261.395 67.2998C261.685 66.7889 262.075 66.341 262.54 65.9825C263.006 65.6239 263.538 65.3619 264.106 65.2118C264.674 65.0616 265.267 65.0264 265.849 65.1081C266.431 65.1898 266.991 65.3868 267.495 65.6875C283.274 71.6378 299.099 77.3174 315.198 83.1516C316.823 77.2369 318.124 71.2766 320.13 65.5137C326.501 46.3123 339.032 29.7503 355.777 18.3973C372.522 7.0444 392.546 1.53523 412.742 2.72456C420.724 3.32745 428.628 4.71138 436.34 6.85652C438.343 7.28556 440.19 8.2556 441.68 9.66113C443.17 11.0667 444.247 12.8539 444.792 14.8285C445.337 16.803 445.331 18.8893 444.773 20.8605C444.216 22.8316 443.128 24.6121 441.63 26.0084C432.769 35.5043 423.743 44.8428 414.774 54.2876C413.568 55.558 412.416 56.8808 410.951 58.535L447.351 91.1074C449.179 88.8512 451.992 85.1149 455.136 81.6932C462.107 74.1319 469.135 66.7307 476.117 59.6001C477.399 57.9977 479.098 56.7803 481.028 56.0819C482.957 55.3834 485.042 55.231 487.053 55.6415C489.064 56.052 490.922 57.0094 492.423 58.4083C493.924 59.8072 495.011 61.5933 495.562 63.5699C497.707 69.4411 499.051 75.6024 500.769 81.5925L501.209 102.809Z" fill="#C00020"/>
<path d="M32.8678 239.416C39.37 245.013 45.6057 250.725 52.3108 255.832C53.9741 257.013 55.2679 258.642 56.0415 260.529C56.8152 262.417 57.0369 264.486 56.6809 266.494C54.95 285.1 55.9243 303.858 59.5736 322.184C59.6787 323.21 59.5793 324.248 59.2812 325.236C58.983 326.224 58.492 327.143 57.8365 327.94C52.1248 334.176 46.239 339.931 40.4567 345.522C39.4812 346.208 38.808 347.244 38.5773 348.414C38.3466 349.585 38.5761 350.799 39.2181 351.804C44.4664 363.09 49.6097 374.488 54.4853 385.946C54.6578 386.555 54.9492 387.123 55.3426 387.619C55.7361 388.115 56.2239 388.528 56.7778 388.834C57.3317 389.14 57.9407 389.334 58.5698 389.404C59.1989 389.473 59.8356 389.418 60.4431 389.24C68.1217 388.234 75.9205 387.709 83.5922 386.433C85.049 386.04 86.5937 386.128 87.9964 386.684C89.3991 387.24 90.5847 388.234 91.3765 389.519C103.025 405.016 117.516 418.155 134.078 428.232C135.335 428.861 136.367 429.861 137.035 431.097C137.703 432.333 137.975 433.745 137.812 435.14C138.027 443.432 138.241 451.724 138.455 460.015C138.596 460.948 138.953 461.836 139.497 462.607C140.04 463.378 140.756 464.013 141.587 464.46C153.342 469.006 165.3 473.061 177.107 477.551C178.103 478.077 179.264 478.192 180.343 477.872C181.423 477.552 182.334 476.823 182.882 475.84C185.804 472.154 189.274 468.832 191.811 464.834C193.891 460.961 197.162 457.861 201.141 455.992C205.12 454.123 209.594 453.585 213.903 454.457C230.279 456.067 246.811 454.746 262.724 450.557C264.031 450.195 265.415 450.23 266.702 450.657C267.989 451.085 269.12 451.885 269.951 452.956C275.491 458.847 281.35 464.569 287.259 470.127C287.94 470.635 288.727 470.984 289.561 471.149C290.395 471.314 291.255 471.29 292.079 471.081C303.962 465.979 315.727 460.502 327.608 455.293C330.006 454.261 330.457 452.956 330.122 450.433C329.008 442.757 328.376 434.961 327.26 427.231C326.939 425.755 327.072 424.215 327.642 422.816C328.211 421.417 329.191 420.222 330.452 419.39C346.051 407.284 359.402 392.532 369.897 375.808C370.543 374.998 371.348 374.33 372.262 373.843C373.176 373.356 374.18 373.061 375.212 372.976C383.28 372.445 391.365 372.559 399.549 372.348C400.723 372.546 401.928 372.283 402.914 371.616C403.9 370.948 404.591 369.927 404.844 368.763C408.904 356.967 413.181 345.272 417.621 333.574C418.156 332.591 418.288 331.439 417.988 330.36C417.689 329.282 416.982 328.362 416.017 327.796C409.524 322.576 403.032 317.356 396.755 312.13C396.073 311.526 395.519 310.79 395.128 309.967C394.736 309.144 394.515 308.25 394.476 307.34C397.004 287.592 396.013 267.551 391.547 248.149C391.107 246.746 391.093 245.244 391.508 243.833C391.922 242.422 392.746 241.166 393.874 240.223C399.604 234.687 405.001 228.783 410.622 223.196C411.529 222.529 412.143 221.536 412.335 220.427C412.527 219.317 412.283 218.176 411.653 217.243C408.309 210.964 405.387 204.47 402.908 197.803C402.232 194.731 400.459 192.011 397.922 190.152C395.384 188.294 392.256 187.424 389.124 187.706C386.885 187.66 384.698 188.382 382.927 189.752C371.328 201.689 360.328 213.881 348.892 225.867C348.031 226.555 347.447 227.531 347.247 228.615C347.048 229.699 347.246 230.819 347.805 231.768C357.464 253.909 360.726 278.313 357.221 302.214C347.207 375.531 277.385 427.872 204.433 415.317C152.37 406.316 115.984 376.437 99.0604 326.121C82.3229 276.77 92.6857 231.567 127.733 192.947C146.026 172.992 170.005 159.134 196.429 153.248C222.853 147.363 250.447 149.733 275.48 160.038C277.713 160.95 279.571 161.98 281.876 159.442C293.146 147.297 304.693 135.415 315.963 123.271C316.94 121.921 317.395 120.264 317.244 118.605C317.067 115.515 316.536 112.455 315.661 109.486C315.073 107.657 313.823 106.113 312.155 105.159C299.534 100.474 286.814 96.1148 274.088 91.5405C273.176 91.0575 272.113 90.9422 271.118 91.2184C270.123 91.4946 269.272 92.1413 268.739 93.0256C264.094 98.8566 258.902 104.325 254.532 110.364C253.364 112.047 251.741 113.361 249.853 114.154C247.965 114.948 245.89 115.186 243.872 114.842C225.248 113.139 206.476 114.114 188.128 117.736C187.092 117.877 186.038 117.805 185.031 117.526C184.023 117.246 183.083 116.764 182.267 116.109C176.033 110.452 170.007 104.519 164.034 98.531C163.424 97.7133 162.53 97.1529 161.529 96.9595C160.527 96.7661 159.489 96.9537 158.619 97.4855C147.128 103.17 135.462 108.32 123.969 113.951C123.243 114.421 122.634 115.049 122.186 115.788C121.739 116.528 121.465 117.36 121.385 118.22C121.215 123.636 121.717 129.053 122.879 134.345C125.724 144.347 121.789 150.537 113.905 156.128C101.696 165.673 91.4604 177.502 83.7708 190.958C82.8368 192.941 81.32 194.592 79.4229 195.69C77.5258 196.789 75.3388 197.282 73.1539 197.105C64.6315 196.732 55.9781 197.548 47.1479 197.776L32.8678 239.416Z" fill="#C00020"/>
<path d="M409.178 25.3917C400.417 24.9708 391.66 26.2924 383.413 29.2799C375.167 32.2674 367.595 36.8613 361.136 42.7957C339 63.9489 332.712 89.5958 341.546 118.731C342.635 121.265 342.967 124.059 342.502 126.777C342.036 129.495 340.794 132.02 338.924 134.047C309.971 164.535 281.235 195.126 251.899 225.409C249.192 227.6 245.879 228.908 242.405 229.156C238.79 229.347 235.165 229.097 231.61 228.411C223.695 227.532 215.684 228.3 208.079 230.666C200.475 233.033 193.443 236.947 187.424 242.163C181.406 247.378 176.531 253.783 173.107 260.973C169.683 268.163 167.784 275.984 167.528 283.944C167.16 292.357 168.597 300.75 171.744 308.561C174.89 316.371 179.672 323.417 185.769 329.225C191.866 335.033 199.135 339.469 207.089 342.233C215.043 344.997 223.496 346.026 231.881 345.25C240.266 344.475 248.387 341.913 255.699 337.737C263.011 333.561 269.343 327.867 274.271 321.04C279.199 314.212 282.608 306.408 284.268 298.153C285.929 289.898 285.802 281.383 283.897 273.181C282.946 270.271 282.841 267.152 283.594 264.185C284.348 261.218 285.928 258.526 288.152 256.423C315.785 227.656 343.234 198.715 370.499 169.599C372.728 166.846 375.781 164.878 379.209 163.985C382.638 163.092 386.262 163.32 389.552 164.635C398.834 167.118 408.526 167.674 418.031 166.269C427.537 164.864 436.654 161.528 444.821 156.466C452.988 151.405 460.033 144.725 465.521 136.838C471.009 128.951 474.825 120.024 476.733 110.607C477.612 104.182 478.111 97.7102 478.226 91.2261L476.657 90.9972C469.794 98.5558 462.985 106.113 456.067 113.619C449.149 121.125 442.596 121.887 434.907 114.165C419.369 99.4448 403.99 84.5943 388.768 69.6141C380.866 61.9519 380.883 56.3481 388.22 48.4001C395.558 40.4521 402.318 33.0579 409.178 25.3917Z" fill="#FCFCFB"/>
<path d="M228.856 417.973C302.602 416.068 360.842 354.741 358.938 280.995C357.033 207.249 295.706 149.009 221.96 150.914C148.214 152.818 89.9744 214.145 91.8787 287.891C93.783 361.638 155.11 419.877 228.856 417.973Z" fill="#FCFCFB"/>
<path d="M297.499 213.617C308.15 215.388 317.942 220.561 325.408 228.362C332.874 236.162 337.614 246.171 338.917 256.89C341.954 284.774 321.782 306.9 298.131 313.222C272.073 320.199 248.004 314.517 225.449 300.713C217.07 295.443 209.037 289.64 201.402 283.339C191.161 274.977 179.543 268.458 167.069 264.075C158.388 261.137 149.14 260.269 140.064 261.54C134.632 262.42 129.638 265.057 125.848 269.048C122.058 273.039 119.682 278.162 119.083 283.633C117.963 289.322 118.354 295.206 120.216 300.698C122.078 306.189 125.347 311.097 129.697 314.931C130.469 315.612 131.138 316.457 132.469 317.931C131.317 317.87 130.189 317.58 129.149 317.08C128.11 316.58 127.18 315.878 126.413 315.016C119.824 309.688 115.005 302.487 112.593 294.363C110.18 286.24 110.287 277.576 112.9 269.515C115.649 261.713 120.61 254.879 127.177 249.85C133.745 244.82 141.635 241.811 149.883 241.189C170.274 240.07 188.502 246.981 205.935 256.498C218.655 264.504 231.967 271.527 245.755 277.506C260.459 283.642 276.78 284.736 292.171 280.618C297.568 279.099 302.599 276.494 306.954 272.963C311.31 269.432 314.899 265.049 317.502 260.083C327.641 241.664 320.108 223.27 297.499 213.617Z" fill="url(#paint0_linear_141_1948)"/>
<path d="M282.858 276.71C288.175 274.554 292.663 270.758 295.671 265.873C297.418 262.942 298.262 259.562 298.097 256.155C297.933 252.747 296.767 249.464 294.745 246.716C292.774 244.04 290.025 242.038 286.874 240.982C283.722 239.925 280.322 239.866 277.136 240.813C261.053 243.922 249.792 254.342 238.089 264.342C236.245 265.952 234.721 267.447 231.885 266.119C226.436 263.727 225.969 262.339 229.736 257.985C243.811 241.781 258.845 227.277 281.079 222.392C286.34 220.993 291.907 221.282 296.995 223.22C302.082 225.157 306.432 228.645 309.428 233.19C311.685 237.998 312.603 243.325 312.085 248.611C311.567 253.897 309.633 258.945 306.486 263.223C303.722 267.011 300.188 270.171 296.116 272.495C292.043 274.82 287.525 276.256 282.858 276.71Z" fill="url(#paint1_linear_141_1948)"/>
<defs>
<linearGradient id="paint0_linear_141_1948" x1="110.476" y1="269.523" x2="339.306" y2="263.614" gradientUnits="userSpaceOnUse">
<stop stop-color="#0D1262"/>
<stop offset="0.27" stop-color="#1A115C"/>
<stop offset="0.51" stop-color="#C70006"/>
<stop offset="0.82" stop-color="#C9C6C0"/>
</linearGradient>
<linearGradient id="paint1_linear_141_1948" x1="227.015" y1="250.674" x2="312.409" y2="248.469" gradientUnits="userSpaceOnUse">
<stop stop-color="#0D1262"/>
<stop offset="0.27" stop-color="#1A115C"/>
<stop offset="0.51" stop-color="#C70006"/>
<stop offset="0.82" stop-color="#C9C6C0"/>
</linearGradient>
</defs>
</svg>
