<svg width="512" height="509" viewBox="0 0 512 509" fill="none" xmlns="http://www.w3.org/2000/svg">
<path d="M501.209 102.809C499.682 111.064 497.699 119.227 495.267 127.262C489.842 142.872 480.363 156.758 467.802 167.497C455.241 178.236 440.05 185.441 423.786 188.374C424.478 190.134 425.117 191.895 425.864 193.708C430.258 203.239 434.602 212.879 439.211 222.35C439.546 222.833 439.782 223.377 439.906 223.952C440.031 224.526 440.041 225.119 439.936 225.697C439.83 226.276 439.612 226.827 439.294 227.321C438.975 227.815 438.562 228.241 438.079 228.575C431.247 235.271 424.473 242.073 417.917 249.031C416.695 250.567 416.092 252.504 416.226 254.462C416.589 268.515 417.599 282.605 418.608 296.642C418.803 298.913 419.793 301.043 421.403 302.658C428.35 308.782 435.507 314.686 442.767 320.425C443.668 320.941 444.35 321.769 444.683 322.753C445.016 323.737 444.978 324.808 444.575 325.766C436.624 347.523 428.786 369.492 421.062 391.674C420.81 392.832 420.114 393.845 419.123 394.495C418.133 395.145 416.926 395.381 415.764 395.151C406.167 394.896 396.576 394.874 386.991 395.086C385.195 395.35 383.553 396.253 382.369 397.63C372.655 408.117 363.052 418.764 353.561 429.569C352.354 430.957 351.692 432.735 351.697 434.574C352.325 444.31 353.168 453.986 354.172 463.658C354.44 464.784 354.277 465.97 353.715 466.982C353.153 467.993 352.232 468.758 351.134 469.125C329.938 478.724 308.944 488.479 288.152 498.391C287.214 498.977 286.088 499.186 285.002 498.974C283.916 498.762 282.952 498.145 282.303 497.249C275.776 490.682 268.985 484.338 262.458 477.772C261.604 476.86 260.534 476.176 259.348 475.783C258.161 475.391 256.895 475.301 255.665 475.523C241.791 476.528 227.793 476.943 213.914 477.786C211.802 477.883 209.797 478.738 208.265 480.195C202.146 487.357 196.292 494.351 190.499 501.613C189.883 502.627 188.897 503.362 187.748 503.663C186.6 503.964 185.38 503.808 184.345 503.226C162.59 495.347 140.839 487.594 119.09 479.966C117.942 479.702 116.942 479.001 116.303 478.011C115.663 477.021 115.435 475.821 115.667 474.666C115.852 465.125 115.873 455.534 115.68 445.949C115.462 444.133 114.573 442.465 113.188 441.272C102.376 431.494 91.4594 421.88 80.4397 412.43C79.0672 411.184 77.286 410.482 75.432 410.458C65.9346 411.278 56.4254 412.332 46.9042 413.619C45.7841 413.93 44.587 413.792 43.5668 413.235C42.5466 412.678 41.7835 411.746 41.4393 410.636C31.6949 389.372 21.7928 368.256 11.7328 347.287C11.1655 346.325 10.979 345.185 11.2101 344.092C11.4411 343 12.073 342.033 12.9812 341.382C19.8125 334.687 26.5872 327.885 33.1961 320.925C34.3827 319.371 34.9818 317.447 34.8878 315.494C34.5235 301.387 33.6208 287.294 32.7181 273.201C32.5704 270.96 31.5942 268.853 29.9793 267.292C22.9745 261.007 15.7102 255.106 8.4528 249.475C7.41246 248.913 6.63322 247.967 6.28185 246.838C5.93048 245.71 6.03489 244.488 6.57273 243.435C14.5237 221.679 22.3132 199.926 29.9411 178.178C30.1698 176.995 30.8504 175.947 31.8385 175.258C32.8266 174.569 34.0444 174.291 35.2336 174.485C44.6147 174.728 54.0399 174.592 63.4749 174.833C64.7294 174.89 65.9778 174.627 67.1034 174.071C68.2291 173.514 69.1953 172.681 69.912 171.65C79.0164 161.178 88.6138 151.017 97.8273 140.596C99.338 138.987 100.187 136.868 100.206 134.661C99.4757 125.144 98.3681 115.636 97.1529 106.131C96.8402 105.018 96.9706 103.827 97.5169 102.809C98.0632 101.79 98.9829 101.023 100.083 100.667C120.881 90.9709 141.929 81.1963 163.225 71.3433C164.28 70.6522 165.561 70.3942 166.801 70.6231C168.041 70.852 169.146 71.5501 169.884 72.5722C176.411 79.1385 182.991 85.6495 189.887 91.883C191.702 93.2805 193.954 93.9863 196.242 93.874C209.864 93.5223 223.416 92.5258 237.035 92.0664C238.366 92.1913 239.706 91.9729 240.927 91.432C242.149 90.891 243.212 90.0457 244.014 88.9767C249.697 81.6641 255.767 74.6648 261.395 67.2998C261.686 66.7889 262.075 66.341 262.541 65.9825C263.006 65.6239 263.539 65.3619 264.107 65.2118C264.675 65.0616 265.267 65.0264 265.849 65.1081C266.431 65.1898 266.991 65.3868 267.496 65.6875C283.274 71.6378 299.1 77.3174 315.198 83.1516C316.823 77.2369 318.124 71.2767 320.131 65.5137C326.502 46.3123 339.032 29.7503 355.777 18.3973C372.523 7.0444 392.547 1.53523 412.743 2.72456C420.725 3.32745 428.628 4.71138 436.34 6.85652C438.343 7.28556 440.19 8.2556 441.681 9.66113C443.171 11.0667 444.247 12.8539 444.793 14.8285C445.338 16.803 445.331 18.8893 444.774 20.8605C444.216 22.8316 443.129 24.6121 441.63 26.0084C432.77 35.5043 423.744 44.8428 414.774 54.2876C413.568 55.558 412.417 56.8808 410.951 58.535L447.352 91.1074C449.179 88.8512 451.992 85.1149 455.137 81.6932C462.107 74.1319 469.136 66.7307 476.118 59.6001C477.4 57.9977 479.099 56.7803 481.028 56.0819C482.958 55.3834 485.043 55.231 487.053 55.6415C489.064 56.052 490.922 57.0094 492.424 58.4083C493.925 59.8072 495.011 61.5933 495.562 63.5699C497.708 69.4411 499.052 75.6024 500.769 81.5925L501.209 102.809Z" fill="#C00020"/>
<path d="M32.8688 239.416C39.371 245.013 45.6067 250.725 52.3117 255.831C53.9751 257.013 55.2689 258.642 56.0425 260.529C56.8161 262.417 57.0378 264.486 56.6818 266.494C54.9509 285.1 55.9253 303.858 59.5746 322.184C59.6797 323.21 59.5803 324.248 59.2821 325.236C58.984 326.224 58.493 327.143 57.8375 327.94C52.1257 334.176 46.24 339.931 40.4577 345.522C39.4822 346.208 38.809 347.244 38.5783 348.414C38.3475 349.585 38.5771 350.799 39.2191 351.804C44.4674 363.09 49.6107 374.488 54.4862 385.946C54.6588 386.555 54.9501 387.123 55.3436 387.619C55.7371 388.115 56.2249 388.528 56.7788 388.834C57.3327 389.14 57.9417 389.334 58.5708 389.404C59.1999 389.473 59.8366 389.418 60.4441 389.24C68.1227 388.234 75.9215 387.709 83.5932 386.433C85.05 386.04 86.5947 386.128 87.9974 386.684C89.4001 387.24 90.5856 388.234 91.3775 389.519C103.026 405.016 117.517 418.155 134.079 428.232C135.336 428.861 136.368 429.861 137.036 431.097C137.704 432.333 137.976 433.745 137.813 435.14C138.028 443.432 138.242 451.724 138.456 460.015C138.597 460.948 138.954 461.836 139.498 462.607C140.041 463.378 140.757 464.013 141.588 464.46C153.343 469.006 165.301 473.061 177.108 477.551C178.104 478.077 179.265 478.192 180.344 477.872C181.424 477.552 182.335 476.823 182.883 475.84C185.805 472.155 189.275 468.832 191.812 464.834C193.892 460.961 197.163 457.861 201.142 455.992C205.121 454.123 209.595 453.585 213.904 454.457C230.28 456.067 246.812 454.746 262.725 450.557C264.031 450.195 265.416 450.23 266.703 450.657C267.99 451.085 269.121 451.885 269.952 452.956C275.492 458.847 281.351 464.569 287.26 470.127C287.941 470.635 288.728 470.984 289.562 471.149C290.396 471.314 291.256 471.29 292.079 471.081C303.963 465.979 315.728 460.502 327.609 455.293C330.007 454.261 330.458 452.956 330.123 450.433C329.009 442.757 328.377 434.961 327.261 427.231C326.94 425.755 327.073 424.215 327.643 422.816C328.212 421.417 329.192 420.222 330.453 419.39C346.052 407.284 359.403 392.532 369.898 375.808C370.544 374.998 371.349 374.33 372.263 373.843C373.177 373.356 374.181 373.061 375.213 372.976C383.281 372.445 391.366 372.559 399.55 372.348C400.724 372.546 401.929 372.283 402.915 371.616C403.901 370.948 404.592 369.927 404.845 368.763C408.905 356.967 413.182 345.272 417.621 333.574C418.157 332.591 418.289 331.439 417.989 330.36C417.69 329.282 416.983 328.362 416.018 327.796C409.525 322.576 403.033 317.356 396.756 312.13C396.074 311.526 395.52 310.79 395.129 309.967C394.737 309.144 394.516 308.25 394.477 307.34C397.005 287.592 396.014 267.551 391.548 248.149C391.108 246.746 391.094 245.244 391.509 243.833C391.923 242.422 392.747 241.166 393.875 240.223C399.605 234.687 405.002 228.783 410.623 223.196C411.53 222.529 412.144 221.536 412.336 220.427C412.528 219.317 412.284 218.176 411.654 217.243C408.31 210.964 405.388 204.47 402.909 197.803C402.233 194.731 400.46 192.011 397.923 190.152C395.385 188.294 392.257 187.424 389.125 187.706C386.886 187.66 384.699 188.382 382.928 189.752C371.329 201.689 360.329 213.881 348.893 225.867C348.032 226.555 347.448 227.531 347.248 228.615C347.049 229.699 347.247 230.819 347.806 231.768C357.465 253.909 360.727 278.313 357.222 302.214C347.208 375.531 277.386 427.872 204.434 415.317C152.371 406.316 115.985 376.437 99.0614 326.121C82.3239 276.77 92.6867 231.567 127.734 192.947C146.027 172.992 170.006 159.134 196.43 153.248C222.854 147.363 250.448 149.733 275.481 160.038C277.714 160.95 279.572 161.98 281.877 159.442C293.147 147.297 304.694 135.415 315.964 123.271C316.941 121.921 317.396 120.264 317.244 118.605C317.068 115.515 316.537 112.455 315.662 109.486C315.074 107.657 313.824 106.113 312.156 105.159C299.535 100.474 286.815 96.1148 274.089 91.5405C273.177 91.0575 272.114 90.9422 271.119 91.2184C270.124 91.4946 269.273 92.1413 268.74 93.0256C264.095 98.8566 258.903 104.325 254.533 110.364C253.365 112.047 251.742 113.361 249.854 114.154C247.966 114.948 245.891 115.186 243.873 114.842C225.249 113.139 206.477 114.114 188.129 117.736C187.093 117.877 186.039 117.805 185.032 117.526C184.024 117.246 183.084 116.764 182.268 116.109C176.034 110.452 170.008 104.519 164.035 98.531C163.425 97.7133 162.531 97.1529 161.53 96.9595C160.528 96.7661 159.49 96.9537 158.62 97.4855C147.129 103.17 135.462 108.32 123.97 113.951C123.244 114.421 122.635 115.049 122.187 115.788C121.74 116.528 121.466 117.36 121.386 118.22C121.216 123.636 121.718 129.053 122.88 134.345C125.725 144.347 121.79 150.537 113.906 156.128C101.697 165.673 91.4613 177.502 83.7718 190.958C82.8378 192.941 81.3209 194.592 79.4239 195.69C77.5268 196.789 75.3398 197.282 73.1548 197.105C64.6324 196.732 55.9791 197.548 47.1489 197.776L32.8688 239.416Z" fill="#C00020"/>
<path d="M409.178 25.3917C400.417 24.9708 391.66 26.2924 383.414 29.2799C375.167 32.2674 367.595 36.8613 361.137 42.7957C339 63.9489 332.712 89.5957 341.546 118.731C342.635 121.265 342.967 124.059 342.502 126.777C342.037 129.495 340.794 132.02 338.925 134.047C309.971 164.535 281.236 195.126 251.899 225.409C249.193 227.6 245.879 228.908 242.406 229.156C238.791 229.347 235.166 229.097 231.611 228.411C223.696 227.532 215.684 228.3 208.08 230.666C200.476 233.033 193.443 236.947 187.425 242.163C181.406 247.378 176.532 253.783 173.108 260.973C169.684 268.163 167.784 275.984 167.529 283.944C167.161 292.357 168.598 300.75 171.744 308.561C174.89 316.371 179.673 323.417 185.769 329.225C191.866 335.033 199.136 339.469 207.09 342.233C215.043 344.997 223.497 346.026 231.881 345.25C240.266 344.475 248.387 341.913 255.699 337.737C263.011 333.561 269.344 327.867 274.272 321.04C279.2 314.212 282.609 306.408 284.269 298.153C285.929 289.898 285.803 281.383 283.898 273.181C282.947 270.271 282.842 267.152 283.595 264.185C284.348 261.218 285.929 258.526 288.152 256.423C315.786 227.656 343.235 198.715 370.5 169.599C372.729 166.846 375.781 164.878 379.21 163.985C382.638 163.092 386.263 163.32 389.552 164.635C398.834 167.118 408.527 167.674 418.032 166.269C427.537 164.864 436.654 161.528 444.821 156.466C452.989 151.405 460.033 144.725 465.522 136.838C471.01 128.951 474.825 120.024 476.733 110.607C477.613 104.182 478.111 97.7102 478.226 91.2261L476.658 90.9972C469.795 98.5558 462.986 106.113 456.068 113.619C449.15 121.125 442.596 121.887 434.908 114.165C419.37 99.4448 403.99 84.5943 388.769 69.6141C380.866 61.9519 380.883 56.3481 388.221 48.4001C395.559 40.4521 402.318 33.0579 409.178 25.3917Z" fill="#FCFCFB"/>
<path d="M228.857 417.973C302.603 416.068 360.842 354.741 358.938 280.995C357.034 207.249 295.707 149.009 221.961 150.914C148.214 152.818 89.9749 214.145 91.8792 287.891C93.7835 361.638 155.11 419.877 228.857 417.973Z" fill="#FCFCFB"/>
<path d="M297.5 213.617C308.151 215.388 317.943 220.561 325.409 228.362C332.875 236.162 337.615 246.171 338.918 256.89C341.955 284.774 321.783 306.9 298.132 313.222C272.074 320.199 248.005 314.517 225.45 300.713C217.071 295.443 209.038 289.64 201.403 283.339C191.162 274.977 179.544 268.458 167.07 264.075C158.389 261.137 149.141 260.269 140.065 261.54C134.633 262.42 129.639 265.057 125.849 269.048C122.059 273.039 119.683 278.162 119.084 283.633C117.964 289.322 118.355 295.206 120.217 300.698C122.079 306.189 125.348 311.097 129.698 314.931C130.47 315.612 131.139 316.457 132.47 317.931C131.318 317.87 130.19 317.58 129.15 317.08C128.111 316.58 127.181 315.878 126.414 315.016C119.825 309.688 115.006 302.487 112.594 294.363C110.181 286.24 110.288 277.576 112.901 269.515C115.65 261.713 120.611 254.879 127.178 249.85C133.746 244.82 141.636 241.811 149.884 241.189C170.275 240.07 188.503 246.981 205.936 256.498C218.656 264.504 231.968 271.527 245.756 277.506C260.46 283.642 276.781 284.736 292.172 280.618C297.569 279.099 302.6 276.494 306.955 272.963C311.311 269.432 314.9 265.049 317.503 260.083C327.642 241.664 320.109 223.27 297.5 213.617Z" fill="url(#paint0_linear_2128_41)"/>
<path d="M282.858 276.71C288.175 274.554 292.663 270.758 295.671 265.873C297.418 262.942 298.262 259.562 298.097 256.155C297.933 252.747 296.767 249.464 294.745 246.716C292.774 244.04 290.025 242.038 286.874 240.982C283.722 239.925 280.322 239.866 277.136 240.813C261.053 243.922 249.792 254.342 238.089 264.342C236.245 265.952 234.721 267.447 231.885 266.119C226.436 263.727 225.969 262.339 229.736 257.985C243.811 241.781 258.845 227.277 281.079 222.392C286.34 220.993 291.907 221.282 296.995 223.22C302.082 225.157 306.432 228.645 309.428 233.19C311.685 237.998 312.603 243.325 312.085 248.611C311.567 253.897 309.633 258.945 306.486 263.223C303.722 267.011 300.188 270.171 296.116 272.495C292.043 274.82 287.525 276.256 282.858 276.71Z" fill="url(#paint1_linear_2128_41)"/>
<path d="M166.933 271.244C165.145 270.86 163.357 270.475 161.518 270.199C150.694 268.323 141.308 274.169 139.996 283.847C139.725 286.422 139.98 289.026 140.746 291.499C141.512 293.973 142.772 296.265 144.45 298.237C146.129 300.209 148.19 301.819 150.509 302.971C152.829 304.122 155.358 304.79 157.943 304.935C171.275 305.884 181.996 299.573 192.539 292.673C194.13 291.662 195.678 289.036 197.874 290.596C199.615 292.408 200.972 294.554 201.862 296.905C202.261 297.756 201.202 298.484 200.518 299.094C190.085 309.811 176.587 317.03 161.882 319.758C144.013 322.59 126.098 308.99 125.718 292.19C125.494 287.098 126.956 282.074 129.878 277.898C132.8 273.721 137.017 270.625 141.877 269.09C145.986 267.756 150.32 267.26 154.623 267.63C158.927 268 163.112 269.229 166.933 271.244Z" fill="url(#paint2_linear_2128_41)"/>
<path d="M177.454 403.244C186.251 385.022 186.936 367.763 188.699 350.476C189.481 336.404 194.252 322.845 202.452 311.383C206.397 305.768 211.742 301.284 217.957 298.375C216.263 301.881 214.861 305.522 213.766 309.259C211.484 321.063 208.989 332.927 207.783 344.65C207.03 355.562 204.713 366.309 200.903 376.562C196.639 388.04 188.29 397.541 177.454 403.244Z" fill="#00187E"/>
<defs>
<linearGradient id="paint0_linear_2128_41" x1="110.477" y1="269.523" x2="339.307" y2="263.614" gradientUnits="userSpaceOnUse">
<stop stop-color="#0D1262"/>
<stop offset="0.27" stop-color="#1A115C"/>
<stop offset="0.51" stop-color="#C70006"/>
<stop offset="0.82" stop-color="#C9C6C0"/>
</linearGradient>
<linearGradient id="paint1_linear_2128_41" x1="227.015" y1="250.674" x2="312.409" y2="248.469" gradientUnits="userSpaceOnUse">
<stop stop-color="#0D1262"/>
<stop offset="0.27" stop-color="#1A115C"/>
<stop offset="0.51" stop-color="#C70006"/>
<stop offset="0.82" stop-color="#C9C6C0"/>
</linearGradient>
<linearGradient id="paint2_linear_2128_41" x1="125.558" y1="294.349" x2="201.584" y2="292.386" gradientUnits="userSpaceOnUse">
<stop stop-color="#0D1262"/>
<stop offset="0.27" stop-color="#1A115C"/>
<stop offset="0.51" stop-color="#C70006"/>
<stop offset="0.82" stop-color="#C9C6C0"/>
</linearGradient>
</defs>
</svg>
